<?xml version="1.0" standalone="no"?>
<!DOCTYPE svg PUBLIC "-//W3C//DTD SVG 1.1//EN" "http://www.w3.org/Graphics/SVG/1.1/DTD/svg11.dtd" >
<svg>
<metadata>
Created by FontForge 20090914 at Tue Jul 19 10:44:01 2022
 By www-data
Copyright 2021 The Orelega One Project Authors (https://github.com/JapanYoshi/Orelega)
</metadata>
<defs>
<font id="OrelegaOne-Regular" horiz-adv-x="2280" >
  <font-face 
    font-family="Orelega One"
    font-weight="400"
    font-stretch="normal"
    units-per-em="4096"
    panose-1="2 0 5 3 0 0 0 0 0 0"
    ascent="3276"
    descent="-820"
    x-height="1840"
    cap-height="2480"
    bbox="-1863 -800.008 4640 3480"
    underline-thickness="160"
    underline-position="0"
    unicode-range="U+0020-U+FFFD"
  />
<missing-glyph horiz-adv-x="1497" 
d="M136 0v2730h1089v-2730h-1089zM272 136h817v2458h-817v-2458z" />
    <glyph glyph-name="uniE100" unicode="f&#x131;" horiz-adv-x="2560" 
d="M1421 2466c39.333 -55.333 59.002 -117.335 59.002 -186.002c0 -88.667 -31.167 -164.167 -93.5 -226.5s-137.833 -93.5 -226.5 -93.5s-164.167 31.167 -226.5 93.5s-93.5 137.833 -93.5 226.5c0 24 2.66699 47.333 8 70c-4.66699 0.666992 -9 1 -13 1
c-28.667 0 -52.834 -14.667 -72.501 -44s-29.5 -73.666 -29.5 -133c0 -30 7.83301 -58.167 23.5 -84.5s38.5 -56.166 68.5 -89.499c24 -26.667 40.167 -45 48.5 -55s18.166 -25.667 29.499 -47s17 -40.666 17 -57.999h1360v-1520h200v-320h-960v320h200v1200h-800v-1200h360
v-320h-1120v320h200v1200h-280v320h280c0 80 1.33301 146.667 4 200s8.5 110.666 17.5 172c9 61.333 21.833 111.5 38.5 150.5s39.667 77.667 69 116s65 68.333 107 90s93.5 39 154.5 52s130.833 19.5 209.5 19.5c122.667 0 220.5 -15 293.5 -45s128.833 -73 167.5 -129z
" />
    <glyph glyph-name="uniE101" unicode="fj" 
d="M160 0l-0.000976562 320.001h200v1200h-280v320h280c0 253.333 85.833 450 257.5 590s432.5 210 782.5 210c95.333 0 176.166 -1.66699 242.499 -5s125.5 -9 177.5 -17s95.5 -19.167 130.5 -33.5s64.833 -31.5 89.5 -51.5s46.667 -44.667 66 -74
c36 -54 54 -113.667 54 -179c0 -88.667 -31.167 -164.167 -93.5 -226.5s-137.833 -93.5 -226.5 -93.5s-164.167 31.167 -226.5 93.5s-93.5 137.833 -93.5 226.5v4c-44.667 24 -98 36 -160 36c-29.333 0 -62.666 -6.16699 -99.999 -18.5s-76 -32 -116 -59
s-76.667 -58.667 -110 -95s-60.666 -81.5 -81.999 -135.5s-32 -111.333 -32 -172h1280v-1840c0 -100.667 -8.33301 -191.334 -25 -272.001s-43.834 -154.334 -81.5 -221.001c-37.667 -66.667 -85.667 -122.334 -144 -167.001s-130.166 -79.167 -215.499 -103.5
s-183.333 -36.5 -294 -36.5c-99.333 0 -182 7.16699 -248 21.5s-117.5 34.166 -154.5 59.499s-68.833 59 -95.5 101c-36 53.333 -54 112.666 -54 177.999c0 88.667 31.167 164.167 93.5 226.5s137.833 93.5 226.5 93.5s164.167 -31.167 226.5 -93.5
s93.5 -137.833 93.5 -226.5c0 -13.333 -0.666992 -26.666 -2 -39.999c16.667 0.666992 30.5 3.83398 41.5 9.50098s21.5 17.834 31.5 36.501s17.667 45.334 23 80.001s9.66602 81 12.999 139s5 129.667 5 215v1520h-720v-1200h360v-320h-1120z" />
    <glyph glyph-name="uniE102" unicode="fh" horiz-adv-x="3680" 
d="M2800 1880c93.333 0 175.004 -12.667 245.004 -38s127.333 -60.166 172 -104.499s80.834 -100.666 108.5 -168.999c27.667 -68.333 47 -141.666 58 -219.999s16.5 -167.833 16.5 -268.5v-760h200v-320h-960v320h200v800c0 105.333 -9.5 187.333 -28.5 246
s-46.333 99 -82 121s-84.167 33 -145.5 33c-64 0 -129.667 -30.833 -197 -92.5s-129.666 -146.5 -186.999 -254.5v-858h200v-320h-960v320h200v1920c-116 53.333 -236 80 -360 80c-50.667 0 -97.5 -10 -140.5 -30s-80.833 -49.333 -113.5 -88s-58.334 -88.5 -77.001 -149.5
s-28.334 -130.167 -29.001 -207.5h440v-320l-440 -2v-1203h280v-320h-1040v320h200v1201l-280 -1v325h280c0.666992 122.667 18.667 232.834 54 330.501s87.666 181 156.999 250s157.166 122 263.499 159s228.166 55.5 365.499 55.5c103.333 0 199.833 -5.5 289.5 -16.5
s165 -24.333 226 -40s117.833 -31.334 170.5 -47.001s105.5 -29 158.5 -40s104.833 -16.5 155.5 -16.5v-996c16.667 43.333 36.334 83.666 59 120.999c22.667 37.333 51.167 73.666 85.5 108.999s72.666 65.166 115 89.499c42.333 24.333 92.666 44 151 59
c58.333 15 121.5 22.5 189.5 22.5z" />
    <glyph glyph-name="uniE103" unicode="fb" horiz-adv-x="3450" 
d="M1200 2640c103.333 0 194.329 -5.49805 272.996 -16.498s140.667 -24.333 186 -40s86.5 -31.334 123.5 -47c37 -15.667 76.5 -29 118.5 -40s88.333 -16.5 139 -16.5v-940c27.333 47.333 59.333 90.666 96 129.999s79.834 75.166 129.5 107.499
c49.667 32.333 107.5 57.5 173.5 75.5s137 27 213 27c156 0 288.333 -39.5 397 -118.5s189.5 -189.833 242.5 -332.5s79.5 -312.667 79.5 -510c0 -144.667 -20 -277.167 -60 -397.5s-95.333 -221.333 -166 -303s-154.834 -145.167 -252.5 -190.5
c-97.667 -45.333 -203.834 -68 -318.5 -68c-53.333 0 -104.666 4.66699 -153.999 14s-92.333 20.833 -129 34.5s-72.5 31.167 -107.5 52.5s-64 41 -87 59s-46 39.333 -69 64s-40 44 -51 58s-23.167 30.333 -36.5 49l-195 -291h-265v2240c-26 12 -49.167 25.667 -69.5 41
s-38.166 25.666 -53.499 31c-15.333 5.33301 -41 8 -77 8c-105.333 0 -191.666 -41.5 -258.999 -124.5s-101 -201.5 -101 -355.5h360v-320h-360v-1200h280v-320h-1040v320h200v1200h-280v320h280c0 250.667 71.333 446.667 214 588s351.334 212 626.001 212zM2040 1251v-652
c35.333 -82 81.333 -147.167 138 -195.5s123.667 -72.5 201 -72.5c132 0 230 51.667 294 155s96 250 96 440c0 178 -37.167 321.5 -111.5 430.5s-162.833 163.5 -265.5 163.5c-73.333 0 -137.833 -22.5 -193.5 -67.5s-108.5 -112.167 -158.5 -201.5z" />
    <glyph glyph-name="uniE104" unicode="fk" horiz-adv-x="3640" 
d="M2560 1520v320h960v-320h-262l-397 -436l535 -764h164v-320h-960v320h128l-448 640l510 560h-230zM1200 2635c103.333 0 199.838 -5.5 289.505 -16.5s165 -24.333 226 -40s117.833 -31.334 170.5 -47.001s105.5 -29 158.5 -40s104.833 -16.5 155.5 -16.5v-2160h200v-320
h-960v320h200v1920c-116 53.333 -236 80 -360 80c-50.667 0 -97.5 -10 -140.5 -30s-80.833 -49.333 -113.5 -88s-58.334 -88.5 -77.001 -149.5s-28.334 -130.167 -29.001 -207.5h440v-320l-440 -2v-1203h280v-320h-1040v320h200v1201l-280 -1v325h280
c0.666992 122.667 18.667 232.834 54 330.501s87.666 181 156.999 250s157.166 122 263.499 159s228.166 55.5 365.499 55.5z" />
    <glyph glyph-name="uniE105" unicode="&#x133;&#xb4;" horiz-adv-x="2160" 
d="M1200 1840l760 -0.00292969v-1840c0 -162 -37.667 -303.5 -113 -424.5s-182.333 -213.833 -321 -278.5s-300.667 -97 -486 -97c-112 0 -206.5 3.66699 -283.5 11s-139.833 19.333 -188.5 36s-86.667 35.334 -114 56.001s-51.333 46.667 -72 78
c-36 54 -54 113.667 -54 179c0 88.667 31.167 164.167 93.5 226.5s137.833 93.5 226.5 93.5s164.167 -31.167 226.5 -93.5s93.5 -137.833 93.5 -226.5c0 -11.333 -0.666992 -22.666 -2 -33.999c24 -4 55.333 -6 94 -6c96 0 176.667 41.833 242 125.5s98 201.834 98 354.501
v1520h-200v320zM1159 2091l479.999 479.999c46 46 101.333 69 166 69s120 -23 166 -69s69 -101.333 69 -166c0 -53.333 -16.167 -101 -48.5 -143s-74.166 -70 -125.499 -84l-656 -176c-5.33301 -1.33301 -10 -2 -14 -2c-14.667 0 -27.167 5.16699 -37.5 15.5
s-15.5 22.833 -15.5 37.5s5.33301 27.334 16 38.001zM79.999 1840h760v-1520h200v-320h-960v320h200v1200h-200v320zM126.999 2086l479.999 480c46 46 101.333 69 166 69s120 -22.833 166 -68.5s69 -101.167 69 -166.5c0 -53.333 -16.167 -101 -48.5 -143
s-74.166 -70 -125.499 -84l-656 -176c-5.33301 -1.33301 -10 -2 -14 -2c-14.667 0 -27.167 5.16699 -37.5 15.5s-15.5 22.833 -15.5 37.5s5.33301 27.334 16 38z" />
    <glyph glyph-name="uniE106" unicode="f&#xec;" horiz-adv-x="2560" 
d="M2441 2091c10.667 -10.667 15.999 -23.334 15.999 -38c0 -14.667 -5.16699 -27.167 -15.5 -37.5s-22.833 -15.5 -37.5 -15.5c-4 0 -8.66699 0.666992 -14 2l-656 176c-51.333 14 -93.166 42 -125.499 84s-48.5 89.667 -48.5 143c0 64.667 23 120 69 166
s101.333 69 166 69s120 -23 166 -69zM1421 2466c39.333 -55.333 59.002 -117.335 59.002 -186.002c0 -88.667 -31.167 -164.167 -93.5 -226.5s-137.833 -93.5 -226.5 -93.5s-164.167 31.167 -226.5 93.5s-93.5 137.833 -93.5 226.5c0 24 2.66699 47.333 8 70
c-4.66699 0.666992 -9 1 -13 1c-28.667 0 -52.834 -14.667 -72.501 -44s-29.5 -73.666 -29.5 -133c0 -30 7.83301 -58.167 23.5 -84.5s38.5 -56.166 68.5 -89.499c24 -26.667 40.167 -45 48.5 -55s18.166 -25.667 29.499 -47s17 -40.666 17 -57.999h1360v-1520h200v-320
h-960v320h200v1200h-800v-1200h360v-320h-1120v320h200v1200h-280v320h280c0 80 1.33301 146.667 4 200s8.5 110.666 17.5 172c9 61.333 21.833 111.5 38.5 150.5s39.667 77.667 69 116s65 68.333 107 90s93.5 39 154.5 52s130.833 19.5 209.5 19.5
c122.667 0 220.5 -15 293.5 -45s128.833 -73 167.5 -129z" />
    <glyph glyph-name="uniE107" unicode="f&#xed;" horiz-adv-x="2560" 
d="M1559 2091l480 480c46 46 101.333 69 166 69s120 -23 166 -69s69 -101.333 69 -166c0 -53.333 -16.167 -101 -48.5 -143s-74.166 -70 -125.5 -84l-656 -176c-5.33301 -1.33301 -10 -2 -14 -2c-14.667 0 -27.167 5.16699 -37.5 15.5s-15.5 22.833 -15.5 37.5
s5.33301 27.334 16 38zM1421 2466c39.333 -55.333 59.002 -117.335 59.002 -186.002c0 -88.667 -31.167 -164.167 -93.5 -226.5s-137.833 -93.5 -226.5 -93.5s-164.167 31.167 -226.5 93.5s-93.5 137.833 -93.5 226.5c0 24 2.66699 47.333 8 70
c-4.66699 0.666992 -9 1 -13 1c-28.667 0 -52.834 -14.667 -72.501 -44s-29.5 -73.666 -29.5 -133c0 -30 7.83301 -58.167 23.5 -84.5s38.5 -56.166 68.5 -89.499c24 -26.667 40.167 -45 48.5 -55s18.166 -25.667 29.499 -47s17 -40.666 17 -57.999h1360v-1520h200v-320
h-960v320h200v1200h-800v-1200h360v-320h-1120v320h200v1200h-280v320h280c0 80 1.33301 146.667 4 200s8.5 110.666 17.5 172c9 61.333 21.833 111.5 38.5 150.5s39.667 77.667 69 116s65 68.333 107 90s93.5 39 154.5 52s130.833 19.5 209.5 19.5
c122.667 0 220.5 -15 293.5 -45s128.833 -73 167.5 -129z" />
    <glyph glyph-name="uniE108" unicode="f&#xee;" horiz-adv-x="2560" 
d="M2491 1996h-351l-135 480l-135 -480h-351l324 640h324zM1421 2466c39.333 -55.333 59.002 -117.335 59.002 -186.002c0 -88.667 -31.167 -164.167 -93.5 -226.5s-137.833 -93.5 -226.5 -93.5s-164.167 31.167 -226.5 93.5s-93.5 137.833 -93.5 226.5
c0 24 2.66699 47.333 8 70c-4.66699 0.666992 -9 1 -13 1c-28.667 0 -52.834 -14.667 -72.501 -44s-29.5 -73.666 -29.5 -133c0 -30 7.83301 -58.167 23.5 -84.5s38.5 -56.166 68.5 -89.499c24 -26.667 40.167 -45 48.5 -55s18.166 -25.667 29.499 -47
s17 -40.666 17 -57.999h1360v-1520h200v-320h-960v320h200v1200h-800v-1200h360v-320h-1120v320h200v1200h-280v320h280c0 80 1.33301 146.667 4 200s8.5 110.666 17.5 172c9 61.333 21.833 111.5 38.5 150.5s39.667 77.667 69 116s65 68.333 107 90s93.5 39 154.5 52
s130.833 19.5 209.5 19.5c122.667 0 220.5 -15 293.5 -45s128.833 -73 167.5 -129z" />
    <glyph glyph-name="uniE109" unicode="f&#xef;" horiz-adv-x="2560" 
d="M2380 2540c66 0 122.5 -23.5 169.5 -70.5s70.5 -103.5 70.5 -169.5s-23.5 -122.5 -70.5 -169.5s-103.5 -70.5 -169.5 -70.5s-122.5 23.5 -169.5 70.5s-70.5 103.5 -70.5 169.5s23.5 122.5 70.5 169.5s103.5 70.5 169.5 70.5zM1820 2540c66 0 122.5 -23.5 169.5 -70.5
s70.5 -103.5 70.5 -169.5s-23.5 -122.5 -70.5 -169.5s-103.5 -70.5 -169.5 -70.5s-122.5 23.5 -169.5 70.5s-70.5 103.5 -70.5 169.5s23.5 122.5 70.5 169.5s103.5 70.5 169.5 70.5zM1421 2466c39.333 -55.333 59.002 -117.335 59.002 -186.002
c0 -88.667 -31.167 -164.167 -93.5 -226.5s-137.833 -93.5 -226.5 -93.5s-164.167 31.167 -226.5 93.5s-93.5 137.833 -93.5 226.5c0 24 2.66699 47.333 8 70c-4.66699 0.666992 -9 1 -13 1c-28.667 0 -52.834 -14.667 -72.501 -44s-29.5 -73.666 -29.5 -133
c0 -30 7.83301 -58.167 23.5 -84.5s38.5 -56.166 68.5 -89.499c24 -26.667 40.167 -45 48.5 -55s18.166 -25.667 29.499 -47s17 -40.666 17 -57.999h1360v-1520h200v-320h-960v320h200v1200h-800v-1200h360v-320h-1120v320h200v1200h-280v320h280
c0 80 1.33301 146.667 4 200s8.5 110.666 17.5 172c9 61.333 21.833 111.5 38.5 150.5s39.667 77.667 69 116s65 68.333 107 90s93.5 39 154.5 52s130.833 19.5 209.5 19.5c122.667 0 220.5 -15 293.5 -45s128.833 -73 167.5 -129z" />
    <glyph glyph-name="uniE10A" unicode="f&#x129;" horiz-adv-x="2560" 
d="M2332 2318c0 58 20.502 107.5 61.502 148.5s90.5 61.5 148.5 61.5s107.5 -20.5 148.5 -61.5s61.5 -90.5 61.5 -148.5c0 -94 -23.333 -162.667 -70 -206c-25.333 -23.333 -53 -39.833 -83 -49.5s-69 -14.5 -117 -14.5c-62 0 -124.667 14.667 -188 44s-120 65.333 -170 108
c-1.33301 1.33301 -7.16602 6.33301 -17.5 15c-10.333 8.66699 -17.166 14.167 -20.5 16.5c-3.33301 2.33301 -9.33301 7 -18 14s-15.334 11.833 -20.001 14.5s-10.834 6 -18.501 10s-14.667 6.66699 -21 8s-12.5 2 -18.5 2v-16c0 -58 -20.5 -107.5 -61.5 -148.5
s-90.5 -61.5 -148.5 -61.5s-107.5 20.5 -148.5 61.5s-61.5 90.5 -61.5 148.5c0 94 23.333 162.667 70 206c25.333 23.333 53 39.833 83 49.5s69 14.5 117 14.5c62 0 124.667 -14.667 188 -44s120 -65.333 170 -108c1.33301 -1.33301 7.16602 -6.33301 17.5 -15
c10.333 -8.66699 17.166 -14.167 20.5 -16.5c3.33301 -2.33301 9.33301 -7 18 -14s15.334 -11.833 20 -14.5c4.66699 -2.66699 10.834 -6 18.5 -10c7.66699 -4 14.667 -6.66699 21 -8s12.5 -2 18.5 -2v16zM1421 2466c39.333 -55.333 59.002 -117.335 59.002 -186.002
c0 -88.667 -31.167 -164.167 -93.5 -226.5s-137.833 -93.5 -226.5 -93.5s-164.167 31.167 -226.5 93.5s-93.5 137.833 -93.5 226.5c0 24 2.66699 47.333 8 70c-4.66699 0.666992 -9 1 -13 1c-28.667 0 -52.834 -14.667 -72.501 -44s-29.5 -73.666 -29.5 -133
c0 -30 7.83301 -58.167 23.5 -84.5s38.5 -56.166 68.5 -89.499c24 -26.667 40.167 -45 48.5 -55s18.166 -25.667 29.499 -47s17 -40.666 17 -57.999h1360v-1520h200v-320h-960v320h200v1200h-800v-1200h360v-320h-1120v320h200v1200h-280v320h280
c0 80 1.33301 146.667 4 200s8.5 110.666 17.5 172c9 61.333 21.833 111.5 38.5 150.5s39.667 77.667 69 116s65 68.333 107 90s93.5 39 154.5 52s130.833 19.5 209.5 19.5c122.667 0 220.5 -15 293.5 -45s128.833 -73 167.5 -129z" />
    <glyph glyph-name="uniE10B" unicode="f&#x12b;" horiz-adv-x="2560" 
d="M1620 2080v320h810v-320h-810zM1421 2466c39.333 -55.333 59.002 -117.335 59.002 -186.002c0 -88.667 -31.167 -164.167 -93.5 -226.5s-137.833 -93.5 -226.5 -93.5s-164.167 31.167 -226.5 93.5s-93.5 137.833 -93.5 226.5c0 24 2.66699 47.333 8 70
c-4.66699 0.666992 -9 1 -13 1c-28.667 0 -52.834 -14.667 -72.501 -44s-29.5 -73.666 -29.5 -133c0 -30 7.83301 -58.167 23.5 -84.5s38.5 -56.166 68.5 -89.499c24 -26.667 40.167 -45 48.5 -55s18.166 -25.667 29.499 -47s17 -40.666 17 -57.999h1360v-1520h200v-320
h-960v320h200v1200h-800v-1200h360v-320h-1120v320h200v1200h-280v320h280c0 80 1.33301 146.667 4 200s8.5 110.666 17.5 172c9 61.333 21.833 111.5 38.5 150.5s39.667 77.667 69 116s65 68.333 107 90s93.5 39 154.5 52s130.833 19.5 209.5 19.5
c122.667 0 220.5 -15 293.5 -45s128.833 -73 167.5 -129z" />
    <glyph glyph-name="uniE10C" unicode="f&#x12d;" horiz-adv-x="2560" 
d="M1540 2520v120h360v-120c0 -68 4.33301 -118.667 13 -152s23.167 -56.333 43.5 -69s51.5 -19 93.5 -19s73.167 6.33301 93.5 19s34.833 35.667 43.5 69s13 84 13 152v120h360v-120c0 -68.667 -14 -135 -42 -199s-65.167 -119.5 -111.5 -166.5
s-100.833 -84.5 -163.5 -112.5s-127 -42 -193 -42s-130.333 14 -193 42s-117.167 65.5 -163.5 112.5s-83.5 102.5 -111.5 166.5s-42 130.333 -42 199zM1421 2466c39.333 -55.333 59.002 -117.335 59.002 -186.002c0 -88.667 -31.167 -164.167 -93.5 -226.5
s-137.833 -93.5 -226.5 -93.5s-164.167 31.167 -226.5 93.5s-93.5 137.833 -93.5 226.5c0 24 2.66699 47.333 8 70c-4.66699 0.666992 -9 1 -13 1c-28.667 0 -52.834 -14.667 -72.501 -44s-29.5 -73.666 -29.5 -133c0 -30 7.83301 -58.167 23.5 -84.5
s38.5 -56.166 68.5 -89.499c24 -26.667 40.167 -45 48.5 -55s18.166 -25.667 29.499 -47s17 -40.666 17 -57.999h1360v-1520h200v-320h-960v320h200v1200h-800v-1200h360v-320h-1120v320h200v1200h-280v320h280c0 80 1.33301 146.667 4 200s8.5 110.666 17.5 172
c9 61.333 21.833 111.5 38.5 150.5s39.667 77.667 69 116s65 68.333 107 90s93.5 39 154.5 52s130.833 19.5 209.5 19.5c122.667 0 220.5 -15 293.5 -45s128.833 -73 167.5 -129z" />
    <glyph glyph-name="uniE10D" unicode="f&#x12f;" horiz-adv-x="2480" 
d="M2040 -440c0 88.667 31.167 164.17 93.5 226.503s137.833 93.5 226.5 93.5s164.167 -31.167 226.5 -93.5s93.5 -137.833 93.5 -226.5c0 -47.333 -9.66699 -91.833 -29 -133.5s-46 -77.167 -80 -106.5c-20.667 -20.667 -40 -37.334 -58 -50.001
s-41.167 -24.834 -69.5 -36.501s-62.333 -20.167 -102 -25.5s-86.834 -8 -141.501 -8c-147.333 0 -264.166 33.167 -350.499 99.5s-129.5 166.5 -129.5 300.5c0 69.333 8.5 134.166 25.5 194.499s46.5 128.833 88.5 205.5h-394v320h200v1200h-720v-1200h280v-320h-1040v320
h200v1200h-280v320h280c0 253.333 85.833 450 257.5 590s432.5 210 782.5 210c95.333 0 176.166 -1.66699 242.499 -5s125.5 -9 177.5 -17s95.5 -19.167 130.5 -33.5s64.833 -31.5 89.5 -51.5s46.667 -44.667 66 -74c36 -54 54 -113.667 54 -179
c0 -88.667 -31.167 -164.167 -93.5 -226.5s-137.833 -93.5 -226.5 -93.5s-164.167 31.167 -226.5 93.5s-93.5 137.833 -93.5 226.5v4c-44.667 24 -98 36 -160 36c-29.333 0 -62.666 -6.16699 -99.999 -18.5s-76 -32 -116 -59s-76.667 -58.667 -110 -95
s-60.666 -81.5 -81.999 -135.5s-32 -111.333 -32 -172h1280v-1520h200v-320h-287c-32.667 -61.333 -59.667 -125 -81 -191s-32 -122.333 -32 -169c0.666992 -41.333 5.16699 -78.833 13.5 -112.5s21.166 -52.167 38.499 -55.5c-8 28.667 -12 58 -12 88z" />
    <glyph glyph-name="uniFB01" unicode="fi" horiz-adv-x="2480" 
d="M160 0l-0.000976562 320h200v1200h-280v320h280c0 253.333 85.833 450 257.5 590s432.5 210 782.5 210c95.333 0 176.166 -1.66699 242.499 -5s125.5 -9 177.5 -17s95.5 -19.167 130.5 -33.5s64.833 -31.5 89.5 -51.5s46.667 -44.667 66 -74c36 -54 54 -113.667 54 -179
c0 -88.667 -31.167 -164.167 -93.5 -226.5s-137.833 -93.5 -226.5 -93.5s-164.167 31.167 -226.5 93.5s-93.5 137.833 -93.5 226.5v4c-44.667 24 -98 36 -160 36c-29.333 0 -62.666 -6.16699 -99.999 -18.5s-76 -32 -116 -59s-76.667 -58.667 -110 -95
s-60.666 -81.5 -81.999 -135.5s-32 -111.333 -32 -172h1280v-1520h200v-320h-960v320h200v1200h-720v-1200h280v-320h-1040z" />
    <glyph glyph-name="uniFB02" unicode="fl" horiz-adv-x="2480" 
d="M1200 2635c103.333 0 199.838 -5.5 289.505 -16.5s165 -24.333 226 -40s117.833 -31.334 170.5 -47.001s105.5 -29 158.5 -40s104.833 -16.5 155.5 -16.5v-2160h200v-320h-960v320h200v1920c-116 53.333 -236 80 -360 80c-50.667 0 -97.5 -10 -140.5 -30
s-80.833 -49.333 -113.5 -88s-58.334 -88.5 -77.001 -149.5s-28.334 -130.167 -29.001 -207.5h440v-320l-440 -2v-1203h280v-320h-1040v320h200v1201l-280 -1v325h280c0.666992 122.667 18.667 232.834 54 330.501s87.666 181 156.999 250s157.166 122 263.499 159
s228.166 55.5 365.499 55.5z" />
    <glyph glyph-name=".notdef" horiz-adv-x="1497" 
d="M136 0v2730h1089v-2730h-1089zM272 136h817v2458h-817v-2458z" />
    <glyph glyph-name="space" unicode=" " horiz-adv-x="1080" 
 />
    <glyph glyph-name="exclam" unicode="!" horiz-adv-x="800" 
d="M80 300c0 88.667 31.167 164.167 93.5 226.5s137.833 93.5 226.5 93.5s164.167 -31.167 226.5 -93.5s93.5 -137.833 93.5 -226.5s-31.167 -164.167 -93.5 -226.5s-137.833 -93.5 -226.5 -93.5s-164.167 31.167 -226.5 93.5s-93.5 137.833 -93.5 226.5zM400 2560
c88.667 0 164.167 -31.168 226.5 -93.501s93.5 -137.833 93.5 -226.5c0 -141.333 -25 -338.833 -75 -592.5s-103.667 -482.834 -161 -687.501h-168c-57.333 204.667 -111 433.834 -161 687.501s-75 451.167 -75 592.501c0 88.667 31.167 164.167 93.5 226.5
s137.833 93.5 226.5 93.5z" />
    <glyph glyph-name="quotedbl" unicode="&#x22;" horiz-adv-x="1480" 
d="M1120 2560c77.333 0 143.333 -27.333 198 -82s82 -120.667 82 -198c0 -240 -53.333 -573.333 -160 -1000h-240c-106.667 426.667 -160 760 -160 1000c0 77.333 27.333 143.333 82 198s120.667 82 198 82zM360 2560c77.333 0 143.333 -27.333 198 -82s82 -120.667 82 -198
c0 -240 -53.333 -573.333 -160 -1000h-240c-106.667 426.667 -160 760 -160 1000c0 77.333 27.333 143.333 82 198s120.667 82 198 82z" />
    <glyph glyph-name="numbersign" unicode="#" horiz-adv-x="2240" 
d="M2160 840v-320h-470l-50 -520h-400l50 520h-480l-50 -520h-400l50 520h-330v320h361l78 800h-439v320h470l50 520h400l-50 -520h480l50 520h400l-50 -520h330v-320h-361l-78 -800h439zM1399 1640h-480l-78 -800h480z" />
    <glyph glyph-name="dollar" unicode="$" horiz-adv-x="2120" 
d="M920 2640h319.999v-136c51.333 -7.33301 101.833 -17.5 151.5 -30.5s99.834 -29.667 150.501 -50s98.167 -43.5 142.5 -69.5s86 -56.667 125 -92s72.5 -73.5 100.5 -114.5s50 -87.833 66 -140.5s24 -108.334 24 -167.001c0 -88.667 -31.167 -164.167 -93.5 -226.5
s-137.833 -93.5 -226.5 -93.5s-164.167 31.167 -226.5 93.5s-93.5 137.833 -93.5 226.5c0 59.333 15 113.833 45 163.5s69.667 88.5 119 116.5c-72.667 43.333 -167.334 69 -284.001 77v-729l81 -30l150 -57c34 -13.333 80.833 -33.833 140.5 -61.5s105.834 -53 138.501 -76
s70.334 -53.333 113.001 -91s74.834 -76.167 96.501 -115.5s40.5 -86.333 56.5 -141s24 -113.334 24 -176.001c0 -98 -19.5 -190.333 -58.5 -277s-93.333 -162.334 -163 -227.001s-154.167 -118.667 -253.5 -162s-207.666 -71.666 -324.999 -84.999v-129h-320v130
c-54 6 -107.667 15 -161 27s-108 27.833 -164 47.5s-108.667 42.334 -158 68.001s-96 56.5 -140 92.5s-82 75 -114 117s-57.167 90.167 -75.5 144.5s-27.5 112.166 -27.5 173.499c0 88.667 31.167 164.167 93.5 226.5s137.833 93.5 226.5 93.5s164.167 -31.167 226.5 -93.5
s93.5 -137.833 93.5 -226.5c0 -57.333 -13.833 -110.166 -41.5 -158.499s-65.167 -86.833 -112.5 -115.5c90.667 -52 208.667 -80.333 354 -85v731l-81 30l-150 57c-34 13.333 -80.833 33.833 -140.5 61.5s-105.834 53 -138.501 76s-70.334 53.333 -113.001 91
s-74.834 76.167 -96.501 115.5s-40.5 86.333 -56.5 141s-24 113.334 -24 176.001c0 101.333 18.833 196 56.5 284s90.667 164.833 159 230.5s152.5 119.5 252.5 161.5s210.667 68.333 332 79v125zM919.999 2168c-54.667 -20 -95 -50.167 -121 -90.5s-39 -92.833 -39 -157.5
c0 -118.667 53.333 -217 160 -295v543zM1240 855v-532c106.667 43.333 160 122.333 160 237c0 118.667 -53.333 217 -160 295z" />
    <glyph glyph-name="percent" unicode="%" horiz-adv-x="3214" 
d="M2440 1320c74.667 0 144.5 -7.16699 209.5 -21.5s126.667 -38.166 185 -71.499s108.333 -75.5 150 -126.5s74.667 -115.667 99 -194s36.5 -167.166 36.5 -266.499s-12.167 -188.166 -36.5 -266.499s-57.333 -143 -99 -194s-91.667 -93.167 -150 -126.5
s-120 -57.166 -185 -71.499s-134.833 -21.5 -209.5 -21.5s-144.5 7.16699 -209.5 21.5s-126.667 38.166 -185 71.499s-108.333 75.5 -150 126.5s-74.667 115.667 -99 194s-36.5 167.166 -36.5 266.499s12.167 188.166 36.5 266.499s57.333 143 99 194
s91.667 93.167 150 126.5s120 57.166 185 71.499s134.833 21.5 209.5 21.5zM2440 1000c-26 0 -48.5 -2.83301 -67.5 -8.5s-37.167 -16.334 -54.5 -32.001s-31.5 -36.667 -42.5 -63s-19.667 -61 -26 -104s-9.5 -93.833 -9.5 -152.5s3.16699 -109.5 9.5 -152.5
s15 -77.667 26 -104s25.167 -47.333 42.5 -63s35.5 -26.334 54.5 -32.001s41.5 -8.5 67.5 -8.5s48.5 2.83301 67.5 8.5s37.167 16.334 54.5 32.001s31.5 36.667 42.5 63s19.667 61 26 104s9.5 93.833 9.5 152.5s-3.16699 109.5 -9.5 152.5s-15 77.667 -26 104
s-25.167 47.333 -42.5 63s-35.5 26.334 -54.5 32.001s-41.5 8.5 -67.5 8.5zM760 2520c74.667 0 144.5 -7.16699 209.5 -21.5s126.667 -38.166 185 -71.5c58.333 -33.333 108.333 -75.5 150 -126.5s74.667 -115.667 99 -194s36.5 -167.166 36.5 -266.499
s-12.167 -188.166 -36.5 -266.499s-57.333 -143 -99 -194s-91.667 -93.167 -150 -126.5s-120 -57.166 -185 -71.499s-134.833 -21.5 -209.5 -21.5s-144.5 7.16699 -209.5 21.5s-126.667 38.166 -185 71.499s-108.333 75.5 -150 126.5s-74.667 115.667 -99 194
s-36.5 167.166 -36.5 266.499s12.167 188.166 36.5 266.499s57.333 143 99 194s91.667 93.167 150 126.5s120 57.166 185 71.5c65 14.333 134.833 21.5 209.5 21.5zM760 2200c-26 0 -48.5 -2.83301 -67.5 -8.5s-37.167 -16.334 -54.5 -32
c-17.333 -15.667 -31.5 -36.667 -42.5 -63s-19.667 -61 -26 -104s-9.5 -93.833 -9.5 -152.5s3.16699 -109.5 9.5 -152.5s15 -77.667 26 -104s25.167 -47.333 42.5 -63s35.5 -26.334 54.5 -32.001s41.5 -8.5 67.5 -8.5s48.5 2.83301 67.5 8.5s37.167 16.334 54.5 32.001
s31.5 36.667 42.5 63s19.667 61 26 104s9.5 93.833 9.5 152.5s-3.16699 109.5 -9.5 152.5s-15 77.667 -26 104s-25.167 47.333 -42.5 63s-35.5 26.334 -54.5 32c-19 5.66699 -41.5 8.5 -67.5 8.5zM2139 2480h369l-1431 -2480h-370z" />
    <glyph glyph-name="ampersand" unicode="&#x26;" horiz-adv-x="2776" 
d="M2040 1840c0 88.667 31.165 164.165 93.498 226.498s137.833 93.5 226.5 93.5c64 0 122.167 -17.167 174.5 -51.5s91.166 -79.5 116.5 -135.5c18 -38 30 -78.167 36 -120.5s9 -90.5 9 -144.5c0 -82 -22.667 -160.167 -68 -234.5s-109.166 -136.166 -191.5 -185.499
c-82.333 -49.333 -174.5 -78.666 -276.5 -87.999c52.667 -69.333 79 -165.333 79 -288c0 -76.667 -12.833 -150.334 -38.5 -221.001s-64.5 -129.667 -116.5 -177c43.333 -22.667 82 -34 116 -34c20.667 0 36.5 6.16699 47.5 18.5s19.167 35.666 24.5 69.999
s8 84.833 8 151.5h320v-160c0 -134 -4.83301 -226.167 -14.5 -276.5s-31.5 -104.833 -65.5 -163.5c-61.333 -106.667 -194.666 -160 -400 -160c-146 0 -301 56.667 -465 170c-81.333 -53.333 -174.666 -95 -279.999 -125s-217 -45 -335 -45
c-136.667 0 -259.334 13.833 -368.001 41.5s-199.667 66.167 -273 115.5s-134.166 109.5 -182.499 180.5s-83.166 147.833 -104.499 230.5s-32 173.334 -32 272.001c0 86.667 13.667 169.5 41 248.5s63.666 147.167 108.999 204.5s96.5 105.666 153.5 144.999
s115.833 66.666 176.5 81.999l8 2c-58.667 158.667 -88 304.667 -88 438c0 69.333 4.5 131.333 13.5 185.999c9 54.667 27 108.834 54 162.5c27 53.667 62.667 98.167 107 133.5s103.833 63.833 178.5 85.5s162.334 32.5 263.001 32.5
c239.333 0 409.833 -43.167 511.5 -129.5s152.5 -229.833 152.5 -430.5c0 -58 -11 -113.167 -33 -165.5s-54.5 -101.666 -97.5 -147.999s-88.5 -88.166 -136.5 -125.499s-105.667 -77.666 -173 -120.999c-16 -10 -39 -23.333 -69 -40c62 -88 138.333 -181.333 229 -280
c150.667 -163.333 256 -274.666 316 -333.999c42.667 57.333 64 122 64 194c0 60 -17.833 113.667 -53.5 161s-91.167 80.333 -166.5 99v320h440c52.667 0 102 9.33301 148 28c-56.667 26 -102.167 65.167 -136.5 117.5s-51.5 110.5 -51.5 174.5zM1280 2000
c0 76.667 -9.49902 129.167 -28.499 157.5s-49.5 42.5 -91.5 42.5c-40.667 0 -70.834 -22 -90.501 -66s-29.5 -115.333 -29.5 -214c0 -71.333 12 -145 36 -221c15.333 8 30 15 44 21c59.333 27.333 100.833 64.333 124.5 111s35.5 103 35.5 169zM759.999 1093
c-26.667 -46.667 -40.001 -117.668 -40.001 -213.001c0 -70 11.667 -138.5 35 -205.5s55.5 -126.833 96.5 -179.5s91.833 -95 152.5 -127s126 -48 196 -48c58.667 0 120.334 11.667 185.001 35c-90.667 86.667 -205.667 208.334 -345 365.001
c-106.667 120 -200 244.333 -280 373z" />
    <glyph glyph-name="quotesingle" unicode="'" horiz-adv-x="720" 
d="M360 2560c77.333 0 143.333 -27.333 198 -82s82 -120.667 82 -198c0 -240 -53.333 -573.333 -160 -1000h-240c-106.667 426.667 -160 760 -160 1000c0 77.333 27.333 143.333 82 198s120.667 82 198 82z" />
    <glyph glyph-name="parenleft" unicode="(" horiz-adv-x="1320" 
d="M1240 -480v-319.998c-106 0 -207.167 18.167 -303.5 54.5s-182.833 86.666 -259.5 150.999s-147.5 140.166 -212.5 227.499s-120.833 182.166 -167.5 284.499s-86.5 209.833 -119.5 322.5s-57.5 226.334 -73.5 341.001s-24 227.667 -24 339s8 224.333 24 339
s40.5 228.334 73.5 341.001s72.833 220.167 119.5 322.5s102.5 197.166 167.5 284.499s135.833 163.166 212.5 227.5c76.667 64.333 163.167 114.666 259.5 151c96.333 36.333 197.5 54.5 303.5 54.5v-320c-90.667 0 -173.167 -66 -247.5 -198
s-131.666 -304.667 -171.999 -518s-60.5 -441.333 -60.5 -684s20.167 -470.667 60.5 -684s97.666 -386 171.999 -518s156.833 -198 247.5 -198z" />
    <glyph glyph-name="parenright" unicode=")" horiz-adv-x="1320" 
d="M80 2320v319.998c106 0 207.167 -18.167 303.5 -54.5s182.833 -86.666 259.5 -151c76.667 -64.333 147.5 -140.166 212.5 -227.5c65 -87.333 120.833 -182.166 167.5 -284.499s86.5 -209.833 119.5 -322.5s57.5 -226.334 73.5 -341.001s24 -227.667 24 -339
s-8 -224.333 -24 -339s-40.5 -228.334 -73.5 -341.001s-72.833 -220.167 -119.5 -322.5s-102.5 -197.166 -167.5 -284.499s-135.833 -163.166 -212.5 -227.499s-163.167 -114.666 -259.5 -150.999s-197.5 -54.5 -303.5 -54.5v320c90.667 0 173.167 66 247.5 198
s131.666 304.667 171.999 518s60.5 441.333 60.5 684s-20.167 470.667 -60.5 684s-97.666 386 -171.999 518s-156.833 198 -247.5 198z" />
    <glyph glyph-name="asterisk" unicode="*" horiz-adv-x="2531" 
d="M80 1427c0 93.333 32.3408 170 97.0078 230s139 90 223 90c34 0 67 -5.33301 99 -16c52 -17.333 103.667 -41.5 155 -72.5s98.5 -64.333 141.5 -100l125.5 -107c40.667 -35.667 83.667 -70.834 129 -105.501s88.666 -62 129.999 -82
c-6.66699 45.333 -19.334 95 -38.001 149s-38.834 105.833 -60.501 155.5l-63.5 152.5c-20.667 52 -37.834 107.167 -51.501 165.5s-20.5 114.833 -20.5 169.5c0 88.667 31.167 164.167 93.5 226.5s137.833 93.5 226.5 93.5s164.167 -31.167 226.5 -93.5
s93.5 -137.833 93.5 -226.5c0 -54.667 -6.83301 -111.167 -20.5 -169.5s-30.834 -113.5 -51.501 -165.5l-63.5 -152.5c-21.667 -49.667 -41.834 -101.5 -60.501 -155.5s-31.334 -103.667 -38.001 -149c41.333 20 84.666 47.333 129.999 82s88.333 69.834 129 105.501
l125.5 107c43 35.667 90.167 69 141.5 100s103 55.167 155 72.5c32 10.667 65 16 99 16c84 0 158.333 -30 223 -90s97 -136.667 97 -230c0 -68 -20.333 -130.167 -61 -186.5s-94.334 -95.5 -161 -117.5c-76 -24.667 -163 -37 -261 -37c-50 0 -123 4.16699 -219 12.5
s-166.333 12.5 -211 12.5c-53.333 0 -98.333 -3.33301 -135 -10c32 -32.667 71.5 -65.5 118.5 -98.5s93.833 -63.167 140.5 -90.5l141.5 -86c47.667 -30 94.167 -64.5 139.5 -103.5s84 -80.833 116 -125.5c40.667 -56.667 61 -119.334 61 -188.001
c0 -84 -31.167 -158.333 -93.5 -223s-137.833 -97 -226.5 -97c-50 0 -97.833 11.333 -143.5 34s-84.167 55.334 -115.5 98.001c-39.333 54 -72.5 117.667 -99.5 191s-46.667 140.833 -59 202.5s-28.5 129.167 -48.5 202.5s-43 134.333 -69 183
c-26 -48.667 -49 -109.667 -69 -183s-36.167 -140.833 -48.5 -202.5s-32 -129.167 -59 -202.5s-60.167 -137 -99.5 -191c-31.333 -42.667 -69.833 -75.334 -115.5 -98.001s-93.5 -34 -143.5 -34c-88.667 0 -164.167 32.333 -226.5 97s-93.5 139 -93.5 223
c0 68.667 20.333 131.334 61 188.001c32 44.667 70.667 86.5 116 125.5s91.833 73.5 139.5 103.5l141.5 86c46.667 27.333 93.5 57.5 140.5 90.5s86.5 65.833 118.5 98.5c-36.667 6.66699 -81.667 10 -135 10c-44.667 0 -115 -4.16699 -211 -12.5s-169 -12.5 -219 -12.5
c-98.667 0 -186 12.333 -262 37c-66.667 22 -120.167 61.167 -160.5 117.5s-60.5 118.5 -60.5 186.5z" />
    <glyph glyph-name="plus" unicode="+" horiz-adv-x="1680" 
d="M680 2000h320v-600h600v-320h-600v-600h-320v600h-600v320h600v600z" />
    <glyph glyph-name="comma" unicode="," horiz-adv-x="800" 
d="M400 620c72.667 0 137.501 -22 194.501 -66s95.167 -101 114.5 -171c13.333 -48.667 20 -100 20 -154c0 -82 -16 -165.167 -48 -249.5s-76 -163.833 -132 -238.5s-120.833 -144.5 -194.5 -209.5s-152.834 -122.167 -237.501 -171.5l-145 145
c150.667 120.667 253.5 214 308.5 280s83.5 131.667 85.5 197c-81.333 9.33301 -149.333 44.333 -204 105s-82 131.667 -82 213c0 88.667 31.167 164.167 93.5 226.5s137.833 93.5 226.5 93.5z" />
    <glyph glyph-name="hyphen" unicode="-" horiz-adv-x="1240" 
d="M80 800v320h1080v-320h-1080z" />
    <glyph glyph-name="period" unicode="." horiz-adv-x="800" 
d="M80 300c0 88.667 31.167 164.167 93.5 226.5s137.833 93.5 226.5 93.5s164.167 -31.167 226.5 -93.5s93.5 -137.833 93.5 -226.5s-31.167 -164.167 -93.5 -226.5s-137.833 -93.5 -226.5 -93.5s-164.167 31.167 -226.5 93.5s-93.5 137.833 -93.5 226.5z" />
    <glyph glyph-name="slash" unicode="/" horiz-adv-x="1961" 
d="M1512 2480h369l-1431 -2480h-370z" />
    <glyph glyph-name="zero" unicode="0" horiz-adv-x="2240" 
d="M1120 2520c95.333 0 187.5 -13.833 276.5 -41.5s171.833 -67.167 248.5 -118.5s146.834 -115 210.501 -191s117.834 -160.833 162.501 -254.5s79.5 -198.334 104.5 -314.001s37.5 -236.834 37.5 -363.501s-12.5 -247.834 -37.5 -363.501
s-59.833 -220.334 -104.5 -314.001s-98.834 -178.5 -162.501 -254.5s-133.834 -139.667 -210.501 -191s-159.5 -90.833 -248.5 -118.5s-181.167 -41.5 -276.5 -41.5s-187.5 13.833 -276.5 41.5s-171.833 67.167 -248.5 118.5s-146.834 115 -210.501 191
s-117.834 160.833 -162.501 254.5s-79.5 198.334 -104.5 314.001s-37.5 236.834 -37.5 363.501s12.5 247.834 37.5 363.501s59.833 220.334 104.5 314.001s98.834 178.5 162.501 254.5s133.834 139.667 210.501 191s159.5 90.833 248.5 118.5s181.167 41.5 276.5 41.5z
M1120 2200c-46 0 -87.167 -10.0039 -123.5 -30.0039s-69.5 -53.167 -99.5 -99.5s-55 -106.166 -75 -179.499s-35.333 -164.666 -46 -273.999s-16 -236 -16 -380s5.33301 -270.667 16 -380s26 -200.666 46 -273.999s45 -133.166 75 -179.499s63.167 -79.5 99.5 -99.5
s77.5 -30 123.5 -30c58 0 108.5 16.833 151.5 50.5s80.333 87.667 112 162s55.667 174 72 299s24.5 275.5 24.5 451.5s-8.16699 326.5 -24.5 451.5s-40.333 224.667 -72 299s-69 128.333 -112 162s-93.5 50.5 -151.5 50.5z" />
    <glyph glyph-name="one" unicode="1" horiz-adv-x="2240" 
d="M960 2480h480.001v-2160h400v-320h-1440v320h400v1520h-400v320h80c43.333 0 80.666 2.16699 111.999 6.5s63.5 13 96.5 26s63.5 31.333 91.5 55s57 54.5 87 92.5s61 84.667 93 140z" />
    <glyph glyph-name="two" unicode="2" horiz-adv-x="2240" 
d="M200 0c0 55.333 5.49902 110.005 16.499 164.005s25.833 104.667 44.5 152s42.5 95.166 71.5 143.499s58.667 92.666 89 132.999s65.833 82 106.5 125s79.167 81.5 115.5 115.5s77.666 70.5 123.999 109.5l123.5 101.5l123 96l26 20c108 84 188.333 178.333 241 283
s79 210.334 79 317.001c0 140.667 -37.5 249.167 -112.5 325.5s-184.167 114.5 -327.5 114.5c-62.667 0 -126.834 -14.833 -192.501 -44.5s-120.5 -69.167 -164.5 -118.5c78.667 -10 144.5 -45.167 197.5 -105.5s79.5 -130.833 79.5 -211.5
c0 -88.667 -31.167 -164.167 -93.5 -226.5s-137.833 -93.5 -226.5 -93.5c-62 0 -118.667 16.167 -170 48.5s-90.333 75.5 -117 129.5c-40 75.333 -60 156 -60 242c0 70 13.333 139 40 207s66.334 131.5 119.001 190.5s115 111.167 187 156.5s156.333 81 253 107
s199.334 39 308.001 39c135.333 0 257.833 -13.5 367.5 -40.5s200.834 -63.333 273.501 -109s133.334 -99.667 182.001 -162s83.667 -127.333 105 -195s32 -138.834 32 -213.501c0 -72.667 -7.83301 -141.167 -23.5 -205.5s-36.334 -120.833 -62.001 -169.5
s-57.834 -95.667 -96.501 -141s-77.834 -84.333 -117.501 -117s-84.5 -66.334 -134.5 -101.001s-96.333 -64.834 -139 -90.501l-139.5 -87c-50.333 -32.333 -92.833 -61.833 -127.5 -88.5c-35.333 -26.667 -77.166 -56.667 -125.499 -90l-114 -79.5
c-27.667 -19.667 -58.667 -45.834 -93 -78.501s-65.5 -68.334 -93.5 -107.001c76 23.333 151.333 35 226 35h520c28 0 53 10.833 75 32.5s38.833 49.5 50.5 83.5s20.334 68.333 26.001 103s8.5 68.334 8.5 101.001v160h360v-960h-1840z" />
    <glyph glyph-name="three" unicode="3" horiz-adv-x="2240" 
d="M583 443c44 -49.333 98.8379 -88.833 164.505 -118.5s129.834 -44.5 192.501 -44.5c143.333 0 252.5 38.167 327.5 114.5s112.5 184.833 112.5 325.5c0 240 -173.333 360 -520 360v320c78 0 145.833 6.16699 203.5 18.5s103.834 28.833 138.501 49.5
s62.667 46.834 84 78.501s35.666 64.334 42.999 98.001s11 72.167 11 115.5c0 144.667 -31.667 254.167 -95 328.5s-165 111.5 -305 111.5c-62.667 0 -126.834 -14.833 -192.501 -44.5s-120.5 -69.167 -164.5 -118.5c78.667 -10 144.5 -45.167 197.5 -105.5
s79.5 -130.833 79.5 -211.5c0 -88.667 -31.167 -164.167 -93.5 -226.5s-137.833 -93.5 -226.5 -93.5c-62 0 -118.667 16.167 -170 48.5s-90.333 75.5 -117 129.5c-40 75.333 -60 156 -60 242c0 70 13.333 139 40 207s66.334 131.5 119.001 190.5s115 111.167 187 156.5
s156.333 81 253 107s199.334 39 308.001 39c97.333 0 187.666 -7 270.999 -21s156 -33.5 218 -58.5s117.667 -55.167 167 -90.5s90.333 -73.666 123 -115c32.667 -41.333 59.667 -86.333 81 -135s36.666 -97.5 45.999 -146.5s14 -100.167 14 -153.5v-2v-1v-2v-1v-2v-1v-2v-2
v-1v-2v-1v-2v-1l-1 -2v-1v-2v-1v-2v-1v-2v-1v-2v-1l-1 -2v-1v-2v-1v-2v-1v-2l-1 -1v-1v-2v-1v-2v-1l-1 -2v-1v-1v-2v-1l-1 -2v-1v-1v-2l-1 -1v-2v-1v-1l-1 -2v-1v-2v-1l-1 -1v-2v-1v-1l-1 -2v-1v-1l-1 -2v-1v-1v-2l-1 -1v-1v-2l-1 -1v-1v-2l-1 -1v-1v-1l-1 -2v-1v-1l-1 -2
v-1v-1l-1 -1v-2v-1l-1 -1v-1l-1 -2v-1v-1l-1 -1v-2l-1 -1v-1v-1l-1 -2v-1l-1 -1v-1v-2l-1 -1v-1l-1 -1v-1l-1 -2v-1v-1l-1 -1v-1l-1 -2v-1l-1 -1v-1l-1 -1v-2v-1l-1 -1v-1c-50 -122.667 -154.333 -227 -313 -313c-64.667 -34.667 -133.334 -63.334 -206.001 -86.001
c88.667 -14 168.5 -36.167 239.5 -66.5s132.833 -68.5 185.5 -114.5s93.167 -101.5 121.5 -166.5s42.5 -137.5 42.5 -217.5c0 -74.667 -10.667 -145.834 -32 -213.501s-56.333 -132.667 -105 -195s-109.334 -116.333 -182.001 -162s-163.834 -82 -273.501 -109
s-232.167 -40.5 -367.5 -40.5c-108.667 0 -211.334 13 -308.001 39s-181 61.667 -253 107s-134.333 97.5 -187 156.5s-92.334 122.5 -119.001 190.5s-40 137 -40 207c0 86 20 166.667 60 242c26.667 54 65.667 97.167 117 129.5s108 48.5 170 48.5
c88.667 0 164.167 -31.167 226.5 -93.5s93.5 -137.833 93.5 -226.5c0 -80.667 -26.5 -151.167 -79.5 -211.5s-118.833 -95.5 -197.5 -105.5z" />
    <glyph glyph-name="four" unicode="4" horiz-adv-x="2240" 
d="M780 2480h640.003c0 -125.333 -15.833 -246.166 -47.5 -362.499s-74.167 -223.5 -127.5 -321.5s-122.166 -196.667 -206.499 -296s-171.833 -190.5 -262.5 -273.5s-196 -171.833 -316 -266.5h680v383c170 168 285.667 333.667 347 497h293v-880h320v-320h-320v-320h320
v-320h-1360v320h400v320h-1000v320c77.333 77.333 147.666 159.666 210.999 246.999s116.666 175.333 159.999 264s81.166 176.167 113.499 262.5s58.666 174.833 78.999 265.5s36.333 173.167 48 247.5s21.167 152.166 28.5 233.5z" />
    <glyph glyph-name="five" unicode="5" horiz-adv-x="2240" 
d="M671 1970l-69 -508c111.333 34.667 232.5 61.167 363.5 79.5s243.5 27.5 337.5 27.5c127.333 0 239.333 -19.5 336 -58.5s175 -94.5 235 -166.5s105 -156.833 135 -254.5s45 -207.5 45 -329.5c0 -74.667 -10.667 -148.5 -32 -221.5s-56.5 -144.833 -105.5 -215.5
s-109.5 -132.5 -181.5 -185.5s-163.167 -95.833 -273.5 -128.5s-232.833 -49 -367.5 -49c-108.667 0 -211.334 13 -308.001 39s-181 61.667 -253 107s-134.333 97.5 -187 156.5s-92.334 122.5 -119.001 190.5s-40 137 -40 207c0 86 20 166.667 60 242
c26.667 54 65.667 97.167 117 129.5s108 48.5 170 48.5c88.667 0 164.167 -31.167 226.5 -93.5s93.5 -137.833 93.5 -226.5c0 -80.667 -26.5 -151.167 -79.5 -211.5s-118.833 -95.5 -197.5 -105.5c44 -49.333 98.833 -88.833 164.5 -118.5s129.834 -44.5 192.501 -44.5
c143.333 0 252.5 38.167 327.5 114.5s112.5 184.833 112.5 325.5c0 180.667 -37.667 309.667 -113 387s-204.666 116 -387.999 116c-82.667 0 -182.334 -7.66699 -299.001 -23l-320 80l14 8l164 1192h302c13.333 -3.33301 47.833 -12.5 103.5 -27.5s94.667 -24.667 117 -29
s61.333 -9.33301 117 -15s116.5 -8.5 182.5 -8.5c281.333 0 521.333 26.667 720 80l40 -120c-28.667 -86.667 -69.667 -162 -123 -226s-114.5 -114 -183.5 -150s-140.833 -62.333 -215.5 -79s-154 -25 -238 -25c-259.333 0 -453.666 30 -582.999 90z" />
    <glyph glyph-name="six" unicode="6" horiz-adv-x="2240" 
d="M2000 1920c0 -88.667 -31.1729 -164.16 -93.5059 -226.493s-137.833 -93.5 -226.5 -93.5s-164.167 31.167 -226.5 93.5s-93.5 137.833 -93.5 226.5c0 45.333 8.83301 88.166 26.5 128.499s42.5 75.5 74.5 105.5c-28.667 30.667 -102.334 46 -221.001 46
c-54 0 -103.5 -8.66699 -148.5 -26s-87 -46.166 -126 -86.5c-39 -40.333 -72.5 -92 -100.5 -155s-51 -142 -69 -237s-29.333 -203.5 -34 -325.5c53.333 58.667 121 105 203 139s173.667 51 275 51c124.667 0 241.334 -20 350.001 -60s201.834 -95 279.501 -165
s138.834 -154.667 183.501 -254s67 -206.333 67 -321c0 -52.667 -6.16699 -105.334 -18.5 -158.001s-31.666 -105.334 -57.999 -158.001s-58.5 -102.667 -96.5 -150s-84.667 -91.5 -140 -132.5s-116.166 -76.333 -182.499 -106s-142.666 -53 -228.999 -70
s-178.166 -25.5 -275.499 -25.5c-144.667 0 -274.5 19.333 -389.5 58s-213 94.167 -294 166.5s-148.167 161.166 -201.5 266.499s-92.5 223.166 -117.5 353.499s-37.5 274.5 -37.5 432.5c0 151.333 17.5 294.166 52.5 428.499s84.5 253.166 148.5 356.499
s138.833 192.5 224.5 267.5s181 132.167 286 171.5s214.5 59 328.5 59c291.333 0 510.833 -53.5 658.5 -160.5s221.5 -253.5 221.5 -439.5zM765.994 990.007c7.33301 -131.333 20.502 -243.334 39.502 -336.001s44 -166 75 -220s66 -93.167 105 -117.5
s83.833 -36.5 134.5 -36.5c40 0 76 4.83301 108 14.5s59.167 22.667 81.5 39s41.5 37.5 57.5 63.5s28.667 52.667 38 80s16.666 60 21.999 98s8.83301 73.833 10.5 107.5s2.5 72.834 2.5 117.501c0 82.667 -9.16699 153.5 -27.5 212.5s-44.5 104.667 -78.5 137
s-71.667 55.5 -113 69.5s-88.333 21 -141 21c-59.333 0 -117.333 -23 -174 -69s-103.334 -106.333 -140.001 -181z" />
    <glyph glyph-name="seven" unicode="7" horiz-adv-x="2240" 
d="M220 2480h1880v-320c-207.333 -235.333 -367.666 -443.5 -480.999 -624.5s-193 -351.5 -239 -511.5c-53.333 -187.333 -80 -528.666 -80 -1024h-640c0 197.333 19 381.833 57 553.5s98.5 340 181.5 505s185.167 325.667 306.5 482s270.333 322.833 447 499.5
c-71.333 -14.667 -130.166 -25 -176.499 -31s-104.833 -9 -175.5 -9h-560c-28 0 -53 -10.833 -75 -32.5s-38.833 -49.5 -50.5 -83.5s-20.334 -68.333 -26.001 -103s-8.5 -68.334 -8.5 -101.001v-160h-360v960z" />
    <glyph glyph-name="eight" unicode="8" horiz-adv-x="2240" 
d="M1060 280c140.667 0 242.501 21.8359 305.501 65.5029s94.5 115.167 94.5 214.5c0 30 -3.5 58.5 -10.5 85.5s-15.5 51.333 -25.5 73s-25.167 43.167 -45.5 64.5s-38.833 39.666 -55.5 54.999s-40.334 31.666 -71.001 48.999l-76.5 42.5
c-20.333 11 -49.833 24.333 -88.5 40l-90.5 36l-97.5 36.5c-12 4.66699 -21 8 -27 10c-80.667 -83.333 -136.167 -156.333 -166.5 -219s-45.5 -140.334 -45.5 -233.001c0 -46.667 7.5 -88.5 22.5 -125.5s35.167 -67.333 60.5 -91s55.333 -43.5 90 -59.5
s70.667 -27.333 108 -34s77 -10 119 -10zM1365 1492c60.667 55.333 105 110.667 133 166s42 116 42 182c0 117.333 -35.833 206.666 -107.5 267.999s-169.167 92 -292.5 92c-213.333 0 -320 -93.333 -320 -280c0 -28.667 5.16699 -56.167 15.5 -82.5
s22.5 -49.666 36.5 -69.999s35.5 -41.333 64.5 -63s54.667 -39.5 77 -53.5s55 -31 98 -51s77.167 -35.333 102.5 -46l115 -47zM1650 1364c52.667 -27.333 100.005 -55.501 142.005 -84.501s82.667 -63 122 -102s72.166 -80.333 98.499 -124s47.5 -94 63.5 -151
s24 -117.833 24 -182.5c0 -122.667 -18.5 -230 -55.5 -322s-95 -171.167 -174 -237.5s-182.833 -116.333 -311.5 -150s-281.667 -50.5 -459 -50.5c-110 0 -210.167 5.83301 -300.5 17.5s-177.333 32.334 -261 62.001s-154 68 -211 115s-102.5 108.333 -136.5 184
s-51 162.834 -51 261.501c0 50 13.5 102.5 40.5 157.5s62.833 107 107.5 156s95.667 94.5 153 136.5s116.333 77 177 105c-51.333 24.667 -97.333 49.834 -138 75.501s-80.334 56.5 -119.001 92.5s-70.834 74.5 -96.501 115.5s-46.167 88.833 -61.5 143.5s-23 114 -23 178
c0 109.333 21.833 210.833 65.5 304.5s105 174 184 241s176.167 119.5 291.5 157.5s241.666 57 378.999 57c107.333 0 206 -7.16699 296 -21.5s174 -38.166 252 -71.5c78 -33.333 144 -75.833 198 -127.5s96.5 -116.334 127.5 -194.001s46.5 -166.167 46.5 -265.5
c0 -47.333 -10.833 -95.5 -32.5 -144.5s-50.334 -93.833 -86.001 -134.5s-75 -77.834 -118 -111.501s-87.5 -62.167 -133.5 -85.5z" />
    <glyph glyph-name="nine" unicode="9" horiz-adv-x="2240" 
d="M240 554c0 88.667 31.1729 164.161 93.5059 226.494s137.833 93.5 226.5 93.5s164.167 -31.167 226.5 -93.5s93.5 -137.833 93.5 -226.5c0 -45.333 -8.83301 -88.166 -26.5 -128.499s-42.5 -75.5 -74.5 -105.5c28.667 -30.667 102.334 -46 221.001 -46
c54 0 103.5 8.66699 148.5 26s87 46.166 126 86.499s72.5 92 100.5 155s51 142 69 237s29.333 203.5 34 325.5c-53.333 -58.667 -121 -105 -203 -139s-173.667 -51 -275 -51c-124.667 0 -241.334 20 -350.001 60s-201.834 95 -279.501 165s-138.834 154.667 -183.501 254
s-67 206.333 -67 321c0 52.667 6.16699 105.334 18.5 158.001s31.666 105.334 57.999 158.001s58.5 102.667 96.5 150s84.667 91.5 140 132.5s116.166 76.333 182.499 106s142.666 53 228.999 70s178.166 25.5 275.499 25.5c144.667 0 274.5 -19.333 389.5 -58
s213 -94.167 294 -166.5s148.167 -161.166 201.5 -266.499s92.5 -223.166 117.5 -353.499s37.5 -274.5 37.5 -432.5c0 -151.333 -17.5 -294.166 -52.5 -428.499s-84.5 -253.166 -148.5 -356.499s-138.833 -192.5 -224.5 -267.5s-181 -132.167 -286 -171.5
s-214.5 -59 -328.5 -59c-291.333 0 -510.833 53.5 -658.5 160.5s-221.5 253.5 -221.5 439.5zM1474.01 1483.99c-7.33301 131.333 -20.502 243.334 -39.502 336.001s-44 166 -75 220s-66 93.167 -105 117.5s-83.833 36.5 -134.5 36.5c-40 0 -76 -4.83301 -108 -14.5
s-59.167 -22.667 -81.5 -39s-41.5 -37.5 -57.5 -63.5s-28.667 -52.667 -38 -80s-16.666 -60 -21.999 -98s-8.83301 -73.833 -10.5 -107.5s-2.5 -72.834 -2.5 -117.501c0 -82.667 9.16699 -153.5 27.5 -212.5s44.5 -104.667 78.5 -137s71.667 -55.5 113 -69.5
s88.333 -21 141 -21c59.333 0 117.333 23 174 69s103.334 106.333 140.001 181z" />
    <glyph glyph-name="colon" unicode=":" horiz-adv-x="800" 
d="M80 1530c0 88.667 31.167 164.167 93.5 226.5s137.833 93.5 226.5 93.5s164.167 -31.167 226.5 -93.5s93.5 -137.833 93.5 -226.5s-31.167 -164.167 -93.5 -226.5s-137.833 -93.5 -226.5 -93.5s-164.167 31.167 -226.5 93.5s-93.5 137.833 -93.5 226.5zM80 300
c0 88.667 31.167 164.167 93.5 226.5s137.833 93.5 226.5 93.5s164.167 -31.167 226.5 -93.5s93.5 -137.833 93.5 -226.5s-31.167 -164.167 -93.5 -226.5s-137.833 -93.5 -226.5 -93.5s-164.167 31.167 -226.5 93.5s-93.5 137.833 -93.5 226.5z" />
    <glyph glyph-name="semicolon" unicode=";" horiz-adv-x="800" 
d="M80 1530c0 88.667 31.167 164.167 93.5 226.5s137.833 93.5 226.5 93.5s164.167 -31.167 226.5 -93.5s93.5 -137.833 93.5 -226.5s-31.167 -164.167 -93.5 -226.5s-137.833 -93.5 -226.5 -93.5s-164.167 31.167 -226.5 93.5s-93.5 137.833 -93.5 226.5zM400 620
c72.667 0 137.501 -22 194.501 -66s95.167 -101 114.5 -171c13.333 -48.667 20 -100 20 -154c0 -82 -16 -165.167 -48 -249.5s-76 -163.833 -132 -238.5s-120.833 -144.5 -194.5 -209.5s-152.834 -122.167 -237.501 -171.5l-145 145c150.667 120.667 253.5 214 308.5 280
s83.5 131.667 85.5 197c-81.333 9.33301 -149.333 44.333 -204 105s-82 131.667 -82 213c0 88.667 31.167 164.167 93.5 226.5s137.833 93.5 226.5 93.5z" />
    <glyph glyph-name="less" unicode="&#x3c;" horiz-adv-x="1680" 
d="M1600 493l-1520 560v94v186v94l1520 560v-360l-760 -288c-113.333 -42.667 -233.333 -75.667 -360 -99c126.667 -23.333 246.667 -56.333 360 -99l760 -288v-360z" />
    <glyph glyph-name="equal" unicode="=" horiz-adv-x="1680" 
d="M80 1760h1520v-320h-1520v320zM80 1040h1520v-320h-1520v320z" />
    <glyph glyph-name="greater" unicode="&#x3e;" horiz-adv-x="1680" 
d="M80 1987l1520 -560v-94v-186v-94l-1520 -560v360l760 288c113.333 42.667 233.333 75.667 360 99c-126.667 23.333 -246.667 56.333 -360 99l-760 288v360z" />
    <glyph glyph-name="question" unicode="?" horiz-adv-x="1920" 
d="M640 300c0 88.667 31.167 164.167 93.5 226.5s137.833 93.5 226.5 93.5s164.167 -31.167 226.5 -93.5s93.5 -137.833 93.5 -226.5s-31.167 -164.167 -93.5 -226.5s-137.833 -93.5 -226.5 -93.5s-164.167 31.167 -226.5 93.5s-93.5 137.833 -93.5 226.5zM520 2137
c59.333 -24 107.499 -63 144.499 -117s55.5 -114 55.5 -180c0 -88.667 -31.167 -164.167 -93.5 -226.5s-137.833 -93.5 -226.5 -93.5s-164.167 31.167 -226.5 93.5s-93.5 137.833 -93.5 226.5c0 102 18 196 54 282s89.333 161.833 160 227.5s162.834 117.167 276.501 154.5
s243.5 56 389.5 56c298.667 0 520 -59.667 664 -179s216 -299.666 216 -540.999c0 -68.667 -9.16699 -132.667 -27.5 -192s-42.833 -111 -73.5 -155s-66 -84.833 -106 -122.5s-82.167 -70.667 -126.5 -99s-88.666 -54.833 -132.999 -79.5l-126.5 -69.5
c-40 -21.667 -75.333 -42.667 -106 -63s-55.167 -42.333 -73.5 -66s-27.5 -48.167 -27.5 -73.5h-200c-36 60 -54 118.667 -54 176c0 45.333 11.167 91 33.5 137s50.333 87.667 84 125l109.5 118l109.5 116c33.667 36 61.667 75.833 84 119.5s33.5 86.5 33.5 128.5
c0 52 -8 101.167 -24 147.5s-39.5 88.666 -70.5 126.999s-72.833 68.833 -125.5 91.5s-112.667 34 -180 34c-134.667 0 -241.334 -34.333 -320.001 -103z" />
    <glyph glyph-name="at" unicode="@" horiz-adv-x="3560" 
d="M2120 -400c0 88.667 31.1689 164.164 93.502 226.497s137.833 93.5 226.5 93.5s164.167 -31.167 226.5 -93.5s93.5 -137.833 93.5 -226.5c0 -62 -16.167 -118.667 -48.5 -170s-75.5 -90.333 -129.5 -117c-47.333 -25.333 -100.166 -45.833 -158.5 -61.5
c-58.333 -15.667 -126.5 -27 -204.5 -34s-152.667 -11.667 -224 -14s-163 -3.5 -275 -3.5c-158.667 0 -309.167 16.833 -451.5 50.5s-274.333 83.167 -396 148.5s-231.334 148 -329.001 248s-180.834 214.167 -249.501 342.5s-121.5 274.666 -158.5 438.999
s-55.5 341.5 -55.5 531.5c0 173.333 20.667 336.833 62 490.5s100 291.834 176 414.501s168.167 232.834 276.5 330.501s229 179 362 244s277.5 114.667 433.5 149s319.333 51.5 490 51.5c246.667 0 469.167 -34 667.5 -102s366.333 -166.333 504 -295
s243.5 -288.167 317.5 -478.5s111 -405.166 111 -644.499c0 -134 -10.167 -256.667 -30.5 -368s-47.166 -204.833 -80.5 -280.5c-33.333 -75.667 -73.333 -142.5 -120 -200.5s-93.667 -103.667 -141 -137s-98.166 -60.5 -152.5 -81.5c-54.333 -21 -103 -35 -146 -42
s-86.167 -10.5 -129.5 -10.5c-78.667 0 -149.667 8.33301 -213 25s-116.666 40.167 -160 70.5c-43.333 30.333 -78.833 65.5 -106.5 105.5s-48.5 84.667 -62.5 134c-20 -41.333 -43.5 -79.666 -70.5 -114.999s-59.333 -69.166 -97 -101.499s-78.834 -60 -123.501 -83
s-96 -41.333 -154 -55s-119.667 -20.5 -185 -20.5c-156 0 -288.333 39.5 -397 118.5s-189.5 189.833 -242.5 332.5s-79.5 312.667 -79.5 510c0 144.667 20 277.167 60 397.5s95.333 221.333 166 303s154.834 145.167 252.501 190.5s203.834 68 318.501 68
c53.333 0 104.666 -4.66699 153.999 -14s92.333 -20.833 129 -34.5s72.5 -31.167 107.5 -52.5s64 -41 87 -59s46 -39.333 69 -64s40 -44 51 -58s23.167 -30.333 36.5 -49l195 291h265v-1320c0 -20 2.83301 -41 8.5 -63s14.167 -43.5 25.5 -64.5s27.666 -38.333 49 -52
c21.333 -13.667 45.666 -20.5 73 -20.5c26.667 0 53.834 8.16699 81.5 24.5c27.667 16.333 56.334 44.666 86 84.999c29.667 40.333 55.834 90 78.5 149c22.667 59 41.334 135.333 56 229c14.667 93.667 22 197.834 22 312.501c0 397.333 -107.167 696.666 -321.5 897.999
s-533.833 302 -958.5 302c-222.667 0 -425.167 -30.5 -607.5 -91.5s-338 -148.833 -467 -263.5s-228.833 -257.5 -299.5 -428.5s-106 -363.167 -106 -576.5c0 -197.333 20.667 -375.5 62 -534.5s99.833 -294.5 175.5 -406.5s168.167 -205.5 277.5 -280.5
s231 -130.167 365 -165.5s280.667 -53 440 -53c136 0 271.333 6.66699 406 20c-4 20 -6 40 -6 60zM2120 588.997v652c-35.333 82 -81.333 147.167 -138 195.5s-123.667 72.5 -201 72.5c-132 0 -230 -51.667 -294 -155s-96 -250 -96 -440c0 -178 37.167 -321.5 111.5 -430.5
s162.833 -163.5 265.5 -163.5c73.333 0 137.833 22.5 193.5 67.5s108.5 112.167 158.5 201.5z" />
    <glyph glyph-name="A" unicode="A" horiz-adv-x="2960" 
d="M1240 2480h440l957 -2160h243v-320h-1280v320h320l-142 320h-904l-133 -320h619v-320h-1280v320h261zM1007 960h629l-248 560c-32 73.333 -57.333 145.333 -76 216c-26 -92 -50 -164 -72 -216z" />
    <glyph glyph-name="B" unicode="B" horiz-adv-x="2560" 
d="M120 2480h1040c242 0 431.833 -7.66699 569.5 -23s245 -39.166 322 -71.499s147.833 -80.833 212.5 -145.5c58 -58 101.833 -130.833 131.5 -218.5s44.5 -181.5 44.5 -281.5c0 -98.667 -33.333 -196.334 -100 -293.001s-158.667 -182.667 -276 -258
c136.667 -44 240.167 -107.167 310.5 -189.5s105.5 -188.833 105.5 -319.5c0 -223.333 -74.667 -394.333 -224 -513c-32.667 -26 -65.667 -48 -99 -66s-74 -33.333 -122 -46s-95.667 -22.5 -143 -29.5s-111 -12.5 -191 -16.5s-158.5 -6.5 -235.5 -7.5
s-178.833 -1.5 -305.5 -1.5h-1040v320h320v1840h-320v320zM1080 2160v-879.997h160c320 0 480 146.667 480 440c0 63.333 -3.33301 117.166 -10 161.499s-18.5 85.166 -35.5 122.499s-40.5 66.833 -70.5 88.499c-30 21.667 -68.333 38.334 -115 50
c-46.667 11.667 -103 17.5 -169 17.5h-240zM1080 960.003v-640h240c160.667 0 274.167 23.667 340.5 71s99.5 130.333 99.5 249c0 81.333 -16.5 144.833 -49.5 190.5s-86.5 78.667 -160.5 99s-177.333 30.5 -310 30.5h-160z" />
    <glyph glyph-name="C" unicode="C" horiz-adv-x="2520" 
d="M1360 2520c350 0 629.999 -93.3311 839.999 -279.998c86 -76 147.5 -152.5 184.5 -229.5s55.5 -173.833 55.5 -290.5c0 -88.667 -31.167 -164.167 -93.5 -226.5s-137.833 -93.5 -226.5 -93.5s-164.167 31.167 -226.5 93.5s-93.5 137.833 -93.5 226.5
c0 45.333 9 88.166 27 128.499s43 75.5 75 105.5c-48 89.333 -112.833 152.666 -194.5 189.999s-184.167 56 -307.5 56c-80.667 0 -155.5 -16.333 -224.5 -49s-128.667 -78.334 -179 -137.001s-93.5 -128 -129.5 -208s-62.833 -167.833 -80.5 -263.5
s-26.5 -196.5 -26.5 -302.5c0 -104.667 10.667 -205.334 32 -302.001s52.333 -184.667 93 -264s88.334 -148.5 143.001 -207.5s117.5 -104.833 188.5 -137.5s145.5 -49 223.5 -49c113.333 0 218.833 30.333 316.5 91s178.667 145.834 243 255.501s104.5 234.167 120.5 373.5
l320 -80c-16 -78 -34.667 -150.5 -56 -217.5s-48 -133.667 -80 -200s-68.333 -126.166 -109 -179.499s-88.667 -103 -144 -149s-116.333 -84.5 -183 -115.5s-143 -55.167 -229 -72.5s-179 -26 -279 -26c-119.333 0 -233.166 12.5 -341.499 37.5s-206.333 59.833 -294 104.5
s-168.5 98 -242.5 160s-138 130.5 -192 205.5s-99.833 154.667 -137.5 239s-65.834 171.333 -84.501 261s-28 180.5 -28 272.5s9.33301 182.833 28 272.5s46.834 176.667 84.501 261s83.5 164 137.5 239s118 143.5 192 205.5s154.833 115.333 242.5 160
s185.667 79.5 294 104.5s222.166 37.5 341.499 37.5z" />
    <glyph glyph-name="D" unicode="D" horiz-adv-x="2780" 
d="M1400 0l-1280 -0.00390625v320h320v1840h-320v320h1280c143.333 0 278.666 -15.833 405.999 -47.5s240.166 -75.667 338.499 -132s186.666 -123.166 265 -200.499c78.333 -77.333 143 -162 194 -254s89.833 -189.167 116.5 -291.5s40 -207.166 40 -314.499
s-13.333 -212.166 -40 -314.499s-65.5 -199.5 -116.5 -291.5s-115.667 -176.667 -194 -254s-166.666 -144.166 -265 -200.499c-98.333 -56.333 -211.166 -100.333 -338.499 -132s-262.666 -47.5 -405.999 -47.5zM1400 319.996c104 0 197.001 23.167 279.001 69.5
s149.167 110.833 201.5 193.5s92 179.5 119 290.5s40.5 233.167 40.5 366.5c0 106.667 -8 206 -24 298s-41 176.5 -75 253.5s-75.833 142.667 -125.5 197s-109.834 96.5 -180.501 126.5s-149 45 -235 45h-320v-1840h320z" />
    <glyph glyph-name="E" unicode="E" horiz-adv-x="2480" 
d="M120 2480l2160 -0.00195312v-800h-360v160c0 32.667 -2.83301 66.334 -8.5 101.001s-14.334 69 -26.001 103s-28.5 61.833 -50.5 83.5s-47 32.5 -75 32.5h-680v-880h360v360h320v-1040h-320v360h-360v-640h720c28 0 53 10.833 75 32.5s38.833 49.5 50.5 83.5
s20.334 68.333 26.001 103s8.5 68.334 8.5 101.001v160h360v-800h-2200v320h320v1840h-320v320z" />
    <glyph glyph-name="F" unicode="F" horiz-adv-x="2400" 
d="M1640 320l0.000976562 -320.001h-1520v320h320v1840h-320v320h2160v-800h-360v160c0 32.667 -2.83301 66.334 -8.5 101.001s-14.334 69 -26.001 103s-28.5 61.833 -50.5 83.5s-47 32.5 -75 32.5h-680v-880h360v360h320v-1040h-320v360h-360v-640h560z" />
    <glyph glyph-name="G" unicode="G" horiz-adv-x="2680" 
d="M1280 1280l1360 0.00390625v-360h-240v-920h-160l-234 176c-147.333 -144 -362.666 -216 -645.999 -216c-119.333 0 -233.166 12.5 -341.499 37.5s-206.333 59.833 -294 104.5s-168.5 98 -242.5 160s-138 130.5 -192 205.5s-99.833 154.667 -137.5 239
s-65.834 171.333 -84.501 261s-28 180.5 -28 272.5s9.33301 182.833 28 272.5s46.834 176.667 84.501 261s83.5 164 137.5 239s118 143.5 192 205.5s154.833 115.333 242.5 160s185.667 79.5 294 104.5s222.166 37.5 341.499 37.5c350 0 630 -93.333 840 -280
c86 -76 147.5 -152.5 184.5 -229.5s55.5 -173.833 55.5 -290.5c0 -88.667 -31.167 -164.167 -93.5 -226.5s-137.833 -93.5 -226.5 -93.5s-164.167 31.167 -226.5 93.5s-93.5 137.833 -93.5 226.5c0 45.333 9 88.166 27 128.499s43 75.5 75 105.5
c-48 89.333 -112.833 152.666 -194.5 189.999s-184.167 56 -307.5 56c-80.667 0 -155.5 -16.333 -224.5 -49s-128.667 -78.334 -179 -137.001s-93.5 -128 -129.5 -208s-62.833 -167.833 -80.5 -263.5s-26.5 -196.5 -26.5 -302.5c0 -104.667 10.667 -205.334 32 -302.001
s52.333 -184.667 93 -264s88.334 -148.5 143.001 -207.5s117.5 -104.833 188.5 -137.5s145.5 -49 223.5 -49c126.667 0 233.334 40.333 320.001 121v519h-480v360z" />
    <glyph glyph-name="H" unicode="H" horiz-adv-x="3040" 
d="M1640 2480h1280v-320h-320v-1840h320v-320h-1280v320h320v640h-880v-640h320v-320h-1280v320h320v1840h-320v320h1280v-320h-320v-880h880v880h-320v320z" />
    <glyph glyph-name="I" unicode="I" horiz-adv-x="1520" 
d="M120 2480h1280v-320h-320v-1840h320v-320h-1280v320h320v1840h-320v320z" />
    <glyph glyph-name="J" unicode="J" horiz-adv-x="2260" 
d="M760 2160v320.002h1360v-320h-320v-1400c0 -162 -37.667 -303.5 -113 -424.5s-182.333 -213.833 -321 -278.5s-300.667 -97 -486 -97c-76 0 -151.333 7 -226 21s-149.5 38.167 -224.5 72.5s-141 76.666 -198 126.999s-103.167 115 -138.5 194s-53 167.5 -53 265.5
c0 88.667 31.167 164.167 93.5 226.5s137.833 93.5 226.5 93.5s164.167 -31.167 226.5 -93.5s93.5 -137.833 93.5 -226.5c0 -63.333 -16.833 -121 -50.5 -173s-78.167 -91 -133.5 -117c68 -46.667 156 -70 264 -70c51.333 0 100.5 10.167 147.5 30.5s89.5 49.833 127.5 88.5
s68.333 89.167 91 151.5s34 132.166 34 209.499v1400h-400z" />
    <glyph glyph-name="K" unicode="K" horiz-adv-x="2960" 
d="M120 2480h1280v-320h-320v-1840h200v-320h-1160v320h320v1840h-320v320zM1680 2160v320h1120v-320h-293l-697 -765l753 -1075h277v-320h-1320v320h277l-623 890l865 950h-359z" />
    <glyph glyph-name="L" unicode="L" horiz-adv-x="2400" 
d="M120 2480l1360 -0.000976562v-320h-400v-1840h640c28 0 53 10.833 75 32.5s38.833 49.5 50.5 83.5s20.334 68.333 26.001 103s8.5 68.334 8.5 101.001v320h360v-960h-2120v320h320v1840h-320v320z" />
    <glyph glyph-name="M" unicode="M" horiz-adv-x="3440" 
d="M120 2480h1040l618 -1172l585 1172h957v-320h-320v-1840h320v-320h-1280v320h320v1443l-640 -1283h-200l-680 1288v-1448h320v-320h-1040v320h320v1840h-320v320z" />
    <glyph glyph-name="N" unicode="N" horiz-adv-x="2860" 
d="M120 2480h890l1030 -1212v892h-320v320h1040v-320h-320v-2160h-240l-1360 1600v-1280h320v-320h-1040v320h320v1840h-320v320z" />
    <glyph glyph-name="O" unicode="O" horiz-adv-x="2720" 
d="M1360 2520c119.333 0 233.167 -12.5 341.5 -37.5s206.333 -59.833 294 -104.5s168.5 -98 242.5 -160s138 -130.5 192 -205.5s99.833 -154.667 137.5 -239s65.834 -171.333 84.5 -261c18.667 -89.667 28 -180.5 28 -272.5s-9.33301 -182.833 -28 -272.5
s-46.834 -176.667 -84.501 -261s-83.5 -164 -137.5 -239s-118 -143.5 -192 -205.5s-154.833 -115.333 -242.5 -160s-185.667 -79.5 -294 -104.5s-222.166 -37.5 -341.499 -37.5s-233.166 12.5 -341.499 37.5s-206.333 59.833 -294 104.5s-168.5 98 -242.5 160
s-138 130.5 -192 205.5s-99.833 154.667 -137.5 239s-65.834 171.333 -84.501 261s-28 180.5 -28 272.5s9.33301 182.833 28 272.5s46.834 176.667 84.501 261s83.5 164 137.5 239s118 143.5 192 205.5s154.833 115.333 242.5 160s185.667 79.5 294 104.5
s222.166 37.5 341.499 37.5zM1360 2200c-80.667 0 -154.171 -16.5 -220.504 -49.5s-122.666 -78.5 -168.999 -136.5s-85.5 -127.5 -117.5 -208.5s-55.5 -168.833 -70.5 -263.5s-22.5 -195.334 -22.5 -302.001c0 -133.333 12.833 -257.5 38.5 -372.5
s62.834 -216.5 111.501 -304.5s111.5 -157.167 188.5 -207.5s164.167 -75.5 261.5 -75.5s184.5 25.167 261.5 75.5s139.833 119.5 188.5 207.5s85.834 189.5 111.501 304.5s38.5 239.167 38.5 372.5c0 106.667 -7.5 207.334 -22.5 302.001s-38.5 182.5 -70.5 263.5
s-71.167 150.5 -117.5 208.5s-102.666 103.5 -168.999 136.5s-139.833 49.5 -220.5 49.5z" />
    <glyph glyph-name="P" unicode="P" horiz-adv-x="2500" 
d="M120 0v320.002h320v1840h-320v320h1040c242 0 431.833 -7.66699 569.5 -23s245 -39.166 322 -71.5c77 -32.333 147.833 -80.833 212.5 -145.5c58 -58 101.833 -130.833 131.5 -218.5s44.5 -181.5 44.5 -281.5c0 -81.333 -10.5 -156.5 -31.5 -225.5s-50.667 -130 -89 -183
s-85.333 -100.333 -141 -142s-117.167 -76.834 -184.5 -105.501s-141.833 -52.334 -223.5 -71.001s-166 -32.167 -253 -40.5s-179.5 -12.5 -277.5 -12.5h-160v-640h400v-320h-1360zM1080 1280h159.999c320 0 480 146.667 480 440c0 50.667 -3.5 96.667 -10.5 138
s-19.833 81.333 -38.5 120s-42.667 71 -72 97s-67.666 46.667 -114.999 62s-102 23 -164 23h-240v-880z" />
    <glyph glyph-name="Q" unicode="Q" horiz-adv-x="2720" 
d="M1360 2200c-80.667 0 -154.171 -16.5 -220.504 -49.5s-122.666 -78.5 -168.999 -136.5s-85.5 -127.5 -117.5 -208.5s-55.5 -168.833 -70.5 -263.5s-22.5 -195.334 -22.5 -302.001c0 -133.333 12.833 -257.5 38.5 -372.5s62.834 -216.5 111.501 -304.5
s111.5 -157.167 188.5 -207.5s164.167 -75.5 261.5 -75.5s184.5 25.167 261.5 75.5s139.833 119.5 188.5 207.5s85.834 189.5 111.501 304.5s38.5 239.167 38.5 372.5c0 106.667 -7.5 207.334 -22.5 302.001s-38.5 182.5 -70.5 263.5s-71.167 150.5 -117.5 208.5
s-102.666 103.5 -168.999 136.5s-139.833 49.5 -220.5 49.5zM1360 2520c119.333 0 233.169 -12.4961 341.502 -37.4961s206.333 -59.833 294 -104.5s168.5 -98 242.5 -160s138 -130.5 192 -205.5s99.833 -154.667 137.5 -239s65.834 -171.333 84.5 -261
c18.667 -89.667 28 -180.5 28 -272.5c0 -90 -9 -179.167 -27 -267.5s-45.333 -174.166 -82 -257.499s-81 -162 -133 -236s-113.833 -142 -185.5 -204s-149.667 -115.833 -234 -161.5s-179 -81.834 -284 -108.501s-215.167 -41.334 -330.5 -44.001l-84 -281
c42.667 -9.33301 84.5 -23.666 125.5 -42.999s74.5 -37.333 100.5 -54s61.167 -31.334 105.5 -44.001s93.833 -19 148.5 -19c44.667 0 84.334 2 119.001 6c-26 47.333 -39 98.666 -39 153.999c0 88.667 31.167 164.167 93.5 226.5s137.833 93.5 226.499 93.5
c88.667 0 164.167 -31.167 226.5 -93.5s93.5 -137.833 93.5 -226.5c0 -46.667 -9.5 -90.834 -28.5 -132.501s-45.5 -77.5 -79.5 -107.5c-28.667 -28.667 -55 -53.167 -79 -73.5s-53 -41.666 -87 -63.999s-68 -40.5 -102 -54.5s-73.833 -25.5 -119.5 -34.5
s-93.834 -13.5 -144.501 -13.5c-80.667 0 -152.834 5.16699 -216.501 15.5s-117.5 23.666 -161.5 39.999s-86.333 34.5 -127 54.5s-84.334 40 -131.001 60s-98.167 38.167 -154.5 54.5s-128.666 29.666 -216.999 39.999s-188.5 15.5 -300.5 15.5l221 590
c-120 51.333 -228 119.166 -324 203.499s-175 178 -237 281s-109.5 212.833 -142.5 329.5s-49.5 235.334 -49.5 356.001c0 92 9.33301 182.833 28 272.5s46.834 176.667 84.501 261s83.5 164 137.5 239s118 143.5 192 205.5s154.833 115.333 242.5 160
s185.667 79.5 294 104.5s222.166 37.5 341.499 37.5z" />
    <glyph glyph-name="R" unicode="R" horiz-adv-x="2740" 
d="M120 0l-0.00195312 320.002h320v1840h-320v320h1040c242 0 431.833 -7.66699 569.5 -23s245 -39.166 322 -71.5c77 -32.333 147.833 -80.833 212.5 -145.5c58 -58 101.833 -130.833 131.5 -218.5s44.5 -181.5 44.5 -281.5c0 -311.333 -150.333 -530.666 -451 -657.999
c110 -94 180.333 -241.333 211 -442c3.33301 -21.333 7.33301 -48.833 12 -82.5l11 -78c2.66699 -18.333 6.33398 -40 11 -65c4.66699 -25 9 -44.167 13 -57.5s9 -26.666 15 -39.999s12.833 -22.833 20.5 -28.5s16.167 -8.5 25.5 -8.5c20.667 0 38.5 9.33301 53.5 28
s27.167 46.5 36.5 83.5s16.333 70.833 21 101.5s10 70.667 16 120l3 27l282 -29c-6.66699 -64.667 -12.5 -115 -17.5 -151s-13.167 -80.667 -24.5 -134s-24.333 -94.666 -39 -123.999s-34.834 -61.833 -60.5 -97.5c-25.667 -35.667 -55.5 -62.334 -89.5 -80.001
s-75.833 -32.834 -125.5 -45.501s-105.834 -19 -168.5 -19c-45.333 0 -87 2 -125 6s-73.167 10.667 -105.5 20s-61.833 19.666 -88.5 30.999s-51.667 26.666 -75 45.999s-44.166 38.833 -62.499 58.5s-36.166 44.5 -53.499 74.5s-32.5 59.167 -45.5 87.5
s-26.833 63 -41.5 104s-27.667 80.167 -39 117.5l-39 135c-18 64 -34.833 114.5 -50.5 151.5s-35.5 69.167 -59.5 96.5s-52.5 46.166 -85.5 56.499s-74.5 15.5 -124.5 15.5h-120v-640h320v-320h-1280zM1080 1280h159.999c320 0 480 146.667 480 440
c0 50.667 -3.5 96.667 -10.5 138s-19.833 81.333 -38.5 120s-42.667 71 -72 97s-67.666 46.667 -114.999 62s-102 23 -164 23h-240v-880z" />
    <glyph glyph-name="S" unicode="S" horiz-adv-x="2120" 
d="M760 1920c0 -63.333 14.6689 -120.167 44.002 -170.5s68.666 -92.5 117.999 -126.5s106 -65.333 170 -94s131.333 -55.834 202 -81.501l212 -80c70.667 -27.667 138 -60.667 202 -99s120.667 -81.333 170 -129s88.666 -107.334 117.999 -179.001s44 -151.834 44 -240.501
c0 -108.667 -24 -210 -72 -304s-113.833 -174.5 -197.5 -241.5s-185.167 -119.5 -304.5 -157.5s-248 -57 -386 -57c-53.333 0 -109.5 3.5 -168.5 10.5s-121.333 18.833 -187 35.5s-128.834 37 -189.501 61s-118.834 54.5 -174.501 91.5s-104.167 78.167 -145.5 123.5
s-74.166 98.833 -98.499 160.5s-36.5 127.5 -36.5 197.5c0 88.667 31.167 164.167 93.5 226.5s137.833 93.5 226.5 93.5s164.167 -31.167 226.5 -93.5s93.5 -137.833 93.5 -226.5c0 -57.333 -13.833 -110.166 -41.5 -158.499s-65.167 -86.833 -112.5 -115.5
c100 -57.333 231.333 -86 394 -86c144.667 0 254.167 22.333 328.5 67s111.5 115.667 111.5 213c0 63.333 -14.667 120.166 -44 170.499s-68.666 92.5 -117.999 126.5s-106 65.333 -170 94s-131.333 55.834 -202 81.501l-212 80c-70.667 27.667 -138 60.667 -202 99
s-120.667 81.333 -170 129s-88.666 107.334 -117.999 179.001s-44 151.834 -44 240.501c0 109.333 21.833 210.833 65.5 304.5s105 174 184 241s176.167 119.5 291.5 157.5s241.666 57 378.999 57c53.333 0 108.833 -3.5 166.5 -10.5s118 -18.833 181 -35.5
s123.5 -37 181.5 -61s113.5 -54.5 166.5 -91.5s98.833 -78.167 137.5 -123.5s69.5 -98.666 92.5 -160c23 -61.333 34.5 -127.333 34.5 -198c0 -88.667 -31.167 -164.167 -93.5 -226.5s-137.833 -93.5 -226.5 -93.5s-164.167 31.167 -226.5 93.5s-93.5 137.833 -93.5 226.5
c0 59.333 15 113.833 45 163.5s69.667 88.5 119 116.5c-88.667 53.333 -210 80 -364 80c-140.667 0 -242.5 -21.833 -305.5 -65.5s-94.5 -115.167 -94.5 -214.5z" />
    <glyph glyph-name="T" unicode="T" horiz-adv-x="2520" 
d="M100 2480h2320v-800h-360v160c0 32.667 -2.83301 66.334 -8.5 101.001s-14.334 69 -26.001 103s-28.5 61.833 -50.5 83.5s-47 32.5 -75 32.5h-320v-1840h320v-320h-1280v320h320v1840h-320c-28 0 -53 -10.833 -75 -32.5s-38.833 -49.5 -50.5 -83.5
s-20.334 -68.333 -26.001 -103s-8.5 -68.334 -8.5 -101.001v-160h-360v800z" />
    <glyph glyph-name="U" unicode="U" horiz-adv-x="2800" 
d="M1640 2480l1040 0.000976562v-320h-320v-1320c0 -90.667 -9.66699 -177.667 -29 -261s-50.833 -162.833 -94.5 -238.5s-97.334 -141.5 -161.001 -197.5s-143.167 -100.5 -238.5 -133.5s-201 -49.5 -317 -49.5c-252 0 -458 35.833 -618 107.5s-277 177.667 -351 318
s-111 318.5 -111 534.5v1240h-320v320h1280v-320h-320v-1240c0 -72.667 5.5 -139.667 16.5 -201s25.5 -113.5 43.5 -156.5s40 -81.333 66 -115s53 -60.834 81 -81.501s58.167 -37.667 90.5 -51s63.166 -22.5 92.499 -27.5s59.333 -7.5 90 -7.5
c78 0 147.833 14.167 209.5 42.5s112 67.666 151 117.999s68.667 109.333 89 177s30.5 141.834 30.5 222.501v1320h-400v320z" />
    <glyph glyph-name="V" unicode="V" horiz-adv-x="2920" 
d="M1520 1127c44.667 -103.333 84.667 -225.667 120 -367c34.667 138 74.667 260.333 120 367l440 1033h-440v320h1080v-320h-240l-920 -2160h-440l-920 2160h-240v320h1280v-320h-280z" />
    <glyph glyph-name="W" unicode="W" horiz-adv-x="4200" 
d="M80 2480l1280 -0.00195312v-320h-240l330 -1033c33.333 -103.333 63.333 -225.666 90 -366.999c26.667 140.667 56.667 263 90 367l330 1033h-360v320h1280v-320h-280l330 -1033c33.333 -103.333 63.333 -225.666 90 -366.999c26.667 140.667 56.667 263 90 367l330 1033
h-320v320h1000v-320h-280l-807 -2160h-386l-478 1280c-36 96.667 -59 176.667 -69 240c-10 -63.333 -33 -143.333 -69 -240l-478 -1280h-386l-807 2160h-280v320z" />
    <glyph glyph-name="X" unicode="X" horiz-adv-x="2920" 
d="M1200 0h-1080v320h280l649 893l-689 947h-240v320h1280v-320h-249l486 -669l487 669h-404v320h1080v-320h-280l-634 -872l703 -968h211v-320h-1280v320h278l-501 689l-501 -689h404v-320z" />
    <glyph glyph-name="Y" unicode="Y" horiz-adv-x="2840" 
d="M1680 2480h1080v-320h-280l-764 -1051v-789h320v-320h-1280v320h320v801l-756 1039h-240v320h1280v-320h-249l486 -669l487 669h-404v320z" />
    <glyph glyph-name="Z" unicode="Z" 
d="M164 2480h1956v-240l-1173 -1920h693c28 0 53 10.833 75 32.5s38.833 49.5 50.5 83.5s20.334 68.333 26.001 103s8.5 68.334 8.5 101.001v320h360v-960h-2040v200l1198 1960h-634c-28 0 -53 -10.833 -75 -32.5s-38.833 -49.5 -50.5 -83.5s-20.334 -68.333 -26.001 -103
s-8.5 -68.334 -8.5 -101.001v-160h-360v800z" />
    <glyph glyph-name="bracketleft" unicode="[" horiz-adv-x="1320" 
d="M120 2640h1120v-320h-560v-2800h560v-320h-1120v3440z" />
    <glyph glyph-name="backslash" unicode="\" horiz-adv-x="1961" 
d="M449 2480l1432 -2480h-370l-1431 2480h369z" />
    <glyph glyph-name="bracketright" unicode="]" horiz-adv-x="1320" 
d="M1200 -800h-1120v320h560v2800h-560v320h1120v-3440z" />
    <glyph glyph-name="asciicircum" unicode="^" horiz-adv-x="1560" 
d="M1480 1520h-520l-200 720l-200 -720h-520l480 960h480z" />
    <glyph glyph-name="underscore" unicode="_" horiz-adv-x="1680" 
d="M80 -480h1520v-320h-1520v320z" />
    <glyph glyph-name="grave" unicode="`" horiz-adv-x="1060" 
d="M961 2091c10.667 -10.667 15.999 -23.334 15.999 -38c0 -14.667 -5.16699 -27.167 -15.5 -37.5s-22.833 -15.5 -37.5 -15.5c-4 0 -8.66699 0.666992 -14 2l-656 176c-51.333 14 -93.166 42 -125.499 84s-48.5 89.667 -48.5 143c0 64.667 23 120 69 166s101.333 69 166 69
s120 -23 166 -69z" />
    <glyph glyph-name="a" unicode="a" horiz-adv-x="2100" 
d="M1800 1205l-0.000976562 -885h200v-320h-623l-89 208c-68 -97.333 -146.833 -164 -236.5 -200s-214.834 -54 -375.501 -54c-83.333 0 -160.833 14.5 -232.5 43.5s-132.667 68.5 -183 118.5s-89.666 110 -117.999 180s-42.5 145 -42.5 225c0 138 54 252.5 162 343.5
s246 136.5 414 136.5c135.333 0 247.333 -12.833 336 -38.5s164.667 -66.5 228 -122.5v424c0 60 -8.16699 110.167 -24.5 150.5s-40.833 71.333 -73.5 93s-69.334 36.834 -110.001 45.501s-89.334 13 -146.001 13c-45.333 0 -86.333 -9.66699 -123 -29
c20.667 -43.333 31 -89 31 -137c0 -88.667 -31.167 -164.167 -93.5 -226.5s-137.833 -93.5 -226.5 -93.5s-164.167 31.167 -226.5 93.5s-93.5 137.833 -93.5 226.5c0 45.333 8.83301 88 26.5 128s42.167 75 73.5 105c26.667 28 54.334 53.167 83.001 75.5
s64.834 44.666 108.501 66.999s91.167 40.833 142.5 55.5s112.833 26.5 184.5 35.5s150.167 13.5 235.5 13.5c110.667 0 214.667 -16.333 312 -49s181.333 -78 252 -136s126.334 -129.333 167.001 -214s61 -176.667 61 -276zM1240 444v138.001
c-41.333 39.333 -87.833 72.5 -139.5 99.5s-99.5 40.5 -143.5 40.5c-94.667 0 -161.334 -15.833 -200.001 -47.5s-58 -82.834 -58 -153.501c0 -84.667 16.667 -147 50 -187s95.333 -60 186 -60c51.333 0 104.833 16.5 160.5 49.5s103.834 73.167 144.501 120.5z" />
    <glyph glyph-name="b" unicode="b" horiz-adv-x="2270" 
d="M1452 1880c156 0 288.166 -39.498 396.499 -118.498s189 -189.667 242 -332s79.5 -312.5 79.5 -510.5c0 -144.667 -20 -277.167 -60 -397.5s-95.167 -221.333 -165.5 -303s-154.333 -145.167 -252 -190.5s-203.834 -68 -318.501 -68
c-53.333 0 -104.666 4.66699 -153.999 14s-92.333 20.833 -129 34.5s-72.5 31.167 -107.5 52.5s-64 41 -87 59s-46 39.333 -69 64s-40 44 -51 58s-23.167 30.333 -36.5 49l-195 -291h-265v2160h-200v320h760v-940c27.333 47.333 59.333 90.666 96 129.999
s79.834 75.166 129.501 107.499s107.5 57.5 173.5 75.5s137 27 213 27zM839.999 599.002c35.333 -82 81.332 -147.167 137.999 -195.5s123.667 -72.5 201 -72.5c132 0 230.167 51.667 294.5 155s96.5 250 96.5 440c0 89.333 -10.5 171.833 -31.5 247.5s-49 138.5 -84 188.5
s-75.167 88.833 -120.5 116.5s-92.666 41.5 -141.999 41.5c-73.333 0 -137.833 -22.5 -193.5 -67.5s-108.5 -112.167 -158.5 -201.5v-652z" />
    <glyph glyph-name="c" unicode="c" horiz-adv-x="2034" 
d="M1412 1489c-76 47.333 -172.669 71.002 -290.002 71.002c-47.333 0 -91.333 -6.5 -132 -19.5s-79.5 -35.167 -116.5 -66.5s-68.5 -71 -94.5 -119s-46.667 -109 -62 -183s-23 -158 -23 -252s8.33301 -177.667 25 -251s38.834 -133.333 66.501 -180s61 -85 100 -115
s79.167 -51.167 120.5 -63.5s86 -18.5 134 -18.5c140.667 0 250.5 27.167 329.5 81.5s142.167 138.166 189.5 251.499l266 -92c-24 -64.667 -54.5 -125.5 -91.5 -182.5s-81.5 -109.5 -133.5 -157.5s-109.833 -89.167 -173.5 -123.5s-135.5 -61.166 -215.5 -80.499
s-164.333 -29 -253 -29c-131.333 0 -255.5 23 -372.5 69s-218.667 110.167 -305 192.5s-154.666 183.833 -204.999 304.5s-75.5 252 -75.5 394c0 114 16 221.333 48 322s77.167 189.667 135.5 267s126.833 144 205.5 200s166 98.5 262 127.5s196.667 43.5 302 43.5
c83.333 0 161.666 -7.83301 234.999 -23.5s138.833 -37 196.5 -64s111.5 -60.5 161.5 -100.5s93.833 -82.5 131.5 -127.5s72.834 -95.5 105.501 -151.5c34 -52.667 51 -110.334 51 -173.001c0 -88.667 -31.167 -164.167 -93.5 -226.5s-137.833 -93.5 -226.5 -93.5
s-164.167 31.167 -226.5 93.5s-93.5 137.833 -93.5 226.5c0 49.333 10.5 95.666 31.5 138.999s49.833 80 86.5 110z" />
    <glyph glyph-name="d" unicode="d" horiz-adv-x="2262" 
d="M819 -46c-156 0 -288.337 39.999 -397.004 119.999s-189.5 191.667 -242.5 335s-79.5 314 -79.5 512c0 144.667 18.833 277 56.5 397s90.334 221.167 158.001 303.5s149.334 146 245.001 191s200.5 67.5 314.5 67.5c57.333 0 111.333 -5.16699 162 -15.5
s93.834 -23.166 129.501 -38.499s69.5 -34.333 101.5 -57s57.833 -44 77.5 -64s38.834 -42.333 57.501 -67v522h-200v320h760v-2160h200v-320h-594l-121 232c-26 -36 -55.333 -69 -88 -99c-132 -119.333 -312 -179 -540 -179zM1402 1299c-76 140 -179.333 210 -310 210
c-132 0 -230.167 -51.667 -294.5 -155s-96.5 -250 -96.5 -440c0 -89.333 10.5 -171.833 31.5 -247.5s49 -138.5 84 -188.5s75.167 -88.833 120.5 -116.5s92.666 -41.5 141.999 -41.5c66.667 0 125.834 18.5 177.501 55.5s100.167 91.833 145.5 164.5v759z" />
    <glyph glyph-name="e" unicode="e" horiz-adv-x="2096" 
d="M698 800c6 -77.333 18.666 -146.332 37.999 -206.999s42.833 -110.334 70.5 -149.001s59.834 -70.5 96.501 -95.5s74.334 -42.667 113.001 -53s80 -15.5 124 -15.5c140.667 0 250.5 27.167 329.5 81.5s142.167 138.166 189.5 251.499l266 -92
c-24 -64.667 -54.5 -125.5 -91.5 -182.5s-81.5 -109.5 -133.5 -157.5s-109.833 -89.167 -173.5 -123.5s-135.5 -61.166 -215.5 -80.499s-164.333 -29 -253 -29c-131.333 0 -255.5 23 -372.5 69s-218.667 110.167 -305 192.5s-154.666 183.833 -204.999 304.5
s-75.5 252 -75.5 394s25.167 274 75.5 396s118.666 224.833 204.999 308.5s188 149.167 305 196.5s241.167 71 372.5 71s255.5 -23.667 372.5 -71s218.667 -112.833 305 -196.5s154.666 -186.5 204.999 -308.5s75.5 -254 75.5 -396l-25 -108h-1293zM704.999 1120h706.001
c-17.333 153.333 -55.666 265 -114.999 335s-138 105 -236 105c-48.667 0 -92.334 -7.83301 -131.001 -23.5s-73.334 -40.667 -104.001 -75s-56.167 -80 -76.5 -137s-34.833 -125.167 -43.5 -204.5z" />
    <glyph glyph-name="f" unicode="f" horiz-adv-x="1640" 
d="M80 1520v320.002h280c0 250.667 71.333 446.667 214 588s351.334 212 626.001 212c102.667 0 189.667 -8.83301 261 -26.5s125.666 -40.5 162.999 -68.5s68.333 -63 93 -105c28.667 -48 43 -101.333 43 -160c0 -88.667 -31.167 -164.167 -93.5 -226.5
s-137.833 -93.5 -226.5 -93.5s-164.167 31.167 -226.5 93.5s-93.5 137.833 -93.5 226.5c0 13.333 0.666992 26.666 2 39.999h-2c-69.333 0 -120 -39.333 -152 -118s-48 -199.334 -48 -362.001h600v-320h-600v-1200h440v-320h-1200v320h200v1200h-280z" />
    <glyph glyph-name="g" unicode="g" horiz-adv-x="2060" 
d="M1320 2200c0 88.667 31.166 164.173 93.499 226.506s137.833 93.5 226.5 93.5c33.333 0 66 -5 98 -15c41.333 -12.667 77.5 -29.334 108.5 -50c31 -20.667 56.167 -43.334 75.5 -68c19.333 -24.667 35 -53.167 47 -85.5s20.167 -64.666 24.5 -97
c4.33301 -32.333 6.5 -68.166 6.5 -107.5c0 -40.667 -8 -83.334 -24 -128.001s-37.167 -86.834 -63.5 -126.501s-55 -76.667 -86 -111s-62.833 -64.5 -95.5 -90.5c99.333 -98 149 -218.333 149 -361c0 -106.667 -23.167 -201.5 -69.5 -284.5s-110.166 -150 -191.499 -201
s-174.166 -89.5 -278.499 -115.5s-217.833 -39 -340.5 -39c-101.333 0 -198.333 11.333 -291 34c-60.667 -9.33301 -107.334 -25.666 -140.001 -48.999s-49 -45 -49 -65s8.33301 -38.333 25 -55s35 -25 55 -25h560c282 0 485.833 -40.333 611.5 -121
s188.5 -213.667 188.5 -399c0 -89.333 -11 -170.5 -33 -243.5s-51.833 -135.333 -89.5 -187s-84.167 -97.334 -139.5 -137.001s-113.333 -71.5 -174 -95.5s-128.334 -43.333 -203.001 -58s-147 -24.834 -217 -30.501s-144.667 -8.5 -224 -8.5
c-126.667 0 -241.167 13.833 -343.5 41.5s-186.333 65.5 -252 113.5s-116.167 103.167 -151.5 165.5s-53 128.833 -53 199.5c0 144.667 83 257.667 249 339c-64.667 32.667 -115.667 77.5 -153 134.5s-56 125.833 -56 206.5c0 90 26 171.667 78 245s122 126.666 210 159.999
c-78 55.333 -138.833 122.666 -182.5 201.999s-65.5 170.333 -65.5 273c0 85.333 15.167 162 45.5 230s71.333 124.5 123 169.5s113.667 82.333 186 112s148.5 50.834 228.5 63.501s165.667 19 257 19c210.667 0 390.334 -34.667 539.001 -104
c34 39.333 60.333 76.333 79 111c-83.333 5.33301 -153.833 38.666 -211.5 99.999s-86.5 134.333 -86.5 218.999zM1020 1560.01c-94 0 -167.501 -27.001 -220.501 -81.001s-79.5 -132 -79.5 -234c0 -102.667 26.667 -182.5 80 -239.5s126.666 -85.5 219.999 -85.5
c92.667 0 165.834 28.833 219.501 86.5s80.5 137.167 80.5 238.5c0 100.667 -26.667 178.334 -80 233.001s-126.666 82 -219.999 82zM714.998 0.00488281c-76.667 -54.667 -114.999 -121.333 -114.999 -200c0 -79.333 24.667 -132.5 74 -159.5s144.666 -40.5 285.999 -40.5
c320 0 480 80 480 240c0 40 -16.667 76.667 -50 110s-70 50 -110 50h-565z" />
    <glyph glyph-name="h" unicode="h" 
d="M1400 1880c93.333 0 174.999 -12.6699 244.999 -38.0029s127.333 -60.166 172 -104.499s80.834 -100.666 108.501 -168.999s47 -141.666 58 -219.999s16.5 -167.833 16.5 -268.5v-760h200v-320h-960v320h200v800c0 105.333 -9.5 187.333 -28.5 246s-46.333 99 -82 121
s-84.167 33 -145.5 33c-56.667 0 -114.834 -24.333 -174.501 -73s-116.167 -116.667 -169.5 -204v-923h200v-320h-960v320h200v1840h-200v320h760v-913c24 44.667 52.333 85 85 121s71.334 68.833 116.001 98.5s97.5 52.667 158.5 69s127.833 24.5 200.5 24.5z" />
    <glyph glyph-name="i" unicode="i" horiz-adv-x="1120" 
d="M240 2280c0 88.667 31.167 164.167 93.5 226.5s137.833 93.5 226.5 93.5s164.167 -31.167 226.5 -93.5s93.5 -137.833 93.5 -226.5s-31.167 -164.167 -93.5 -226.5s-137.833 -93.5 -226.5 -93.5s-164.167 31.167 -226.5 93.5s-93.5 137.833 -93.5 226.5zM80 1840h760
v-1520h200v-320h-960v320h200v1200h-200v320z" />
    <glyph glyph-name="j" unicode="j" horiz-adv-x="1060" 
d="M240 2280c0 88.667 31.167 164.167 93.5 226.5s137.833 93.5 226.5 93.5s164.167 -31.167 226.5 -93.5s93.5 -137.833 93.5 -226.5s-31.167 -164.167 -93.5 -226.5s-137.833 -93.5 -226.5 -93.5s-164.167 31.167 -226.5 93.5s-93.5 137.833 -93.5 226.5zM-418 -618
c-36 53.333 -53.999 112.667 -53.999 178c0 88.667 31.167 164.167 93.5 226.5s137.833 93.5 226.5 93.5s164.167 -31.167 226.5 -93.5s93.5 -137.833 93.5 -226.5c0 -13.333 -0.666992 -26.666 -2 -39.999c16.667 0.666992 30.5 3.83398 41.5 9.50098
s21.5 17.834 31.5 36.501s17.667 45.334 23 80.001s9.66602 81 12.999 139s5 129.667 5 215v1520h-200v320h760v-1840c0 -100.667 -8.33301 -191.334 -25 -272.001s-43.834 -154.334 -81.501 -221.001s-85.667 -122.334 -144 -167.001s-130.166 -79.167 -215.499 -103.5
s-183.333 -36.5 -294 -36.5c-99.333 0 -182 7.16699 -248 21.5s-117.5 34.166 -154.5 59.499s-68.833 59 -95.5 101z" />
    <glyph glyph-name="k" unicode="k" 
d="M1200 1520v320h960v-320h-262l-397 -436l535 -764h164v-320h-960v320h128l-448 640l510 560h-230zM80 2480h760v-2160h200v-320h-960v320h200v1840h-200v320z" />
    <glyph glyph-name="l" unicode="l" horiz-adv-x="1120" 
d="M80 2480h760v-2160h200v-320h-960v320h200v1840h-200v320z" />
    <glyph glyph-name="m" unicode="m" horiz-adv-x="3440" 
d="M2560 1880c93.333 0 175.004 -12.6719 245.004 -38.0049s127.333 -60.166 172 -104.499s80.834 -100.666 108.501 -168.999s47 -141.666 58 -219.999s16.5 -167.833 16.5 -268.5v-760h200v-320h-960v320h200v800c0 105.333 -9.5 187.333 -28.5 246s-46.333 99 -82 121
s-84.167 33 -145.5 33c-57.333 0 -116.333 -25 -177 -75s-118 -120 -172 -210c3.33301 -48 5 -99.667 5 -155v-760h200v-320h-960v320h200v800c0 105.333 -9.5 187.333 -28.5 246s-46.333 99 -82 121s-84.167 33 -145.5 33c-56 0 -113.333 -23.667 -172 -71
s-114.334 -113.333 -167.001 -198l-5 -931h200v-320h-960v320h200v1200h-200v320h621l140 -271c24.667 44.667 53.167 84.834 85.5 120.501s71 68.334 116 98.001s97.833 52.5 158.5 68.5s127 24 199 24c80.667 0 152.667 -9.16699 216 -27.5s117.166 -45.333 161.499 -81
s81.166 -78 110.499 -127s52.666 -105.833 69.999 -170.5c16.667 43.333 36.167 84 58.5 122s50.833 74.833 85.499 110.5c34.667 35.667 73.167 66 115.5 91s92.833 45 151.5 60s122.334 22.5 191 22.5z" />
    <glyph glyph-name="n" unicode="n" 
d="M1400 1880c93.333 0 175 -12.6719 245 -38.0049s127.333 -60.166 172 -104.499s80.834 -100.666 108.501 -168.999s47 -141.666 58 -219.999s16.5 -167.833 16.5 -268.5v-760h200v-320h-960v320h200v800c0 105.333 -9.5 187.333 -28.5 246s-46.333 99 -82 121
s-84.167 33 -145.5 33c-56 0 -113.333 -23.667 -172 -71s-114.334 -113.333 -167.001 -198l-5 -931h200v-320h-960v320h200v1200h-200v320h621l140 -271c24.667 44.667 53.167 84.834 85.5 120.501s71 68.334 116 98.001s97.833 52.5 158.5 68.5s127 24 199 24z" />
    <glyph glyph-name="o" unicode="o" horiz-adv-x="2117" 
d="M1058 1874c131.333 0 255.5 -23 372.5 -69s218.833 -110.167 305.5 -192.5s155.167 -183.833 205.5 -304.5s75.5 -252 75.5 -394s-25.167 -273.333 -75.5 -394s-118.833 -222.167 -205.5 -304.5s-188.5 -146.5 -305.5 -192.5s-241.167 -69 -372.5 -69
s-255.5 23 -372.5 69s-218.667 110.167 -305 192.5s-154.666 183.833 -204.999 304.5s-75.5 252 -75.5 394s25.167 273.333 75.5 394s118.666 222.167 204.999 304.5s188 146.5 305 192.5s241.167 69 372.5 69zM1058 1554c-46.667 0 -88.334 -6.65918 -125.001 -19.9922
s-70.334 -35.333 -101.001 -66s-55.834 -70.334 -75.501 -119.001s-35 -109.334 -46 -182.001s-16.5 -157 -16.5 -253s5.5 -180.333 16.5 -253s26.333 -133.334 46 -182.001s44.834 -88.334 75.501 -119.001s64.334 -52.667 101.001 -66s78.334 -20 125.001 -20
c58.667 0 109.667 11.167 153 33.5s81.166 58.166 113.499 107.499s56.666 115.666 72.999 198.999s24.5 183.333 24.5 300s-8.16699 216.667 -24.5 300s-40.666 149.666 -72.999 198.999s-70.166 85.166 -113.499 107.499s-94.333 33.5 -153 33.5z" />
    <glyph glyph-name="p" unicode="p" horiz-adv-x="2262" 
d="M1423 1886c156 0 288.337 -39.999 397.004 -119.999s189.5 -191.667 242.5 -335s79.5 -314 79.5 -512c0 -144.667 -18.833 -277 -56.5 -397s-90.334 -221.167 -158.001 -303.5s-149.334 -146 -245.001 -191s-200.5 -67.5 -314.5 -67.5
c-57.333 0 -111.333 5.16699 -162 15.5s-93.834 23.166 -129.501 38.499s-69.5 34.333 -101.5 57s-57.833 44 -77.5 64s-38.834 42.333 -57.501 67v-522h200v-320h-960v320h200v1840h-200v320h594l121 -233c26 36.667 55.667 70 89 100c132 119.333 311.667 179 539 179z
M840.004 541.001c76 -140 179.333 -210 310 -210c132 0 230.167 51.667 294.5 155s96.5 250 96.5 440c0 89.333 -10.5 171.833 -31.5 247.5s-49 138.5 -84 188.5s-75.167 88.833 -120.5 116.5s-92.666 41.5 -141.999 41.5c-66.667 0 -125.834 -18.5 -177.501 -55.5
s-100.167 -91.833 -145.5 -164.5v-759z" />
    <glyph glyph-name="q" unicode="q" horiz-adv-x="2251" 
d="M839 -40c-156 0 -288.333 39.498 -397 118.498s-189.5 189.833 -242.5 332.5s-79.5 312.667 -79.5 510c0 144.667 20 277.167 60 397.5s95.333 221.333 166 303s154.834 145.167 252.501 190.5s203.834 68 318.501 68c53.333 0 104.666 -4.66699 153.999 -14
s92.333 -20.833 129 -34.5s72.5 -31.167 107.5 -52.5s64 -41 87 -59s46 -39.333 69 -64s40 -44 51 -58s23.167 -30.333 36.5 -49l195 291h265v-2160h200v-320h-960v320h200v620c-27.333 -47.333 -59.333 -90.666 -96 -129.999s-79.834 -75.166 -129.501 -107.499
s-107.5 -57.5 -173.5 -75.5s-137 -27 -213 -27zM1451 1239c-35.333 82.667 -81.166 148.333 -137.499 197s-123.5 73 -201.5 73c-132 0 -230.167 -51.667 -294.5 -155s-96.5 -250 -96.5 -440c0 -89.333 10.5 -171.833 31.5 -247.5s49 -138.5 84 -188.5
s75.167 -88.833 120.5 -116.5s92.666 -41.5 141.999 -41.5c73.333 0 137.833 22.5 193.5 67.5s108.5 112.167 158.5 201.5v650z" />
    <glyph glyph-name="r" unicode="r" horiz-adv-x="1880" 
d="M80 1840h621.001l126 -243c118 188.667 285 283 501 283c144.667 0 259.5 -44.5 344.5 -133.5s127.5 -204.5 127.5 -346.5c0 -88.667 -31.167 -164.167 -93.5 -226.5s-137.833 -93.5 -226.5 -93.5s-164.167 31.167 -226.5 93.5s-93.5 137.833 -93.5 226.5
c0 36 5.66699 70.667 17 104c-18 10.667 -37 16 -57 16c-44.667 0 -90.834 -29.167 -138.501 -87.5s-93.5 -145.5 -137.5 -261.5l-4 -851h440v-320h-1200v320h200v1200h-200v320z" />
    <glyph glyph-name="s" unicode="s" horiz-adv-x="1800" 
d="M668 319c38 -26 95.3389 -39.0029 172.006 -39.0029c68.667 0 124.5 4 167.5 12s75.5 21.167 97.5 39.5s36.667 38.666 44 60.999s11 51.5 11 87.5c0 42.667 -11.333 79.334 -34 110.001s-53.334 55.334 -92.001 74.001s-83 35.167 -133 49.5s-102.667 28 -158 41
s-110.666 27.333 -165.999 43s-108 36.334 -158 62.001s-94.333 56 -133 91s-69.334 80.5 -92.001 136.5s-34 120.333 -34 193c0 66.667 8 127.334 24 182.001s37.333 101.167 64 139.5s60.334 71.833 101.001 100.5s83.167 51.667 127.5 69s94.333 31.333 150 42
s109.5 17.834 161.5 21.501s108.667 5.5 170 5.5c133.333 0 249.833 -17 349.5 -51s178.167 -79.667 235.5 -137c30.667 -26 54.5 -57.5 71.5 -94.5s25.5 -76.167 25.5 -117.5c0 -77.333 -27.333 -143.333 -82 -198s-120.667 -82 -198 -82s-143.333 27.333 -198 82
s-82 120.667 -82 198c0 28 4 55 12 81c-38 26 -95.333 39 -172 39c-94 0 -164.167 -11.333 -210.5 -34s-69.5 -64.667 -69.5 -126c0 -38.667 9.66699 -72.834 29 -102.501s45.666 -54 78.999 -73s72.166 -37 116.499 -54s91.5 -31.333 141.5 -43
s101.333 -25.834 154 -42.501l154 -51c50 -17.333 97.167 -40.166 141.5 -68.499s83.166 -60.166 116.499 -95.499s59.666 -79.5 78.999 -132.5s29 -112.167 29 -177.5c0 -93.333 -15.5 -175.5 -46.5 -246.5s-72.333 -128.5 -124 -172.5s-115.834 -79.833 -192.501 -107.5
s-156.334 -46.834 -239.001 -57.501s-174.667 -16 -276 -16c-204.667 0 -369.5 39 -494.5 117s-187.5 185.667 -187.5 323c0 77.333 27.333 143.333 82 198s120.667 82 198 82s143.333 -27.333 198 -82s82 -120.667 82 -198c0 -28 -4 -55 -12 -81z" />
    <glyph glyph-name="t" unicode="t" horiz-adv-x="1560" 
d="M640 2240h199.998v-400h560v-320h-560v-1040c0 -45.333 12.833 -83.333 38.5 -114s66.167 -46 121.5 -46c62 0 114.667 20.5 158 61.5s70.666 100.5 81.999 178.5l240 -40c-10 -78 -29.167 -150.167 -57.5 -216.5s-65.166 -125.333 -110.499 -177
s-101.5 -92.334 -168.5 -122.001s-141.5 -44.5 -223.5 -44.5c-199.333 0 -355.833 46.5 -469.5 139.5s-170.5 219.833 -170.5 380.5v1040h-200v320h40c102.667 0 193.334 29.333 272.001 88s161.334 162.667 248.001 312.001z" />
    <glyph glyph-name="u" unicode="u" 
d="M80 1840l760.001 0.00292969v-1120c0 -105.333 9.5 -187.333 28.5 -246s46.333 -99 82 -121s84.167 -33 145.5 -33c56 0 113.5 23.667 172.5 71s114.833 113.333 167.5 198l4 931h-200v320h760v-1520h200v-320h-621l-140 272c-112.667 -208 -299 -312 -559 -312
c-93.333 0 -175 12.667 -245 38s-127.333 60.166 -172 104.499s-80.834 100.666 -108.501 168.999s-47 141.666 -58 219.999s-16.5 167.833 -16.5 268.5v760h-200v320z" />
    <glyph glyph-name="v" unicode="v" horiz-adv-x="2320" 
d="M80 1840h1120v-320h-329l317 -720c40.667 -94.667 70 -174.667 88 -240c18 65.333 47.333 145.333 88 240l316 720h-280v320h840v-320h-212l-668 -1520h-424l-668 1520h-188v320z" />
    <glyph glyph-name="w" unicode="w" horiz-adv-x="3240" 
d="M80 1840l1120 -0.000976562v-320h-314l269 -720c22 -58.667 47 -142 75 -250c27.333 108 51.333 191.333 72 250l258 720h-160v320h720v-320h-196l270 -720c22 -58.667 47 -142 75 -250c28.667 114 52.334 197.333 71 250l258 720h-278v320h840v-320h-212l-548 -1520
h-440l-216 600c-26 72 -53.667 165.333 -83 280c-29.333 -115.333 -57 -208.666 -83 -279.999l-216 -600h-546l-548 1520h-188v320z" />
    <glyph glyph-name="x" unicode="x" 
d="M960 320v-320h-880v320h191l480 600l-480 600h-191v320h1040v-320h-209l325 -406l324 406h-240v320h880v-320h-200l-480 -600l480 -600h200v-320h-1040v320h200l-324 406l-325 -406h249z" />
    <glyph glyph-name="y" unicode="y" horiz-adv-x="2320" 
d="M133 -617c-35.333 53.333 -53 112.335 -53 177.002c0 88.667 31.167 164.167 93.5 226.5s137.833 93.5 226.5 93.5s164.167 -31.167 226.5 -93.5s93.5 -137.833 93.5 -226.5c0 -18.667 -1.66699 -36.667 -5 -54c2.66699 -0.666992 5 -1 7 -1c48 0 106.667 79.333 176 238
l75 172l-705 1605h-188v320h1120v-320h-329l317 -720c40.667 -94.667 70 -174.667 88 -240c18 65.333 47.333 145.333 88 240l316 720h-280v320h840v-320h-212l-668 -1520c-34.667 -78.667 -65.834 -146.5 -93.501 -203.5s-58.667 -115 -93 -174
s-67.5 -108.833 -99.5 -149.5s-68.167 -79.334 -108.5 -116.001s-82.166 -65.834 -125.499 -87.501s-91.333 -38.667 -144 -51s-109.334 -18.5 -170.001 -18.5c-56.667 0 -106.667 4.5 -150 13.5s-80.166 22.333 -110.499 40s-55.5 36.667 -75.5 57s-39 44.5 -57 72.5z" />
    <glyph glyph-name="z" unicode="z" horiz-adv-x="1800" 
d="M120 1840h1560v-184l-767 -1176c-25.333 -38.667 -65.666 -92 -120.999 -160h568v480h320v-800h-1600v184l767 1176c26 40 69 93.333 129 160h-536v-480h-320v800z" />
    <glyph glyph-name="braceleft" unicode="{" horiz-adv-x="1480" 
d="M1000 -800c-80 0 -156.333 14.502 -229 43.502s-136.334 69.167 -191.001 120.5s-98.334 114.833 -131.001 190.5s-49 157.5 -49 245.5v760c0 56 -17.5 103.333 -52.5 142s-84.167 58 -147.5 58h-120v320h120c63.333 0 112.5 19.333 147.5 58s52.5 86 52.5 142v760
c0 88 16.333 169.833 49 245.5s76.334 139.167 131.001 190.5s118.334 91.5 191.001 120.5s149 43.5 229 43.5c192 0 325.333 -26.667 400 -80l-88 -272c-21.333 21.333 -72 32 -152 32c-47.333 0 -92.5 -25.167 -135.5 -75.5s-64.5 -105.166 -64.5 -164.499v-760
c0 -116.667 -16.667 -203.834 -50 -261.501s-94.666 -103.834 -183.999 -138.501c89.333 -34.667 150.666 -80.834 183.999 -138.501s50 -144.834 50 -261.501v-760c0 -59.333 21.5 -114.166 64.5 -164.499s88.167 -75.5 135.5 -75.5c80 0 130.667 10.667 152 32l88 -272
c-74.667 -53.333 -208 -80 -400 -80z" />
    <glyph glyph-name="bar" unicode="|" horiz-adv-x="600" 
d="M460 -800h-320v3440h320v-3440z" />
    <glyph glyph-name="braceright" unicode="}" horiz-adv-x="1480" 
d="M480 2640c80 0 156.333 -14.5029 229 -43.5029s136.334 -69.167 191.001 -120.5s98.334 -114.833 131.001 -190.5s49 -157.5 49 -245.5v-760c0 -56 17.5 -103.333 52.5 -142s84.167 -58 147.5 -58h120v-320h-120c-63.333 0 -112.5 -19.333 -147.5 -58
s-52.5 -86 -52.5 -142v-760c0 -88 -16.333 -169.833 -49 -245.5s-76.334 -139.167 -131.001 -190.5s-118.334 -91.5 -191.001 -120.5s-149 -43.5 -229 -43.5c-192 0 -325.333 26.667 -400 80l88 272c21.333 -21.333 72 -32 152 -32c47.333 0 92.5 25.167 135.5 75.5
s64.5 105.166 64.5 164.499v760c0 116.667 16.667 203.834 50 261.501s94.666 103.834 183.999 138.501c-89.333 34.667 -150.666 80.834 -183.999 138.501s-50 144.834 -50 261.501v760c0 59.333 -21.5 114.166 -64.5 164.5c-43 50.333 -88.167 75.5 -135.5 75.5
c-80 0 -130.667 -10.667 -152 -32l-88 272c74.667 53.333 208 80 400 80z" />
    <glyph glyph-name="asciitilde" unicode="~" horiz-adv-x="1736" 
d="M480 1272c34.667 0 69 -4.33301 103 -13s63 -18.167 87 -28.5s52 -26.5 84 -48.5s55.833 -39.333 71.5 -52l71.5 -60c68.667 -58 116.334 -92.667 143.001 -104c15.333 -7.33301 27.333 -9.66602 36 -6.99902c6.66699 1.33301 13.334 6 20.001 14v11
c0 77.333 27.333 143.333 82 198s120.667 82 198 82s143.333 -27.333 198 -82s82 -120.667 82 -198c0 -112 -34.333 -200 -103 -264s-167.667 -96 -297 -96c-34.667 0 -69 4.33301 -103 13s-63 18.167 -87 28.5s-52 26.5 -84 48.5s-55.833 39.333 -71.5 52l-71.5 60
c-68.667 58 -116.334 92.667 -143.001 104c-15.333 7.33301 -27.333 9.66602 -36 6.99902c-6.66699 -1.33301 -13.334 -6 -20.001 -14v-11c0 -77.333 -27.333 -143.333 -82 -198s-120.667 -82 -198 -82s-143.333 27.333 -198 82s-82 120.667 -82 198
c0 112 34.333 200 103 264s167.667 96 297 96z" />
    <glyph glyph-name="uni00A0" unicode="&#xa0;" horiz-adv-x="1080" 
 />
    <glyph glyph-name="exclamdown" unicode="&#xa1;" horiz-adv-x="800" 
d="M720 1540c0 -88.667 -31.167 -164.167 -93.5 -226.5s-137.833 -93.5 -226.5 -93.5s-164.167 31.167 -226.5 93.5s-93.5 137.833 -93.5 226.5s31.167 164.167 93.5 226.5s137.833 93.5 226.5 93.5s164.167 -31.167 226.5 -93.5s93.5 -137.833 93.5 -226.5zM400 -720
c-88.667 0 -164.167 31.167 -226.5 93.5s-93.5 137.833 -93.5 226.5c0 141.333 25 338.833 75 592.5s103.667 482.834 161 687.501h168c57.333 -204.667 111 -433.834 161 -687.501s75 -451.167 75 -592.5c0 -88.667 -31.167 -164.167 -93.5 -226.5
s-137.833 -93.5 -226.5 -93.5z" />
    <glyph glyph-name="cent" unicode="&#xa2;" horiz-adv-x="2034" 
d="M900 1869l0.000976562 371.003h320v-371c79.333 -11.333 153 -30.5 221 -57.5s128.833 -61 182.5 -102s101.5 -85.667 143.5 -134s80.667 -102.5 116 -162.5c34 -52.667 51 -110.334 51 -173.001c0 -88.667 -31.167 -164.167 -93.5 -226.5s-137.833 -93.5 -226.5 -93.5
s-164.167 31.167 -226.5 93.5s-93.5 137.833 -93.5 226.5c0 49.333 10.5 95.666 31.5 138.999s49.833 80 86.5 110c-54.667 34 -118.667 55.667 -192 65v-1259c78 6.66699 145.333 24.167 202 52.5s103.334 64.666 140.001 108.999s69 100.5 97 168.5l266 -92
c-26 -71.333 -60.333 -137.666 -103 -198.999s-93 -117 -151 -167s-125.5 -91.833 -202.5 -125.5s-159.833 -57.167 -248.5 -70.5v-371h-320v372c-113.333 16.667 -218.833 51.334 -316.5 104.001s-182.334 119.167 -254.001 199.5s-127.834 176 -168.501 287
s-61 230.167 -61 357.5c0 128 20.333 247.667 61 359s96.667 207.166 168 287.499s155.833 146.666 253.5 198.999s203.5 86.833 317.5 103.5zM900.001 362.003v1133c-137.333 -96 -206 -287.667 -206 -575c0 -275.333 68.667 -461.333 206 -558z" />
    <glyph glyph-name="sterling" unicode="&#xa3;" horiz-adv-x="2360" 
d="M1400 1200l-86.0039 -320.001h-356c-46 -106.667 -108 -211.334 -186 -314.001c146 49.333 302 74 468 74c63.333 0 124 -8.33301 182 -25s104.167 -35 138.5 -55s69.833 -38.333 106.5 -55s67.667 -25 93 -25c30 0 53.667 1 71 3s34.5 6.66699 51.5 14
s29.667 17.666 38 30.999s16 32.333 23 57s11.5 54 13.5 88s3 76.333 3 127h320c0 -90 -2 -167.833 -6 -233.5s-10.667 -127.834 -20 -186.501s-22.666 -107.667 -39.999 -147s-38.833 -74.833 -64.5 -106.5s-57.167 -56.167 -94.5 -73.5s-79.833 -30.5 -127.5 -39.5
s-103.5 -13.5 -167.5 -13.5c-74 0 -140.667 6.83301 -200 20.5s-108.5 30.334 -147.5 50.001s-76.167 39.334 -111.5 59.001s-75 36.334 -119 50.001s-91.333 20.5 -142 20.5c-313.333 0 -566.666 -66.667 -759.999 -200l-160 320c124 82.667 215 167.5 273 254.5
s87 188.833 87 305.5h-400l86 320h274c-3.33301 16 -9.33301 41.833 -18 77.5l-20 82.5h-322l86 320h195c-0.666992 13.333 -1 26.666 -1 39.999c0 120.667 23.833 231.167 71.5 331.5s113.834 184.666 198.501 253c84.667 68.333 186 121.333 304 159
s246.667 56.5 386 56.5c61.333 0 124.833 -6.16699 190.5 -18.5s131.5 -30.5 197.5 -54.5s128.333 -55.333 187 -94s110.834 -82.334 156.501 -131c45.667 -48.667 81.834 -105.834 108.5 -171.5c26.667 -65.667 40 -135.834 40 -210.501
c0 -88.667 -31.167 -164.167 -93.5 -226.5s-137.833 -93.5 -226.5 -93.5s-164.167 31.167 -226.5 93.5s-93.5 137.833 -93.5 226.5c0 60.667 15.5 116.334 46.5 167.001s72.5 89.334 124.5 116.001c-78 51.333 -175 77 -291 77c-51.333 0 -102.5 -10.333 -153.5 -31
s-98 -50.167 -141 -88.5s-78 -88.833 -105 -151.5s-40.5 -132.334 -40.5 -209.001c0 -13.333 0.333008 -26.666 1 -39.999h399l-86 -320h-281c4.66699 -43.333 7 -83.333 7 -120c0 -13.333 -0.333008 -26.666 -1 -39.999h361z" />
    <glyph glyph-name="currency" unicode="&#xa4;" horiz-adv-x="2368" 
d="M80 1984c0 66.667 23.3359 123.334 70.0029 170c46.667 46.667 103.334 70 170.001 70s123.334 -23.333 170.001 -70c26.667 -26.667 48 -54.334 64 -83c16 -28.667 27.333 -56.334 34 -83.001l19.5 -79.5c6.33301 -26.333 16.666 -55.5 30.999 -87.5
s33.5 -63.333 57.5 -94c68.667 52.667 144.5 93.5 227.5 122.5s169.833 43.5 260.5 43.5s177.5 -14.5 260.5 -43.5s158.833 -69.833 227.5 -122.5c24 30.667 43.167 62 57.5 94s24.666 61.167 30.999 87.5l19.5 79.5c6.66699 26.667 18 54.334 34 83.001
s37.333 56.334 64 83c46.667 46.667 103.334 70 170.001 70s123.334 -23.333 170 -70c46.667 -46.667 70 -103.334 70 -170c0 -66.667 -23.333 -123.334 -70 -170.001c-26.667 -26.667 -54.334 -47.834 -83 -63.501c-28.667 -15.667 -56.167 -27 -82.5 -34
s-52.5 -13.5 -78.5 -19.5s-55 -16 -87 -30s-63 -32.667 -93 -56c60.667 -71.333 107.5 -151.166 140.5 -239.499s49.5 -181.166 49.5 -278.499c0 -89.333 -14.167 -175.166 -42.5 -257.499s-68.5 -157.833 -120.5 -226.5c27.333 -18 55.833 -32.667 85.5 -44
s56.667 -19.833 81 -25.5s49 -12 74 -19s51 -18.167 78 -33.5s53.167 -35.666 78.5 -60.999c46.667 -46.667 70 -103.334 70 -170.001s-23.333 -123.334 -70 -170.001s-103.334 -70 -170 -70c-66.667 0 -123.334 23.333 -170.001 70
c-25.333 25.333 -45.666 51.333 -60.999 78s-26.5 52.334 -33.5 77.001s-13.167 49.167 -18.5 73.5s-13.5 51.166 -24.5 80.499s-25.5 57.333 -43.5 84c-70.667 -59.333 -149.834 -105.166 -237.501 -137.499s-179.5 -48.5 -275.5 -48.5s-187.833 16.167 -275.5 48.5
s-166.834 78.166 -237.501 137.499c-18 -26.667 -32.5 -54.667 -43.5 -84s-19.167 -56.166 -24.5 -80.499s-11.5 -48.833 -18.5 -73.5s-18.167 -50.334 -33.5 -77.001s-35.666 -52.667 -60.999 -78c-46.667 -46.667 -103.334 -70 -170.001 -70s-123.334 23.333 -170.001 70
s-70 103.334 -70 170.001s23.333 123.334 70 170.001c25.333 25.333 51.5 45.666 78.5 60.999s53 26.5 78 33.5s49.667 13.333 74 19s51.333 14.167 81 25.5s58.167 26 85.5 44c-52 68.667 -92.167 144.167 -120.5 226.5s-42.5 168.166 -42.5 257.499
c0 97.333 16.5 190.166 49.5 278.499s79.833 168.166 140.5 239.499c-30 23.333 -61 42 -93 56s-61 24 -87 30s-52.167 12.5 -78.5 19.5s-53.833 18.333 -82.5 34s-56.334 36.834 -83.001 63.501c-46.667 46.667 -70 103.334 -70 170.001zM1184 1573
c-86.667 0 -166.834 -21.5 -240.501 -64.5s-132 -101.333 -175 -175s-64.5 -153.834 -64.5 -240.501s21.5 -166.834 64.5 -240.501s101.333 -132 175 -175s153.834 -64.5 240.501 -64.5s166.834 21.5 240.501 64.5s132 101.333 175 175s64.5 153.834 64.5 240.501
s-21.5 166.834 -64.5 240.501s-101.333 132 -175 175s-153.834 64.5 -240.501 64.5z" />
    <glyph glyph-name="yen" unicode="&#xa5;" horiz-adv-x="2840" 
d="M2255 840l-86 -320h-453v-200h320v-320h-1280v320h320v200h-581l85 320h496v160h-581l85 320h351l-611 840h-240v320h1280v-320h-249l486 -669l487 669h-404v320h1080v-320h-280l-611 -840h386l-86 -320h-453v-160h539z" />
    <glyph glyph-name="brokenbar" unicode="&#xa6;" horiz-adv-x="600" 
d="M460 -800h-320v1520h320v-1520zM460 1120h-320v1520h320v-1520z" />
    <glyph glyph-name="section" unicode="&#xa7;" horiz-adv-x="2200" 
d="M1360 -280c0 28.667 -5 54.6621 -15 77.9951s-25.5 43.333 -46.5 60s-43.333 31.334 -67 44.001s-53.167 24.334 -88.5 35.001s-68 20 -98 28l-109.5 28.5c-43 11 -79.833 21.167 -110.5 30.5c-108.667 33.333 -207.5 76 -296.5 128s-167.333 113.167 -235 183.5
s-120.167 151.833 -157.5 244.5s-56 192.667 -56 300c0 166.667 40.667 320.834 122 462.501s200.333 258.167 357 349.5c-132.667 86.667 -199 216 -199 388c0 66.667 8 127.334 24 182c16 54.667 37.333 101.167 64 139.5s60.334 71.833 101.001 100.5
s83.167 51.667 127.5 69s94.333 31.333 150 42s109.5 17.834 161.5 21.501s108.667 5.5 170 5.5c133.333 0 249.833 -17 349.5 -51s178.167 -79.667 235.5 -137c30.667 -26 54.5 -57.5 71.5 -94.5s25.5 -76.167 25.5 -117.5c0 -77.333 -27.333 -143.333 -82 -198
s-120.667 -82 -198 -82s-143.333 27.333 -198 82s-82 120.667 -82 198c0 28 4 55 12 81c-38 26 -95.333 39 -172 39c-94 0 -164.167 -11.333 -210.5 -34s-69.5 -64.667 -69.5 -126c0 -29.333 6 -56.333 18 -81s27.333 -45.667 46 -63s43.334 -33.666 74.001 -48.999
s61 -28.166 91 -38.499s65.667 -21.166 107 -32.499c140 -38 267.333 -85.167 382 -141.5s214 -120.5 298 -192.5s149 -152.5 195 -241.5s69 -182.5 69 -280.5c0 -392 -153.667 -683.667 -461 -875c147.333 -92 221 -227 221 -405c0 -93.333 -15.5 -175.5 -46.5 -246.5
s-72.333 -128.5 -124 -172.5s-115.834 -79.833 -192.501 -107.5s-156.334 -46.834 -239.001 -57.501s-174.667 -16 -276 -16c-204.667 0 -369.5 39 -494.5 117s-187.5 185.667 -187.5 323c0 77.333 27.333 143.333 82 198s120.667 82 198 82s143.333 -27.333 198 -82
s82 -120.667 82 -198c0 -28 -4 -55 -12 -81c38 -26 95.333 -39 172 -39c68.667 0 124.5 4 167.5 12s75.5 21.167 97.5 39.5s36.667 38.666 44 60.999s11 51.5 11 87.5zM1297 343.995c56 46.667 104.329 106.168 144.996 178.501s70.5 145.666 89.5 219.999
s28.5 146.833 28.5 217.5c0 40 -7.5 80.833 -22.5 122.5s-39.667 85.167 -74 130.5s-76.666 88.666 -126.999 129.999s-113.666 81.5 -189.999 120.5s-161.5 72.833 -255.5 101.5c-74 -66 -134.333 -150.667 -181 -254s-70 -207 -70 -311c0 -82.667 8.5 -155 25.5 -217
s45.833 -119.167 86.5 -171.5s95.834 -97.666 165.501 -135.999s155.834 -71.5 258.501 -99.5l66 -17.5c28.667 -7.66699 47 -12.5 55 -14.5z" />
    <glyph glyph-name="dieresis" unicode="&#xa8;" horiz-adv-x="1760" 
d="M400 2640c88.667 0 164.167 -31.167 226.5 -93.5s93.5 -137.833 93.5 -226.5s-31.167 -164.167 -93.5 -226.5s-137.833 -93.5 -226.5 -93.5s-164.167 31.167 -226.5 93.5s-93.5 137.833 -93.5 226.5s31.167 164.167 93.5 226.5s137.833 93.5 226.5 93.5zM1360 2640
c88.667 0 164.167 -31.167 226.5 -93.5s93.5 -137.833 93.5 -226.5s-31.167 -164.167 -93.5 -226.5s-137.833 -93.5 -226.5 -93.5s-164.167 31.167 -226.5 93.5s-93.5 137.833 -93.5 226.5s31.167 164.167 93.5 226.5s137.833 93.5 226.5 93.5z" />
    <glyph glyph-name="copyright" unicode="&#xa9;" horiz-adv-x="3280" 
d="M1640 2160c-112.667 0 -222.667 -14.833 -330 -44.5s-206.333 -71 -297 -124s-174.167 -117.667 -250.5 -194s-141 -159.833 -194 -250.5s-94.333 -189.667 -124 -297s-44.5 -217.333 -44.5 -330s14.833 -222.667 44.5 -330s71 -206.333 124 -297
s117.667 -174.167 194 -250.5s159.833 -141 250.5 -194s189.667 -94.333 297 -124s217.333 -44.5 330 -44.5s222.667 14.833 330 44.5s206.333 71 297 124s174.167 117.667 250.5 194s141 159.833 194 250.5s94.333 189.667 124 297s44.5 217.333 44.5 330
s-14.833 222.667 -44.5 330s-71 206.333 -124 297s-117.667 174.167 -194 250.5s-159.833 141 -250.5 194s-189.667 94.333 -297 124s-217.333 44.5 -330 44.5zM1640 2480c142 0 280.5 -18.667 415.5 -56s259.5 -89.333 373.5 -156s219 -148 315 -244s177.333 -201 244 -315
s118.667 -238.5 156 -373.5s56 -273.5 56 -415.5s-18.667 -280.5 -56 -415.5s-89.333 -259.5 -156 -373.5s-148 -219 -244 -315s-201 -177.333 -315 -244s-238.5 -118.667 -373.5 -156s-273.5 -56 -415.5 -56s-280.5 18.667 -415.5 56s-259.5 89.333 -373.5 156
s-219 148 -315 244s-177.333 201 -244 315s-118.667 238.5 -156 373.5s-56 273.5 -56 415.5s18.667 280.5 56 415.5s89.333 259.5 156 373.5s148 219 244 315s201 177.333 315 244s238.5 118.667 373.5 156s273.5 56 415.5 56zM2009 1448
c-26 40.667 -60.502 69.5 -103.502 86.5s-104.833 25.5 -185.5 25.5c-48 0 -93.833 -6.5 -137.5 -19.5s-86.667 -35.167 -129 -66.5s-79 -70.833 -110 -118.5s-56 -108.834 -75 -183.501s-28.5 -158.667 -28.5 -252s10.167 -177 30.5 -251s46.666 -134 78.999 -180
s70.833 -84.333 115.5 -115s89.334 -52 134.001 -64s91 -18 139 -18c70.667 0 134.667 10.667 192 32s104.833 50.5 142.5 87.5s68.167 78 91.5 123s40.333 93.5 51 145.5l280 -80c-16 -64.667 -40.5 -127.834 -73.5 -189.501s-74.833 -119.667 -125.5 -174
s-107.5 -102 -170.5 -143s-135 -73.5 -216 -97.5s-165.5 -36 -253.5 -36c-131.333 0 -252.333 23 -363 69s-205.167 110.333 -283.5 193s-139.5 183.834 -183.5 303.501s-66 251.167 -66 394.5c0 190.667 37.333 358.834 112 504.501s179.334 258 314.001 337
s289.334 118.5 464.001 118.5c144 0 276.167 -24.167 396.5 -72.5s221.333 -117.5 303 -207.5s138.834 -195.667 171.5 -317c7.33301 -28 11 -55.667 11 -83c0 -88.667 -31.167 -164.167 -93.5 -226.5s-137.833 -93.5 -226.5 -93.5s-164.167 31.167 -226.5 93.5
s-93.5 137.833 -93.5 226.5c0 49.333 10.5 95.5 31.5 138.5s49.5 79.5 85.5 109.5z" />
    <glyph glyph-name="ordfeminine" unicode="&#xaa;" horiz-adv-x="1840" 
d="M1680 1845l0.00195312 -644.999h80v-320h-463l-93 217c-32 -50.667 -65.333 -92.5 -100 -125.5s-74.834 -59.333 -120.501 -79s-95.334 -33.334 -149.001 -41.001s-118.5 -11.5 -194.5 -11.5c-81.333 0 -155.666 10.333 -222.999 31s-126.333 51 -177 91
s-90 92.167 -118 156.5s-42 137.833 -42 220.5c0 73.333 14 137.5 42 192.5s67.5 99 118.5 132s109.833 57.5 176.5 73.5s141 24 223 24c126 0 229.667 -12.833 311 -38.5s151 -66.5 209 -122.5v304c0 62 -4.33301 111.833 -13 149.5s-24.5 67.667 -47.5 90
s-51.333 37.333 -85 45s-78.5 11.5 -134.5 11.5c-50.667 0 -93 -6.33301 -127 -19c4.66699 -20 7 -40.333 7 -61c0 -78 -27.667 -144.667 -83 -200s-122 -83 -200 -83s-144.667 27.667 -200 83s-83 122 -83 200s27.667 144.667 83 200
c67.333 67.333 153.166 117.5 257.499 150.5s248.833 49.5 433.5 49.5c221.333 0 395.333 -61.167 522 -183.5s190 -286.166 190 -491.5zM892.002 1516c-85.333 0 -148.668 -14.5 -190.001 -43.5s-62 -73.5 -62 -133.5c0 -71.333 18.167 -125.333 54.5 -162
s95.5 -55 177.5 -55c50 0 101.833 17.333 155.5 52s97.834 74.667 132.501 120v79c-36 39.333 -79 73 -129 101s-96.333 42 -139 42z" />
    <glyph glyph-name="guillemotleft" unicode="&#xab;" horiz-adv-x="2080" 
d="M80 1160l880 440v-560l-560 -120l560 -120v-560l-880 440v480zM1120 1160l880 440v-560l-560 -120l560 -120v-560l-880 440v480z" />
    <glyph glyph-name="logicalnot" unicode="&#xac;" horiz-adv-x="1680" 
d="M80 1600h1520v-720h-320v400h-1200v320z" />
    <glyph glyph-name="uni00AD" unicode="&#xad;" horiz-adv-x="1240" 
d="M80 800v320h1080v-320h-1080z" />
    <glyph glyph-name="registered" unicode="&#xae;" horiz-adv-x="3280" 
d="M1640 2160c-112.667 0 -222.667 -14.833 -330 -44.5s-206.333 -71 -297 -124s-174.167 -117.667 -250.5 -194s-141 -159.833 -194 -250.5s-94.333 -189.667 -124 -297s-44.5 -217.333 -44.5 -330s14.833 -222.667 44.5 -330s71 -206.333 124 -297
s117.667 -174.167 194 -250.5s159.833 -141 250.5 -194s189.667 -94.333 297 -124s217.333 -44.5 330 -44.5s222.667 14.833 330 44.5s206.333 71 297 124s174.167 117.667 250.5 194s141 159.833 194 250.5s94.333 189.667 124 297s44.5 217.333 44.5 330
s-14.833 222.667 -44.5 330s-71 206.333 -124 297s-117.667 174.167 -194 250.5s-159.833 141 -250.5 194s-189.667 94.333 -297 124s-217.333 44.5 -330 44.5zM1640 2480c142 0 280.5 -18.667 415.5 -56s259.5 -89.333 373.5 -156s219 -148 315 -244s177.333 -201 244 -315
s118.667 -238.5 156 -373.5s56 -273.5 56 -415.5s-18.667 -280.5 -56 -415.5s-89.333 -259.5 -156 -373.5s-148 -219 -244 -315s-201 -177.333 -315 -244s-238.5 -118.667 -373.5 -156s-273.5 -56 -415.5 -56s-280.5 18.667 -415.5 56s-259.5 89.333 -373.5 156
s-219 148 -315 244s-177.333 201 -244 315s-118.667 238.5 -156 373.5s-56 273.5 -56 415.5s18.667 280.5 56 415.5s89.333 259.5 156 373.5s148 219 244 315s201 177.333 315 244s238.5 118.667 373.5 156s273.5 56 415.5 56zM1992 796
c68 -72 108.002 -177.331 120.002 -315.998c4.66699 -61.333 15.334 -110 32 -146c16.667 -36 35.334 -54 56 -54c18 0 29.167 13.333 33.5 40s6.5 66.667 6.5 120v120h280v-120c0 -43.333 -3.83301 -85.833 -11.5 -127.5s-21.167 -84.167 -40.5 -127.5
s-43.833 -81.333 -73.5 -114s-68.834 -59.334 -117.5 -80.001c-48.667 -20.667 -103.667 -31 -165 -31s-112.833 2.5 -154.5 7.5s-79.5 14.667 -113.5 29s-61.333 32 -82 53s-39.334 50.5 -56.001 88.5s-29.667 80.333 -39 127s-18.333 105 -27 175
c-6.66699 58 -15.334 106 -26.001 144s-23.667 66.667 -39 86s-30.833 32.5 -46.5 39.5s-34.5 10.5 -56.5 10.5h-30l-2 -400h80v-320h-680v320h120v1200h-120v320h760c100.667 0 191 -5.66699 271 -17s147.667 -26.5 203 -45.5s103 -43.5 143 -73.5s71.667 -60.833 95 -92.5
s41.666 -69.334 55 -113.001c13.333 -43.667 22.166 -85 26.5 -124c4.33301 -39 6.5 -83.833 6.5 -134.5c0 -126.667 -31.833 -225.167 -95.5 -295.5s-167.834 -119.833 -312.5 -148.5zM1444 1040l155.998 0.00195312c48.667 0 89 1.16699 121 3.5s60.667 7.16602 86 14.499
s44.833 16.166 58.5 26.499s24.834 25.166 33.501 44.499s14.334 40.5 17.001 63.5s4 52.167 4 87.5c0 50.667 -5.16699 91.334 -15.5 122.001s-28.833 55 -55.5 73s-59 30 -97 36s-88.667 9 -152 9h-154z" />
    <glyph glyph-name="macron" unicode="&#xaf;" horiz-adv-x="1240" 
d="M80 2080v320h1080v-320h-1080z" />
    <glyph glyph-name="degree" unicode="&#xb0;" horiz-adv-x="1520" 
d="M760 2520c74.667 0 144.5 -7.16699 209.5 -21.5s126.667 -38.166 185 -71.5c58.333 -33.333 108.333 -75.5 150 -126.5s74.667 -115.667 99 -194s36.5 -167.166 36.5 -266.499s-12.167 -188.166 -36.5 -266.499s-57.333 -143 -99 -194s-91.667 -93.167 -150 -126.5
s-120 -57.166 -185 -71.499s-134.833 -21.5 -209.5 -21.5s-144.5 7.16699 -209.5 21.5s-126.667 38.166 -185 71.499s-108.333 75.5 -150 126.5s-74.667 115.667 -99 194s-36.5 167.166 -36.5 266.499s12.167 188.166 36.5 266.499s57.333 143 99 194
s91.667 93.167 150 126.5s120 57.166 185 71.5c65 14.333 134.833 21.5 209.5 21.5zM760 2200c-26 0 -48.5 -2.83301 -67.5 -8.5s-37.167 -16.334 -54.5 -32c-17.333 -15.667 -31.5 -36.667 -42.5 -63s-19.667 -61 -26 -104s-9.5 -93.833 -9.5 -152.5
s3.16699 -109.5 9.5 -152.5s15 -77.667 26 -104s25.167 -47.333 42.5 -63s35.5 -26.334 54.5 -32.001s41.5 -8.5 67.5 -8.5s48.5 2.83301 67.5 8.5s37.167 16.334 54.5 32.001s31.5 36.667 42.5 63s19.667 61 26 104s9.5 93.833 9.5 152.5s-3.16699 109.5 -9.5 152.5
s-15 77.667 -26 104s-25.167 47.333 -42.5 63s-35.5 26.334 -54.5 32c-19 5.66699 -41.5 8.5 -67.5 8.5z" />
    <glyph glyph-name="plusminus" unicode="&#xb1;" horiz-adv-x="1680" 
d="M680 2240h320v-600h600v-320h-600v-600h-320v600h-600v320h600v600zM80 560h1520v-320h-1520v320z" />
    <glyph glyph-name="uni00B2" unicode="&#xb2;" horiz-adv-x="1760" 
d="M587 2324c35.333 -48.667 53.001 -103.332 53.001 -163.999c0 -77.333 -27.333 -143.333 -82 -198s-120.667 -82 -198 -82s-143.333 27.333 -198 82s-82 120.667 -82 198.001c0 91.333 31.5 177.166 94.5 257.5c63 80.333 146.833 144.166 251.5 191.499s216 71 334 71
c118.667 0 222.5 -3.5 311.5 -10.5s168.333 -18.5 238 -34.5s127.5 -36 173.5 -60s84 -54.167 114 -90.5s51.333 -77.5 64 -123.5s19 -99.667 19 -161c0 -44.667 -11.333 -89 -34 -133s-52.667 -84.167 -90 -120.5s-81.833 -72.5 -133.5 -108.5s-104.5 -68.667 -158.5 -98
s-110.833 -58.666 -170.5 -87.999l-165.5 -78.5c-50.667 -23 -99.834 -46.5 -147.501 -70.5s-84.834 -45 -111.501 -63h651v240h360v-640h-1600c0 60.667 5 118.667 15 174s23 105.166 39 149.499s37.333 87.166 64 128.499s53.167 77.666 79.5 108.999s59 62.666 98 93.999
s74.667 57.833 107 79.5s71.333 44.834 117 69.501s85.167 44.834 118.5 60.501l122 55.5c74 33.333 139.167 72.333 195.5 117s84.5 85.667 84.5 123c0 41.333 -10.167 73.166 -30.5 95.5c-20.333 22.333 -56.166 38.666 -107.499 49
c-51.333 10.333 -125.333 15.5 -222 15.5c-60 0 -117.667 -12 -173 -36z" />
    <glyph glyph-name="uni00B3" unicode="&#xb3;" horiz-adv-x="1840" 
d="M593 1365c61.333 -30 157.003 -44.998 287.003 -44.998c54 0 99.167 3.16699 135.5 9.5s69.166 18 98.499 35s51 41.667 65 74s21 72.833 21 121.5c0 28.667 -6 51.167 -18 67.5s-35.667 29.166 -71 38.499s-85.666 14 -150.999 14h-200v160v40v120h200
c28 0 52.667 1.66699 74 5s39 7.33301 53 12s25.833 11.667 35.5 21s17 17.666 22 24.999s8.66699 17.666 11 31c2.33301 13.333 3.66602 23.833 3.99902 31.5s0.5 19.167 0.5 34.5c0 78 -20.833 130.833 -62.5 158.5s-114.167 41.5 -217.5 41.5c-122 0 -204 -15 -246 -45
c30.667 -46.667 46 -98.334 46 -155.001c0 -77.333 -27.333 -143.333 -82 -198s-120.667 -82 -198 -82s-143.333 27.333 -198 82s-82 120.667 -82 198.001c0 58.667 8.5 112.667 25.5 162s45.833 96.5 86.5 141.5s92.5 83.167 155.5 114.5s143 56.166 240 74.499
s207.833 27.5 332.5 27.5c108.667 0 206.5 -9 293.5 -27s159.167 -42.167 216.5 -72.5s105.166 -66.333 143.499 -108s65.666 -85 81.999 -130s24.5 -92.5 24.5 -142.5v-2v-1v-2v-1v-2v-1v-2v-1v-2v-1v-2l-1 -1v-2v-1v-2v-1v-2v-1v-1v-2l-1 -1v-2v-1v-1v-2v-1l-1 -2v-1v-1
v-2v-1l-1 -1v-2v-1v-1l-1 -2v-1v-1v-2l-1 -1v-1v-1v-2l-1 -1v-1v-2l-1 -1v-1v-1v-2l-1 -1v-1v-1l-1 -2v-1v-1l-1 -1v-1c-27.333 -94 -100 -166.667 -218 -218c-32 -14 -66.333 -25.667 -103 -35c163.333 -20 271.333 -69.667 324 -149l1 -1v-1l1 -1v-1h1v-1l1 -1v-1l1 -1
l1 -1v-1l1 -1v-1l1 -1v-1l1 -1v-1l1 -1v-1h1v-1l1 -1v-1v-1h1v-1l1 -1v-1l1 -1v-1v-1h1v-1l1 -1v-1v-1l1 -1l1 -1v-1v-1l1 -1v-1v-1h1v-1l1 -1v-1v-1l1 -1v-1l1 -1v-1v-1l1 -1v-1v-1h1v-1v-1l1 -1v-1v-1l1 -1v-1v-1l1 -1v-1v-1l1 -1v-1v-1l1 -1v-1v-1l1 -1v-1v-1v-1l1 -1v-1
v-1l1 -1v-1v-1v-1l1 -1v-1v-1l1 -1v-1v-1v-1v-1l1 -1v-1v-1v-1v-1h1v-1v-1v-1v-1l1 -1v-1v-1v-1v-1l1 -1v-1v-1v-1v-1l1 -1v-1v-1v-1v-1v-1l1 -1v-1v-1v-1v-1v-1l1 -1v-1v-1v-1v-1v-1v-1l1 -1v-1v-1v-1v-1v-1v-1v-1h1v-1v-1v-1v-1v-1v-1v-1v-1v-1l1 -1v-1v-1v-1v-1v-1v-1v-1
v-1v-1v-1v-1v-1l1 -1v-1v-1v-1v-1v-1v-1v-1v-1v-1v-1v-1v-1v-1v-1v-1v-1l1 -1v-1v-1v-1v-1v-1v-1v-1v-1v-1v-1v-1v-1v-1v-1v-1v-1v-1v-1v-1v-1v-1v-1v-1v-1v-1v-1c0 -66 -8.5 -125.167 -25.5 -177.5s-44.833 -100.166 -83.5 -143.499s-88.667 -79.5 -150 -108.5
s-137.333 -51.333 -228 -67s-195 -23.5 -313 -23.5c-136 0 -255.833 9.16699 -359.5 27.5s-188 43 -253 74s-118 69.333 -159 115s-69.333 92.834 -85 141.501s-23.5 102.667 -23.5 162c0 77.333 27.333 143.333 82 198s120.667 82 198 82s143.333 -27.333 198 -82
s82 -120.667 82 -198c0 -56.667 -15.667 -108.334 -47 -155.001z" />
    <glyph glyph-name="acute" unicode="&#xb4;" horiz-adv-x="1060" 
d="M99 2091l479.999 480c46 46 101.333 69 166 69s120 -23 166 -69s69 -101.333 69 -166c0 -53.333 -16.167 -101 -48.5 -143s-74.166 -70 -125.499 -84l-656 -176c-5.33301 -1.33301 -10 -2 -14 -2c-14.667 0 -27.167 5.16699 -37.5 15.5s-15.5 22.833 -15.5 37.5
s5.33301 27.334 16 38z" />
    <glyph glyph-name="mu" unicode="&#xb5;" 
d="M80 1840l760.003 -0.000976562v-1040c0 -158 24.333 -277.5 73 -358.5s117.667 -121.5 207 -121.5c56 0 118.167 29.333 186.5 88s111.5 119 129.5 181l4 931h-200v320h760v-1520h200v-320h-621l-99 160c-22.667 -34 -43.834 -61.667 -63.501 -83
s-44.834 -41.666 -75.501 -60.999s-67.334 -33.5 -110.001 -42.5s-93 -13.5 -151 -13.5c-104 0 -184 16.667 -240 50v-330h200v-320h-960v320h200v1840h-200v320z" />
    <glyph glyph-name="paragraph" unicode="&#xb6;" horiz-adv-x="2320" 
d="M1040 2480h1200v-320h-240v-2800h-320v2800h-240v-2800h-320v1280h-80c-138.667 0 -267.334 21.833 -386.001 65.5s-220.167 105 -304.5 184s-150.333 176 -198 291s-71.5 241.5 -71.5 379.5s23.833 264.5 71.5 379.5s113.667 212 198 291s185.833 140.333 304.5 184
s247.334 65.5 386.001 65.5z" />
    <glyph glyph-name="periodcentered" unicode="&#xb7;" horiz-adv-x="800" 
d="M400 1240c88.667 0 164.167 -31.167 226.5 -93.5s93.5 -137.833 93.5 -226.5s-31.167 -164.167 -93.5 -226.5s-137.833 -93.5 -226.5 -93.5s-164.167 31.167 -226.5 93.5s-93.5 137.833 -93.5 226.5s31.167 164.167 93.5 226.5s137.833 93.5 226.5 93.5z" />
    <glyph glyph-name="cedilla" unicode="&#xb8;" horiz-adv-x="1337" 
d="M617 -552c26.667 -5.33301 61.002 -8.00098 103.002 -8.00098c108.667 0 163 40 163 120c0 15.333 -3.33301 31.5 -10 48.5s-17.167 34.167 -31.5 51.5s-35.333 31.666 -63 42.999s-59.834 17 -96.501 17l38 360h200v-160c54.667 -10.667 100.834 -24.167 138.501 -40.5
s72.667 -39.166 105 -68.499s56.5 -68.166 72.5 -116.499s24 -106.5 24 -174.5c0 -96.667 -44 -174.167 -132 -232.5s-210.667 -87.5 -368 -87.5c-104.667 0 -196.834 6.16699 -276.501 18.5s-144.667 29 -195 50s-91.333 47.167 -123 78.5s-53.834 64.166 -66.501 98.499
s-19 72.5 -19 114.5c0 77.333 27.333 143.333 82 198s120.667 82 198 82s143.333 -27.333 198 -82s82 -120.667 82 -198c0 -39.333 -7.66699 -76.666 -23 -111.999z" />
    <glyph glyph-name="uni00B9" unicode="&#xb9;" horiz-adv-x="1360" 
d="M560 2640h400v-1280h320v-320h-1200v320h320v640h-320v320h80c43.333 0 79.5 3.66699 108.5 11s59.333 22.5 91 45.5s63 55.167 94 96.5s66.5 97 106.5 167z" />
    <glyph glyph-name="ordmasculine" unicode="&#xba;" horiz-adv-x="1840" 
d="M920 2520c115.333 0 224.333 -20.333 327 -61s191.834 -97 267.501 -169s135.5 -161 179.5 -267s66 -221.333 66 -346s-22 -240 -66 -346s-103.833 -195 -179.5 -267s-164.834 -128.333 -267.501 -169s-211.667 -61 -327 -61s-224.333 20.333 -327 61
s-191.834 97 -267.501 169s-135.5 161 -179.5 267s-66 221.333 -66 346s22 240 66 346s103.833 195 179.5 267s164.834 128.333 267.501 169s211.667 61 327 61zM920 2200c-60.667 0 -111 -15.665 -151 -46.998s-71.5 -86.333 -94.5 -165s-34.5 -182.334 -34.5 -311.001
s11.5 -232.334 34.5 -311.001s54.5 -133.667 94.5 -165s90.333 -47 151 -47c92 0 161.667 40.5 209 121.5s71 214.833 71 401.5s-23.667 320.5 -71 401.5s-117 121.5 -209 121.5z" />
    <glyph glyph-name="guillemotright" unicode="&#xbb;" horiz-adv-x="2080" 
d="M2000 680l-880 -440v560l560 120l-560 120v560l880 -440v-480zM960 680l-880 -440v560l560 120l-560 120v560l880 -440v-480z" />
    <glyph glyph-name="onequarter" unicode="&#xbc;" horiz-adv-x="3653" 
d="M2613 800h560c-76 -189.333 -184 -361.833 -324 -517.5s-285.333 -276.5 -436 -362.5h480v280c54 36 101.333 79.5 142 130.5s73.334 100.833 98 149.5h240v-560h200v-320h-200v-80h200v-320h-1040v320h360v80h-920v320c142.667 122 270.167 259.833 382.5 413.5
s198.166 309.167 257.5 466.5zM2560 1840h453l-1840 -1840h-453zM560 2640h400v-1280h320v-320h-1200v320h320v640h-320v320h80c43.333 0 79.5 3.66699 108.5 11s59.333 22.5 91 45.5s63 55.167 94 96.5s66.5 97 106.5 167z" />
    <glyph glyph-name="onehalf" unicode="&#xbd;" horiz-adv-x="3813" 
d="M2560 1840h453l-1840 -1840h-453zM560 2640h400v-1280h320v-320h-1200v320h320v640h-320v320h80c43.333 0 79.5 3.66699 108.5 11s59.333 22.5 91 45.5s63 55.167 94 96.5s66.5 97 106.5 167zM2640 484c35.333 -48.667 53 -103.328 53 -163.995
c0 -77.333 -27.333 -143.333 -82 -198s-120.667 -82 -198 -82s-143.333 27.333 -198 82s-82 120.667 -82 198c0 91.333 31.5 177.166 94.5 257.499s146.833 144.166 251.5 191.499s216 71 334 71c118.667 0 222.5 -3.5 311.5 -10.5s168.333 -18.5 238 -34.5
s127.5 -36 173.5 -60s84 -54.167 114 -90.5s51.333 -77.5 64 -123.5s19 -99.667 19 -161c0 -44.667 -11.333 -89 -34 -133s-52.667 -84.167 -90 -120.5s-81.833 -72.5 -133.5 -108.5s-104.5 -68.667 -158.5 -98s-110.833 -58.666 -170.5 -87.999l-165.5 -78.5
c-50.667 -23 -99.834 -46.5 -147.5 -70.5c-47.667 -24 -84.834 -45 -111.5 -63h651v240h360v-640h-1600c0 60.667 5 118.667 15 174s23 105.166 39 149.499s37.333 87.166 64 128.499s53.167 77.666 79.5 108.999s59 62.666 98 93.999s74.667 57.833 107 79.5
s71.333 44.834 117 69.501s85.167 44.834 118.5 60.501l122 55.5c74 33.333 139.167 72.333 195.5 117s84.5 85.667 84.5 123c0 41.333 -10.167 73.166 -30.5 95.499s-56.166 38.666 -107.5 48.999c-51.333 10.333 -125.333 15.5 -222 15.5c-60 0 -117.667 -12 -173 -36z
" />
    <glyph glyph-name="threequarters" unicode="&#xbe;" horiz-adv-x="3813" 
d="M2773 800h560c-76 -189.333 -184 -361.833 -324 -517.5s-285.333 -276.5 -436 -362.5h480v280c54 36 101.333 79.5 142 130.5s73.334 100.833 98 149.5h240v-560h200v-320h-200v-80h200v-320h-1040v320h360v80h-920v320c142.667 122 270.167 259.833 382.5 413.5
s198.166 309.167 257.5 466.5zM2720 1840h453l-1840 -1840h-453zM593 1365c61.333 -30 157.003 -44.998 287.003 -44.998c54 0 99.167 3.16699 135.5 9.5s69.166 18 98.499 35s51 41.667 65 74s21 72.833 21 121.5c0 28.667 -6 51.167 -18 67.5s-35.667 29.166 -71 38.499
s-85.666 14 -150.999 14h-200v160v40v120h200c28 0 52.667 1.66699 74 5s39 7.33301 53 12s25.833 11.667 35.5 21s17 17.666 22 24.999s8.66699 17.666 11 31c2.33301 13.333 3.66602 23.833 3.99902 31.5s0.5 19.167 0.5 34.5c0 78 -20.833 130.833 -62.5 158.5
s-114.167 41.5 -217.5 41.5c-122 0 -204 -15 -246 -45c30.667 -46.667 46 -98.334 46 -155.001c0 -77.333 -27.333 -143.333 -82 -198s-120.667 -82 -198 -82s-143.333 27.333 -198 82s-82 120.667 -82 198.001c0 58.667 8.5 112.667 25.5 162s45.833 96.5 86.5 141.5
s92.5 83.167 155.5 114.5s143 56.166 240 74.499s207.833 27.5 332.5 27.5c108.667 0 206.5 -9 293.5 -27s159.167 -42.167 216.5 -72.5s105.166 -66.333 143.499 -108s65.666 -85 81.999 -130s24.5 -92.5 24.5 -142.5v-2v-1v-2v-1v-2v-1v-2v-1v-2v-1v-2l-1 -1v-2v-1v-2v-1
v-2v-1v-1v-2l-1 -1v-2v-1v-1v-2v-1l-1 -2v-1v-1v-2v-1l-1 -1v-2v-1v-1l-1 -2v-1v-1v-2l-1 -1v-1v-1v-2l-1 -1v-1v-2l-1 -1v-1v-1v-2l-1 -1v-1v-1l-1 -2v-1v-1l-1 -1v-1c-27.333 -94 -100 -166.667 -218 -218c-32 -14 -66.333 -25.667 -103 -35
c163.333 -20 271.333 -69.667 324 -149l1 -1v-1l1 -1v-1h1v-1l1 -1v-1l1 -1l1 -1v-1l1 -1v-1l1 -1v-1l1 -1v-1l1 -1v-1h1v-1l1 -1v-1v-1h1v-1l1 -1v-1l1 -1v-1v-1h1v-1l1 -1v-1v-1l1 -1l1 -1v-1v-1l1 -1v-1v-1h1v-1l1 -1v-1v-1l1 -1v-1l1 -1v-1v-1l1 -1v-1v-1h1v-1v-1l1 -1
v-1v-1l1 -1v-1v-1l1 -1v-1v-1l1 -1v-1v-1l1 -1v-1v-1l1 -1v-1v-1v-1l1 -1v-1v-1l1 -1v-1v-1v-1l1 -1v-1v-1l1 -1v-1v-1v-1v-1l1 -1v-1v-1v-1v-1h1v-1v-1v-1v-1l1 -1v-1v-1v-1v-1l1 -1v-1v-1v-1v-1l1 -1v-1v-1v-1v-1v-1l1 -1v-1v-1v-1v-1v-1l1 -1v-1v-1v-1v-1v-1v-1l1 -1v-1
v-1v-1v-1v-1v-1v-1h1v-1v-1v-1v-1v-1v-1v-1v-1v-1l1 -1v-1v-1v-1v-1v-1v-1v-1v-1v-1v-1v-1v-1l1 -1v-1v-1v-1v-1v-1v-1v-1v-1v-1v-1v-1v-1v-1v-1v-1v-1l1 -1v-1v-1v-1v-1v-1v-1v-1v-1v-1v-1v-1v-1v-1v-1v-1v-1v-1v-1v-1v-1v-1v-1v-1v-1v-1v-1
c0 -66 -8.5 -125.167 -25.5 -177.5s-44.833 -100.166 -83.5 -143.499s-88.667 -79.5 -150 -108.5s-137.333 -51.333 -228 -67s-195 -23.5 -313 -23.5c-136 0 -255.833 9.16699 -359.5 27.5s-188 43 -253 74s-118 69.333 -159 115s-69.333 92.834 -85 141.501
s-23.5 102.667 -23.5 162c0 77.333 27.333 143.333 82 198s120.667 82 198 82s143.333 -27.333 198 -82s82 -120.667 82 -198c0 -56.667 -15.667 -108.334 -47 -155.001z" />
    <glyph glyph-name="questiondown" unicode="&#xbf;" horiz-adv-x="1920" 
d="M1280 1540c0 -88.667 -31.167 -164.167 -93.5 -226.5s-137.833 -93.5 -226.5 -93.5s-164.167 31.167 -226.5 93.5s-93.5 137.833 -93.5 226.5s31.167 164.167 93.5 226.5s137.833 93.5 226.5 93.5s164.167 -31.167 226.5 -93.5s93.5 -137.833 93.5 -226.5zM1400 -297
c-59.333 24 -107.499 63 -144.499 117s-55.5 114 -55.5 180c0 88.667 31.167 164.167 93.5 226.5s137.833 93.5 226.5 93.5s164.167 -31.167 226.5 -93.5s93.5 -137.833 93.5 -226.5c0 -102 -18 -196 -54 -282s-89.333 -161.833 -160 -227.5
s-162.834 -117.167 -276.501 -154.5s-243.5 -56 -389.5 -56c-298.667 0 -520 59.667 -664 179s-216 299.666 -216 540.999c0 68.667 9.16699 132.667 27.5 192s42.833 111 73.5 155s66 84.833 106 122.5s82.167 70.667 126.5 99s88.666 54.833 132.999 79.5l126.5 69.5
c40 21.667 75.333 42.667 106 63s55.167 42.333 73.5 66s27.5 48.167 27.5 73.5h200c36 -60 54 -118.667 54 -176c0 -45.333 -11.167 -91 -33.5 -137s-50.333 -87.667 -84 -125l-109.5 -118l-109.5 -116c-33.667 -36 -61.667 -75.833 -84 -119.5s-33.5 -86.5 -33.5 -128.5
c0 -52 8 -101.167 24 -147.5s39.5 -88.666 70.5 -126.999s72.833 -68.833 125.5 -91.5s112.667 -34 180 -34c134.667 0 241.334 34.333 320.001 103z" />
    <glyph glyph-name="Agrave" unicode="&#xc0;" horiz-adv-x="2960" 
d="M1821 2731c10.667 -10.667 15.999 -23.334 15.999 -38c0 -14.667 -5.16699 -27.167 -15.5 -37.5s-22.833 -15.5 -37.5 -15.5c-4 0 -8.66699 0.666992 -14 2l-656 176c-51.333 14 -93.166 42 -125.499 84s-48.5 89.667 -48.5 143c0 64.667 23 120 69 166
s101.333 69 166 69s120 -23 166 -69zM1240 2480h440l957 -2160h243v-320h-1280v320h320l-142 320h-904l-133 -320h619v-320h-1280v320h261zM1007 960h629l-248 560c-32 73.333 -57.333 145.333 -76 216c-26 -92 -50 -164 -72 -216z" />
    <glyph glyph-name="Aacute" unicode="&#xc1;" horiz-adv-x="2960" 
d="M1047 2732l479.999 480c46 46 101.333 69 166 69s120 -22.833 166 -68.5s69 -101.167 69 -166.5c0 -53.333 -16.167 -101 -48.5 -143s-74.166 -70 -125.499 -84l-656 -176c-5.33301 -1.33301 -10 -2 -14 -2c-14.667 0 -27.167 5.16699 -37.5 15.5
s-15.5 22.833 -15.5 37.5s5.33301 27.334 16 38zM1240 2480h440l957 -2160h243v-320h-1280v320h320l-142 320h-904l-133 -320h619v-320h-1280v320h261zM1007 960h629l-248 560c-32 73.333 -57.333 145.333 -76 216c-26 -92 -50 -164 -72 -216z" />
    <glyph glyph-name="Acircumflex" unicode="&#xc2;" horiz-adv-x="2960" 
d="M2180 2640h-520l-200 480l-200 -480h-520l480 640h480zM1240 2480h440l957 -2160h243v-320h-1280v320h320l-142 320h-904l-133 -320h619v-320h-1280v320h261zM1007 960h629l-248 560c-32 73.333 -57.333 145.333 -76 216c-26 -92 -50 -164 -72 -216z" />
    <glyph glyph-name="Atilde" unicode="&#xc3;" horiz-adv-x="2960" 
d="M1686 2984c0 77.333 27.334 143.333 82.001 198s120.667 82 198 82s143.333 -27.333 197.999 -82c54.667 -54.667 82 -120.667 82 -198c0 -125.333 -31 -216.666 -93 -274c-34 -32 -71 -54.333 -111 -67s-92 -19 -156 -19c-82.667 0 -166.167 19.667 -250.5 59
s-159.833 87 -226.5 143c-2.66699 2 -10.667 8.83301 -24 20.5s-22.166 19.167 -26.499 22.5l-24 18.5c-11.667 9 -20.834 15.333 -27.501 19l-24.5 13c-9.66699 5 -18.834 8.5 -27.501 10.5s-17 3 -25 3v-21c0 -77.333 -27.333 -143.333 -82 -198s-120.667 -82 -198 -82
s-143.333 27.333 -198 82s-82 120.667 -82 198c0 125.333 31 216.666 93 274c34 32 71 54.333 111 67s92 19 156 19c82.667 0 166.167 -19.667 250.5 -59s159.833 -87 226.5 -143c2.66699 -2 10.667 -8.83301 24 -20.5s22.166 -19.167 26.499 -22.5l24 -18.5
c11.667 -9 20.834 -15.333 27.501 -19l24.5 -13c9.66699 -5 18.834 -8.5 27.501 -10.5s17 -3 25 -3v21zM1240 2480h440l957 -2160h243v-320h-1280v320h320l-142 320h-904l-133 -320h619v-320h-1280v320h261zM1007 960h629l-248 560c-32 73.333 -57.333 145.333 -76 216
c-26 -92 -50 -164 -72 -216z" />
    <glyph glyph-name="Adieresis" unicode="&#xc4;" horiz-adv-x="2960" 
d="M1940 3280c88.667 0 164.166 -31.167 226.5 -93.5c62.333 -62.333 93.5 -137.833 93.5 -226.5s-31.167 -164.167 -93.5 -226.5s-137.833 -93.5 -226.5 -93.5s-164.167 31.167 -226.5 93.5s-93.5 137.833 -93.5 226.5s31.167 164.167 93.5 226.5s137.833 93.5 226.5 93.5z
M979.999 3280c88.667 0 164.167 -31.167 226.5 -93.5s93.5 -137.833 93.5 -226.5s-31.167 -164.167 -93.5 -226.5s-137.833 -93.5 -226.5 -93.5s-164.167 31.167 -226.5 93.5s-93.5 137.833 -93.5 226.5s31.167 164.167 93.5 226.5s137.833 93.5 226.5 93.5zM1240 2480h440
l957 -2160h243v-320h-1280v320h320l-142 320h-904l-133 -320h619v-320h-1280v320h261zM1007 960h629l-248 560c-32 73.333 -57.333 145.333 -76 216c-26 -92 -50 -164 -72 -216z" />
    <glyph glyph-name="Aring" unicode="&#xc5;" horiz-adv-x="2960" 
d="M1460 3160c-33.333 0 -61.666 -11.667 -84.999 -35s-35 -51.666 -35 -85c0 -33.333 11.667 -61.666 35 -85c23.333 -23.333 51.666 -35 84.999 -35s61.666 11.667 84.999 35s35 51.666 35 85c0 33.333 -11.667 61.666 -35 85c-23.333 23.333 -51.666 35 -84.999 35z
M1900 3040c0 -121.333 -43 -225 -129 -311s-189.667 -129 -311 -129s-225 43 -311 129s-129 189.667 -129 311s43 225 129 311s189.667 129 311 129s225 -43 311 -129s129 -189.667 129 -311zM1240 2480h440l957 -2160h243v-320h-1280v320h320l-142 320h-904l-133 -320h619
v-320h-1280v320h261zM1007 960h629l-248 560c-32 73.333 -57.333 145.333 -76 216c-26 -92 -50 -164 -72 -216z" />
    <glyph glyph-name="AE" unicode="&#xc6;" horiz-adv-x="3900" 
d="M978 640l-178 -320.002h520v-320h-1280v320h320l1022 1840h-222v320h400h440h1720v-800h-360v160c0 32.667 -2.83301 66.334 -8.5 101.001s-14.334 69 -26 103c-11.667 34 -28.5 61.833 -50.5 83.5s-47 32.5 -75 32.5h-680v-880h360v360h320v-1040h-320v360h-360v-640
h720c28 0 53 10.833 75 32.5s38.833 49.5 50.5 83.5s20.334 68.333 26 103c5.66699 34.667 8.5 68.334 8.5 101.001v160h360v-800h-2200v320h320v320h-902zM1156 959.998h724v1200h-58z" />
    <glyph glyph-name="Ccedilla" unicode="&#xc7;" horiz-adv-x="2520" 
d="M1360 2520c350 0 630.003 -93.3291 840.003 -279.996c86 -76 147.5 -152.5 184.5 -229.5s55.5 -173.833 55.5 -290.5c0 -88.667 -31.167 -164.167 -93.5 -226.5s-137.833 -93.5 -226.5 -93.5s-164.167 31.167 -226.5 93.5s-93.5 137.833 -93.5 226.5
c0 45.333 9 88.166 27 128.499s43 75.5 75 105.5c-48 89.333 -112.833 152.666 -194.5 189.999s-184.167 56 -307.5 56c-80.667 0 -155.5 -16.333 -224.5 -49s-128.667 -78.334 -179 -137c-50.333 -58.667 -93.5 -128 -129.5 -208s-62.833 -167.833 -80.5 -263.5
s-26.5 -196.5 -26.5 -302.5c0 -104.667 10.667 -205.334 32 -302.001s52.333 -184.667 93 -264s88.334 -148.5 143.001 -207.5s117.5 -104.833 188.5 -137.5s145.5 -49 223.5 -49c113.333 0 218.833 30.333 316.5 91s178.667 145.834 243 255.501s104.5 234.167 120.5 373.5
l320 -80c-14.667 -72.667 -31.834 -140.5 -51.5 -203.5c-19.667 -63 -43.834 -125.667 -72.5 -188c-28.667 -62.333 -60.834 -119.333 -96.5 -171c-35.667 -51.667 -77.5 -100.334 -125.5 -146.001s-100.833 -85 -158.5 -118s-123.334 -60.667 -197.001 -83
s-153.167 -37.166 -238.5 -44.499v-46c54.667 -10.667 100.834 -24.167 138.501 -40.5s72.667 -39.166 105 -68.499s56.5 -68.166 72.5 -116.499s24 -106.5 24 -174.5c0 -96.667 -44 -174.167 -132 -232.5s-210.667 -87.5 -368 -87.5
c-104.667 0 -196.834 6.16699 -276.501 18.5s-144.667 29 -195 50s-91.333 47.167 -123 78.5s-53.834 64.166 -66.501 98.499s-19 72.5 -19 114.5c0 77.333 27.333 143.333 82 198s120.667 82 198 82s143.333 -27.333 198 -82s82 -120.667 82 -198
c0 -39.333 -7.66699 -76.666 -23 -111.999c26.667 -5.33301 61 -8 103 -8c108.667 0 163 40 163 120c0 15.333 -3.33301 31.5 -10 48.5s-17.167 34.167 -31.5 51.5s-35.333 31.666 -63 42.999s-59.834 17 -96.501 17l25 242c-112.667 4.66699 -220.167 21 -322.5 49
s-194.833 65 -277.5 111s-159 100 -229 162s-130.5 129.667 -181.5 203s-94.333 151.166 -130 233.499s-62.334 167.166 -80.001 254.499s-26.5 175.666 -26.5 264.999c0 92 9.33301 182.833 28 272.5s46.834 176.667 84.501 261s83.5 164 137.5 239s118 143.5 192 205.5
s154.833 115.333 242.5 160s185.667 79.5 294 104.5s222.166 37.5 341.499 37.5z" />
    <glyph glyph-name="Egrave" unicode="&#xc8;" horiz-adv-x="2480" 
d="M1601 2731c10.667 -10.667 15.999 -23.334 15.999 -38c0 -14.667 -5.16699 -27.167 -15.5 -37.5s-22.833 -15.5 -37.5 -15.5c-4 0 -8.66699 0.666992 -14 2l-656 176c-51.333 14 -93.166 42 -125.499 84s-48.5 89.667 -48.5 143c0 64.667 23 120 69 166
s101.333 69 166 69s120 -23 166 -69zM119.999 2480l2160 -0.00195312v-800h-360v160c0 32.667 -2.83301 66.334 -8.5 101.001s-14.334 69 -26.001 103s-28.5 61.833 -50.5 83.5s-47 32.5 -75 32.5h-680v-880h360v360h320v-1040h-320v360h-360v-640h720
c28 0 53 10.833 75 32.5s38.833 49.5 50.5 83.5s20.334 68.333 26.001 103s8.5 68.334 8.5 101.001v160h360v-800h-2200v320h320v1840h-320v320z" />
    <glyph glyph-name="Eacute" unicode="&#xc9;" horiz-adv-x="2480" 
d="M787 2732l479.999 480c46 46 101.333 69 166 69s120 -22.833 166 -68.5s69 -101.167 69 -166.5c0 -53.333 -16.167 -101 -48.5 -143s-74.166 -70 -125.499 -84l-656 -176c-5.33301 -1.33301 -10 -2 -14 -2c-14.667 0 -27.167 5.16699 -37.5 15.5s-15.5 22.833 -15.5 37.5
s5.33301 27.334 16 38zM119.999 2480l2160 -0.00195312v-800h-360v160c0 32.667 -2.83301 66.334 -8.5 101.001s-14.334 69 -26.001 103s-28.5 61.833 -50.5 83.5s-47 32.5 -75 32.5h-680v-880h360v360h320v-1040h-320v360h-360v-640h720c28 0 53 10.833 75 32.5
s38.833 49.5 50.5 83.5s20.334 68.333 26.001 103s8.5 68.334 8.5 101.001v160h360v-800h-2200v320h320v1840h-320v320z" />
    <glyph glyph-name="Ecircumflex" unicode="&#xca;" horiz-adv-x="2480" 
d="M1960 2640h-520l-200 480l-200 -480h-520l480 640h480zM120 2480l2160 -0.00195312v-800h-360v160c0 32.667 -2.83301 66.334 -8.5 101.001s-14.334 69 -26.001 103s-28.5 61.833 -50.5 83.5s-47 32.5 -75 32.5h-680v-880h360v360h320v-1040h-320v360h-360v-640h720
c28 0 53 10.833 75 32.5s38.833 49.5 50.5 83.5s20.334 68.333 26.001 103s8.5 68.334 8.5 101.001v160h360v-800h-2200v320h320v1840h-320v320z" />
    <glyph glyph-name="Edieresis" unicode="&#xcb;" horiz-adv-x="2480" 
d="M760 3280c88.667 0 164.167 -31.167 226.5 -93.5s93.5 -137.833 93.5 -226.5s-31.167 -164.167 -93.5 -226.5s-137.833 -93.5 -226.5 -93.5s-164.167 31.167 -226.5 93.5s-93.5 137.833 -93.5 226.5s31.167 164.167 93.5 226.5s137.833 93.5 226.5 93.5zM1720 3280
c88.667 0 164.167 -31.167 226.5 -93.5s93.5 -137.833 93.5 -226.5s-31.167 -164.167 -93.5 -226.5s-137.833 -93.5 -226.5 -93.5s-164.167 31.167 -226.5 93.5s-93.5 137.833 -93.5 226.5s31.167 164.167 93.5 226.5s137.833 93.5 226.5 93.5zM120 2480l2160 -0.00195312
v-800h-360v160c0 32.667 -2.83301 66.334 -8.5 101.001s-14.334 69 -26.001 103s-28.5 61.833 -50.5 83.5s-47 32.5 -75 32.5h-680v-880h360v360h320v-1040h-320v360h-360v-640h720c28 0 53 10.833 75 32.5s38.833 49.5 50.5 83.5s20.334 68.333 26.001 103
s8.5 68.334 8.5 101.001v160h360v-800h-2200v320h320v1840h-320v320z" />
    <glyph glyph-name="Igrave" unicode="&#xcc;" horiz-adv-x="1520" 
d="M1121 2731c10.667 -10.667 15.999 -23.334 15.999 -38c0 -14.667 -5.16699 -27.167 -15.5 -37.5s-22.833 -15.5 -37.5 -15.5c-4 0 -8.66699 0.666992 -14 2l-656 176c-51.333 14 -93.166 42 -125.499 84s-48.5 89.667 -48.5 143c0 64.667 23 120 69 166
s101.333 69 166 69s120 -23 166 -69zM119.999 2480h1280v-320h-320v-1840h320v-320h-1280v320h320v1840h-320v320z" />
    <glyph glyph-name="Iacute" unicode="&#xcd;" horiz-adv-x="1520" 
d="M399 2731l479.999 480c46 46 101.333 69 166 69s120 -23 166 -69s69 -101.333 69 -166c0 -53.333 -16.167 -101 -48.5 -143s-74.166 -70 -125.499 -84l-656 -176c-5.33301 -1.33301 -10 -2 -14 -2c-14.667 0 -27.167 5.16699 -37.5 15.5s-15.5 22.833 -15.5 37.5
s5.33301 27.334 16 38zM119.999 2480h1280v-320h-320v-1840h320v-320h-1280v320h320v1840h-320v320z" />
    <glyph glyph-name="Icircumflex" unicode="&#xce;" horiz-adv-x="1520" 
d="M1480 2640h-520l-200 480l-200 -480h-520l480 640h480zM120 2480h1280v-320h-320v-1840h320v-320h-1280v320h320v1840h-320v320z" />
    <glyph glyph-name="Idieresis" unicode="&#xcf;" horiz-adv-x="1520" 
d="M280 3280c88.667 0 164.167 -31.167 226.5 -93.5s93.5 -137.833 93.5 -226.5s-31.167 -164.167 -93.5 -226.5s-137.833 -93.5 -226.5 -93.5s-164.167 31.167 -226.5 93.5s-93.5 137.833 -93.5 226.5s31.167 164.167 93.5 226.5s137.833 93.5 226.5 93.5zM1240 3280
c88.667 0 164.167 -31.167 226.5 -93.5s93.5 -137.833 93.5 -226.5s-31.167 -164.167 -93.5 -226.5s-137.833 -93.5 -226.5 -93.5s-164.167 31.167 -226.5 93.5s-93.5 137.833 -93.5 226.5s31.167 164.167 93.5 226.5s137.833 93.5 226.5 93.5zM120 2480h1280v-320h-320
v-1840h320v-320h-1280v320h320v1840h-320v320z" />
    <glyph glyph-name="Eth" unicode="&#xd0;" horiz-adv-x="2780" 
d="M1400 320c104 0 197.001 23.167 279.001 69.5s149.167 110.833 201.5 193.5s92 179.5 119 290.5s40.5 233.167 40.5 366.5c0 106.667 -8 206 -24 298s-41 176.5 -75 253.5s-75.833 142.667 -125.5 197s-109.834 96.5 -180.501 126.5s-149 45 -235 45h-320v-880h480v-320
h-480v-640h320zM1400 0l-1280 -0.00390625v320h320v640h-320v320h320v880h-320v320h1280c143.333 0 278.666 -15.833 405.999 -47.5s240.166 -75.667 338.499 -132s186.666 -123.166 265 -200.499c78.333 -77.333 143 -162 194 -254s89.833 -189.167 116.5 -291.5
s40 -207.166 40 -314.499s-13.333 -212.166 -40 -314.499s-65.5 -199.5 -116.5 -291.5s-115.667 -176.667 -194 -254s-166.666 -144.166 -264.999 -200.499s-211.166 -100.333 -338.499 -132s-262.666 -47.5 -405.999 -47.5z" />
    <glyph glyph-name="Ntilde" unicode="&#xd1;" horiz-adv-x="2860" 
d="M1666 2984c0 77.333 27.334 143.333 82.001 198s120.667 82 198 82s143.333 -27.333 197.999 -82c54.667 -54.667 82 -120.667 82 -198c0 -125.333 -31 -216.666 -93 -274c-34 -32 -71 -54.333 -111 -67s-92 -19 -156 -19c-82.667 0 -166.167 19.667 -250.5 59
s-159.833 87 -226.5 143c-2.66699 2 -10.667 8.83301 -24 20.5s-22.166 19.167 -26.499 22.5l-24 18.5c-11.667 9 -20.834 15.333 -27.501 19l-24.5 13c-9.66699 5 -18.834 8.5 -27.501 10.5s-17 3 -25 3v-21c0 -77.333 -27.333 -143.333 -82 -198s-120.667 -82 -198 -82
s-143.333 27.333 -198 82s-82 120.667 -82 198c0 125.333 31 216.666 93 274c34 32 71 54.333 111 67s92 19 156 19c82.667 0 166.167 -19.667 250.5 -59s159.833 -87 226.5 -143c2.66699 -2 10.667 -8.83301 24 -20.5s22.166 -19.167 26.499 -22.5l24 -18.5
c11.667 -9 20.834 -15.333 27.501 -19l24.5 -13c9.66699 -5 18.834 -8.5 27.501 -10.5s17 -3 25 -3v21zM120.001 2480h890l1030 -1212v892h-320v320h1040v-320h-320v-2160h-240l-1360 1600v-1280h320v-320h-1040v320h320v1840h-320v320z" />
    <glyph glyph-name="Ograve" unicode="&#xd2;" horiz-adv-x="2720" 
d="M1721 2731c10.667 -10.667 15.999 -23.334 15.999 -38c0 -14.667 -5.16699 -27.167 -15.5 -37.5s-22.833 -15.5 -37.5 -15.5c-4 0 -8.66699 0.666992 -14 2l-656 176c-51.333 14 -93.166 42 -125.499 84s-48.5 89.667 -48.5 143c0 64.667 23 120 69 166
s101.333 69 166 69s120 -23 166 -69zM1360 2520c119.333 0 233.166 -12.5 341.499 -37.5s206.333 -59.833 294 -104.5s168.5 -98 242.5 -160s138 -130.5 192 -205.5s99.833 -154.667 137.5 -239s65.834 -171.333 84.5 -261c18.667 -89.667 28 -180.5 28 -272.5
s-9.33301 -182.833 -28 -272.5s-46.834 -176.667 -84.5 -261c-37.667 -84.333 -83.5 -164 -137.5 -239s-118 -143.5 -192 -205.5s-154.833 -115.333 -242.5 -160s-185.667 -79.5 -294 -104.5s-222.166 -37.5 -341.499 -37.5s-233.166 12.5 -341.499 37.5
s-206.333 59.833 -294 104.5s-168.5 98 -242.5 160s-138 130.5 -192 205.5s-99.833 154.667 -137.5 239s-65.834 171.333 -84.501 261s-28 180.5 -28 272.5s9.33301 182.833 28 272.5s46.834 176.667 84.501 261s83.5 164 137.5 239s118 143.5 192 205.5
s154.833 115.333 242.5 160s185.667 79.5 294 104.5s222.166 37.5 341.499 37.5zM1360 2200c-80.667 0 -154.171 -16.5 -220.504 -49.5s-122.666 -78.5 -168.999 -136.5s-85.5 -127.5 -117.5 -208.5s-55.5 -168.833 -70.5 -263.5s-22.5 -195.334 -22.5 -302.001
c0 -133.333 12.833 -257.5 38.5 -372.5s62.834 -216.5 111.501 -304.5s111.5 -157.167 188.5 -207.5s164.167 -75.5 261.5 -75.5s184.5 25.167 261.5 75.5s139.833 119.5 188.5 207.5s85.834 189.5 111.501 304.5s38.5 239.167 38.5 372.5
c0 106.667 -7.5 207.334 -22.5 302.001s-38.5 182.5 -70.5 263.5s-71.167 150.5 -117.5 208.5s-102.666 103.5 -168.999 136.5s-139.833 49.5 -220.5 49.5z" />
    <glyph glyph-name="Oacute" unicode="&#xd3;" horiz-adv-x="2720" 
d="M927 2732l479.999 480c46 46 101.333 69 166 69s120 -22.833 166 -68.5s69 -101.167 69 -166.5c0 -53.333 -16.167 -101 -48.5 -143s-74.166 -70 -125.499 -84l-656 -176c-5.33301 -1.33301 -10 -2 -14 -2c-14.667 0 -27.167 5.16699 -37.5 15.5s-15.5 22.833 -15.5 37.5
s5.33301 27.334 16 38zM1360 2520c119.333 0 233.166 -12.5 341.499 -37.5s206.333 -59.833 294 -104.5s168.5 -98 242.5 -160s138 -130.5 192 -205.5s99.833 -154.667 137.5 -239s65.834 -171.333 84.5 -261c18.667 -89.667 28 -180.5 28 -272.5
s-9.33301 -182.833 -28 -272.5s-46.834 -176.667 -84.5 -261c-37.667 -84.333 -83.5 -164 -137.5 -239s-118 -143.5 -192 -205.5s-154.833 -115.333 -242.5 -160s-185.667 -79.5 -294 -104.5s-222.166 -37.5 -341.499 -37.5s-233.166 12.5 -341.499 37.5
s-206.333 59.833 -294 104.5s-168.5 98 -242.5 160s-138 130.5 -192 205.5s-99.833 154.667 -137.5 239s-65.834 171.333 -84.501 261s-28 180.5 -28 272.5s9.33301 182.833 28 272.5s46.834 176.667 84.501 261s83.5 164 137.5 239s118 143.5 192 205.5
s154.833 115.333 242.5 160s185.667 79.5 294 104.5s222.166 37.5 341.499 37.5zM1360 2200c-80.667 0 -154.171 -16.5 -220.504 -49.5s-122.666 -78.5 -168.999 -136.5s-85.5 -127.5 -117.5 -208.5s-55.5 -168.833 -70.5 -263.5s-22.5 -195.334 -22.5 -302.001
c0 -133.333 12.833 -257.5 38.5 -372.5s62.834 -216.5 111.501 -304.5s111.5 -157.167 188.5 -207.5s164.167 -75.5 261.5 -75.5s184.5 25.167 261.5 75.5s139.833 119.5 188.5 207.5s85.834 189.5 111.501 304.5s38.5 239.167 38.5 372.5
c0 106.667 -7.5 207.334 -22.5 302.001s-38.5 182.5 -70.5 263.5s-71.167 150.5 -117.5 208.5s-102.666 103.5 -168.999 136.5s-139.833 49.5 -220.5 49.5z" />
    <glyph glyph-name="Ocircumflex" unicode="&#xd4;" horiz-adv-x="2720" 
d="M2080 2640h-520l-200 480l-200 -480h-520l480 640h480zM1360 2520c119.333 0 233.167 -12.5 341.5 -37.5s206.333 -59.833 294 -104.5s168.5 -98 242.5 -160s138 -130.5 192 -205.5s99.833 -154.667 137.5 -239s65.834 -171.333 84.5 -261
c18.667 -89.667 28 -180.5 28 -272.5s-9.33301 -182.833 -28 -272.5s-46.834 -176.667 -84.501 -261s-83.5 -164 -137.5 -239s-118 -143.5 -192 -205.5s-154.833 -115.333 -242.5 -160s-185.667 -79.5 -294 -104.5s-222.166 -37.5 -341.499 -37.5
s-233.166 12.5 -341.499 37.5s-206.333 59.833 -294 104.5s-168.5 98 -242.5 160s-138 130.5 -192 205.5s-99.833 154.667 -137.5 239s-65.834 171.333 -84.501 261s-28 180.5 -28 272.5s9.33301 182.833 28 272.5s46.834 176.667 84.501 261s83.5 164 137.5 239
s118 143.5 192 205.5s154.833 115.333 242.5 160s185.667 79.5 294 104.5s222.166 37.5 341.499 37.5zM1360 2200c-80.667 0 -154.171 -16.5 -220.504 -49.5s-122.666 -78.5 -168.999 -136.5s-85.5 -127.5 -117.5 -208.5s-55.5 -168.833 -70.5 -263.5
s-22.5 -195.334 -22.5 -302.001c0 -133.333 12.833 -257.5 38.5 -372.5s62.834 -216.5 111.501 -304.5s111.5 -157.167 188.5 -207.5s164.167 -75.5 261.5 -75.5s184.5 25.167 261.5 75.5s139.833 119.5 188.5 207.5s85.834 189.5 111.501 304.5s38.5 239.167 38.5 372.5
c0 106.667 -7.5 207.334 -22.5 302.001s-38.5 182.5 -70.5 263.5s-71.167 150.5 -117.5 208.5s-102.666 103.5 -168.999 136.5s-139.833 49.5 -220.5 49.5z" />
    <glyph glyph-name="Otilde" unicode="&#xd5;" horiz-adv-x="2720" 
d="M1586 2984c0 77.333 27.333 143.333 82 198s120.667 82 198 82s143.333 -27.333 198 -82s82 -120.667 82 -198c0 -125.333 -31 -216.666 -93 -274c-34 -32 -71 -54.333 -111 -67s-92 -19 -156 -19c-82.667 0 -166.167 19.667 -250.5 59s-159.833 87 -226.5 143
c-2.66699 2 -10.667 8.83301 -24 20.5s-22.166 19.167 -26.499 22.5l-24 18.5c-11.667 9 -20.834 15.333 -27.501 19l-24.5 13c-9.66699 5 -18.834 8.5 -27.501 10.5s-17 3 -25 3v-21c0 -77.333 -27.333 -143.333 -82 -198s-120.667 -82 -198 -82s-143.333 27.333 -198 82
s-82 120.667 -82 198c0 125.333 31 216.666 93 274c34 32 71 54.333 111 67s92 19 156 19c82.667 0 166.167 -19.667 250.5 -59s159.833 -87 226.5 -143c2.66699 -2 10.667 -8.83301 24 -20.5s22.166 -19.167 26.499 -22.5l24 -18.5c11.667 -9 20.834 -15.333 27.501 -19
l24.5 -13c9.66699 -5 18.834 -8.5 27.501 -10.5s17 -3 25 -3v21zM1360 2520c119.333 0 233.167 -12.5 341.5 -37.5s206.333 -59.833 294 -104.5s168.5 -98 242.5 -160s138 -130.5 192 -205.5s99.833 -154.667 137.5 -239s65.834 -171.333 84.5 -261
c18.667 -89.667 28 -180.5 28 -272.5s-9.33301 -182.833 -28 -272.5s-46.834 -176.667 -84.501 -261s-83.5 -164 -137.5 -239s-118 -143.5 -192 -205.5s-154.833 -115.333 -242.5 -160s-185.667 -79.5 -294 -104.5s-222.166 -37.5 -341.499 -37.5
s-233.166 12.5 -341.499 37.5s-206.333 59.833 -294 104.5s-168.5 98 -242.5 160s-138 130.5 -192 205.5s-99.833 154.667 -137.5 239s-65.834 171.333 -84.501 261s-28 180.5 -28 272.5s9.33301 182.833 28 272.5s46.834 176.667 84.501 261s83.5 164 137.5 239
s118 143.5 192 205.5s154.833 115.333 242.5 160s185.667 79.5 294 104.5s222.166 37.5 341.499 37.5zM1360 2200c-80.667 0 -154.171 -16.5 -220.504 -49.5s-122.666 -78.5 -168.999 -136.5s-85.5 -127.5 -117.5 -208.5s-55.5 -168.833 -70.5 -263.5
s-22.5 -195.334 -22.5 -302.001c0 -133.333 12.833 -257.5 38.5 -372.5s62.834 -216.5 111.501 -304.5s111.5 -157.167 188.5 -207.5s164.167 -75.5 261.5 -75.5s184.5 25.167 261.5 75.5s139.833 119.5 188.5 207.5s85.834 189.5 111.501 304.5s38.5 239.167 38.5 372.5
c0 106.667 -7.5 207.334 -22.5 302.001s-38.5 182.5 -70.5 263.5s-71.167 150.5 -117.5 208.5s-102.666 103.5 -168.999 136.5s-139.833 49.5 -220.5 49.5z" />
    <glyph glyph-name="Odieresis" unicode="&#xd6;" horiz-adv-x="2720" 
d="M880 3280c88.667 0 164.167 -31.167 226.5 -93.5s93.5 -137.833 93.5 -226.5s-31.167 -164.167 -93.5 -226.5s-137.833 -93.5 -226.5 -93.5s-164.167 31.167 -226.5 93.5s-93.5 137.833 -93.5 226.5s31.167 164.167 93.5 226.5s137.833 93.5 226.5 93.5zM1840 3280
c88.667 0 164.167 -31.167 226.5 -93.5s93.5 -137.833 93.5 -226.5s-31.167 -164.167 -93.5 -226.5s-137.833 -93.5 -226.5 -93.5s-164.167 31.167 -226.5 93.5s-93.5 137.833 -93.5 226.5s31.167 164.167 93.5 226.5s137.833 93.5 226.5 93.5zM1360 2520
c119.333 0 233.167 -12.5 341.5 -37.5s206.333 -59.833 294 -104.5s168.5 -98 242.5 -160s138 -130.5 192 -205.5s99.833 -154.667 137.5 -239s65.834 -171.333 84.5 -261c18.667 -89.667 28 -180.5 28 -272.5s-9.33301 -182.833 -28 -272.5s-46.834 -176.667 -84.501 -261
s-83.5 -164 -137.5 -239s-118 -143.5 -192 -205.5s-154.833 -115.333 -242.5 -160s-185.667 -79.5 -294 -104.5s-222.166 -37.5 -341.499 -37.5s-233.166 12.5 -341.499 37.5s-206.333 59.833 -294 104.5s-168.5 98 -242.5 160s-138 130.5 -192 205.5
s-99.833 154.667 -137.5 239s-65.834 171.333 -84.501 261s-28 180.5 -28 272.5s9.33301 182.833 28 272.5s46.834 176.667 84.501 261s83.5 164 137.5 239s118 143.5 192 205.5s154.833 115.333 242.5 160s185.667 79.5 294 104.5s222.166 37.5 341.499 37.5zM1360 2200
c-80.667 0 -154.171 -16.5 -220.504 -49.5s-122.666 -78.5 -168.999 -136.5s-85.5 -127.5 -117.5 -208.5s-55.5 -168.833 -70.5 -263.5s-22.5 -195.334 -22.5 -302.001c0 -133.333 12.833 -257.5 38.5 -372.5s62.834 -216.5 111.501 -304.5s111.5 -157.167 188.5 -207.5
s164.167 -75.5 261.5 -75.5s184.5 25.167 261.5 75.5s139.833 119.5 188.5 207.5s85.834 189.5 111.501 304.5s38.5 239.167 38.5 372.5c0 106.667 -7.5 207.334 -22.5 302.001s-38.5 182.5 -70.5 263.5s-71.167 150.5 -117.5 208.5s-102.666 103.5 -168.999 136.5
s-139.833 49.5 -220.5 49.5z" />
    <glyph glyph-name="multiply" unicode="&#xd7;" horiz-adv-x="1680" 
d="M1357 1984l227 -227l-518 -517l518 -517l-227 -227l-517 518l-517 -518l-227 227l518 517l-518 517l227 227l517 -518z" />
    <glyph glyph-name="Oslash" unicode="&#xd8;" horiz-adv-x="2720" 
d="M1891 2480h370l-112 -194c113.333 -79.333 210.333 -175.666 291 -288.999s140.834 -234 180.5 -362c39.667 -128 59.5 -259.667 59.5 -395c0 -92 -9.33301 -182.833 -28 -272.5s-46.834 -176.667 -84.5 -261c-37.667 -84.333 -83.5 -164 -137.5 -239
s-118 -143.5 -192 -205.5s-154.833 -115.333 -242.5 -160s-185.667 -79.5 -294 -104.5s-222.166 -37.5 -341.499 -37.5c-181.333 0 -349.666 28.333 -504.999 85l-26 -45h-370l112 194c-113.333 79.333 -210.333 175.666 -291 288.999s-140.834 234 -180.501 362
s-59.5 259.667 -59.5 395c0 92 9.33301 182.833 28 272.5s46.834 176.667 84.501 261s83.5 164 137.5 239s118 143.5 192 205.5s154.833 115.333 242.5 160s185.667 79.5 294 104.5s222.166 37.5 341.499 37.5c181.333 0 349.666 -28.333 504.999 -85zM1360 2200
c-80.667 0 -154.168 -16.499 -220.501 -49.499s-122.666 -78.5 -168.999 -136.5s-85.5 -127.5 -117.5 -208.5s-55.5 -168.833 -70.5 -263.5s-22.5 -195.334 -22.5 -302.001c0 -214 31 -400 93 -558l815 1413c-87.333 70 -190 105 -308 105zM1869 1801l-816.001 -1412
c88 -72.667 190.333 -109 307 -109c97.333 0 184.5 25.167 261.5 75.5s139.833 119.5 188.5 207.5s85.834 189.5 111.501 304.5s38.5 239.167 38.5 372.5c0 218 -30.333 405 -91 561z" />
    <glyph glyph-name="Ugrave" unicode="&#xd9;" horiz-adv-x="2800" 
d="M1881 2731c10.667 -10.667 15.999 -23.334 15.999 -38c0 -14.667 -5.16699 -27.167 -15.5 -37.5s-22.833 -15.5 -37.5 -15.5c-4 0 -8.66699 0.666992 -14 2l-656 176c-51.333 14 -93.166 42 -125.499 84s-48.5 89.667 -48.5 143c0 64.667 23 120 69 166
s101.333 69 166 69s120 -23 166 -69zM1640 2480l1040 0.000976562v-320h-320v-1320c0 -90.667 -9.66699 -177.667 -29 -261s-50.833 -162.833 -94.5 -238.5s-97.334 -141.5 -161 -197.5c-63.667 -56 -143.167 -100.5 -238.5 -133.5s-201 -49.5 -317 -49.5
c-252 0 -458 35.833 -618 107.5s-277 177.667 -351 318s-111 318.5 -111 534.5v1240h-320v320h1280v-320h-320v-1240c0 -72.667 5.5 -139.667 16.5 -201s25.5 -113.5 43.5 -156.5s40 -81.333 66 -115s53 -60.834 81 -81.501s58.167 -37.667 90.5 -51
s63.166 -22.5 92.499 -27.5s59.333 -7.5 90 -7.5c78 0 147.833 14.167 209.5 42.5s112 67.666 151 117.999s68.667 109.333 89 177s30.5 141.834 30.5 222.501v1320h-400v320z" />
    <glyph glyph-name="Uacute" unicode="&#xda;" horiz-adv-x="2800" 
d="M967 2732l479.999 480c46 46 101.333 69 166 69s120 -22.833 166 -68.5s69 -101.167 69 -166.5c0 -53.333 -16.167 -101 -48.5 -143s-74.166 -70 -125.499 -84l-656 -176c-5.33301 -1.33301 -10 -2 -14 -2c-14.667 0 -27.167 5.16699 -37.5 15.5s-15.5 22.833 -15.5 37.5
s5.33301 27.334 16 38zM1640 2480l1040 0.000976562v-320h-320v-1320c0 -90.667 -9.66699 -177.667 -29 -261s-50.833 -162.833 -94.5 -238.5s-97.334 -141.5 -161 -197.5c-63.667 -56 -143.167 -100.5 -238.5 -133.5s-201 -49.5 -317 -49.5c-252 0 -458 35.833 -618 107.5
s-277 177.667 -351 318s-111 318.5 -111 534.5v1240h-320v320h1280v-320h-320v-1240c0 -72.667 5.5 -139.667 16.5 -201s25.5 -113.5 43.5 -156.5s40 -81.333 66 -115s53 -60.834 81 -81.501s58.167 -37.667 90.5 -51s63.166 -22.5 92.499 -27.5s59.333 -7.5 90 -7.5
c78 0 147.833 14.167 209.5 42.5s112 67.666 151 117.999s68.667 109.333 89 177s30.5 141.834 30.5 222.501v1320h-400v320z" />
    <glyph glyph-name="Ucircumflex" unicode="&#xdb;" horiz-adv-x="2800" 
d="M2240 2640h-520l-200 480l-200 -480h-520l480 640h480zM1640 2480l1040 0.000976562v-320h-320v-1320c0 -90.667 -9.66699 -177.667 -29 -261s-50.833 -162.833 -94.5 -238.5s-97.334 -141.5 -161.001 -197.5s-143.167 -100.5 -238.5 -133.5s-201 -49.5 -317 -49.5
c-252 0 -458 35.833 -618 107.5s-277 177.667 -351 318s-111 318.5 -111 534.5v1240h-320v320h1280v-320h-320v-1240c0 -72.667 5.5 -139.667 16.5 -201s25.5 -113.5 43.5 -156.5s40 -81.333 66 -115s53 -60.834 81 -81.501s58.167 -37.667 90.5 -51
s63.166 -22.5 92.499 -27.5s59.333 -7.5 90 -7.5c78 0 147.833 14.167 209.5 42.5s112 67.666 151 117.999s68.667 109.333 89 177s30.5 141.834 30.5 222.501v1320h-400v320z" />
    <glyph glyph-name="Udieresis" unicode="&#xdc;" horiz-adv-x="2800" 
d="M2000 3280c88.667 0 164.167 -31.167 226.5 -93.5s93.5 -137.833 93.5 -226.5s-31.167 -164.167 -93.5 -226.5s-137.833 -93.5 -226.5 -93.5s-164.167 31.167 -226.5 93.5s-93.5 137.833 -93.5 226.5s31.167 164.167 93.5 226.5s137.833 93.5 226.5 93.5zM1040 3280
c88.667 0 164.167 -31.167 226.5 -93.5s93.5 -137.833 93.5 -226.5s-31.167 -164.167 -93.5 -226.5s-137.833 -93.5 -226.5 -93.5s-164.167 31.167 -226.5 93.5s-93.5 137.833 -93.5 226.5s31.167 164.167 93.5 226.5s137.833 93.5 226.5 93.5zM1640 2480l1040 0.000976562
v-320h-320v-1320c0 -90.667 -9.66699 -177.667 -29 -261s-50.833 -162.833 -94.5 -238.5s-97.334 -141.5 -161.001 -197.5s-143.167 -100.5 -238.5 -133.5s-201 -49.5 -317 -49.5c-252 0 -458 35.833 -618 107.5s-277 177.667 -351 318s-111 318.5 -111 534.5v1240h-320v320
h1280v-320h-320v-1240c0 -72.667 5.5 -139.667 16.5 -201s25.5 -113.5 43.5 -156.5s40 -81.333 66 -115s53 -60.834 81 -81.501s58.167 -37.667 90.5 -51s63.166 -22.5 92.499 -27.5s59.333 -7.5 90 -7.5c78 0 147.833 14.167 209.5 42.5s112 67.666 151 117.999
s68.667 109.333 89 177s30.5 141.834 30.5 222.501v1320h-400v320z" />
    <glyph glyph-name="Yacute" unicode="&#xdd;" horiz-adv-x="2840" 
d="M987 2732l479.999 480c46 46 101.333 69 166 69s120 -22.833 166 -68.5s69 -101.167 69 -166.5c0 -53.333 -16.167 -101 -48.5 -143s-74.166 -70 -125.499 -84l-656 -176c-5.33301 -1.33301 -10 -2 -14 -2c-14.667 0 -27.167 5.16699 -37.5 15.5s-15.5 22.833 -15.5 37.5
s5.33301 27.334 16 38zM1680 2480h1080v-320h-280l-764 -1051v-789h320v-320h-1280v320h320v801l-756 1039h-240v320h1280v-320h-249l486 -669l487 669h-404v320z" />
    <glyph glyph-name="Thorn" unicode="&#xde;" horiz-adv-x="2479" 
d="M1040 1680l-0.000976562 -880h160c88 0 163.5 10.5 226.5 31.5s112.667 51.5 149 91.5s62.833 86 79.5 138s25 111.667 25 179c0 50.667 -3.5 96.667 -10.5 138s-19.833 81.333 -38.5 120s-42.667 71 -72 97s-67.666 46.667 -114.999 62s-102 23 -164 23h-240z
M79.999 2480l1360 0.000976562v-320h-400v-160h80c242 0 431.833 -7.66699 569.5 -23s245 -39.166 322 -71.499s147.833 -80.833 212.5 -145.5c58 -58 101.833 -130.833 131.5 -218.5s44.5 -181.5 44.5 -281.5c0 -81.333 -10.5 -156.5 -31.5 -225.5s-50.667 -130 -89 -183
s-85.333 -100.333 -141 -142s-117.167 -76.834 -184.5 -105.501s-141.833 -52.334 -223.5 -71.001s-166 -32.167 -253 -40.5s-179.5 -12.5 -277.5 -12.5h-160v-160h400v-320h-1360v320h320v1840h-320v320z" />
    <glyph glyph-name="germandbls" unicode="&#xdf;" horiz-adv-x="2360" 
d="M1200 2640c122 0 235.668 -15.3271 341.001 -45.9941s198.333 -75.167 279 -133.5s144.167 -133.833 190.5 -226.5s69.5 -197.334 69.5 -314.001c0 -65.333 -8.5 -124.833 -25.5 -178.5s-40.833 -99.334 -71.5 -137.001s-65 -69.667 -103 -96s-80.667 -47.833 -128 -64.5
c93.333 -22.667 174.166 -55.834 242.499 -99.501s123.166 -96.834 164.499 -159.501s71.833 -132.334 91.5 -209.001s29.5 -162 29.5 -256c0 -243.333 -60.833 -430.833 -182.5 -562.5s-300.834 -197.5 -537.501 -197.5c-426.667 0 -640 226.667 -640 680
c0 88.667 31.167 164.167 93.5 226.5s137.833 93.5 226.5 93.5s164.167 -31.167 226.5 -93.5s93.5 -137.833 93.5 -226.5c0 -76 -23.5 -143 -70.5 -201s-106.833 -95 -179.5 -111c32.667 -32 76 -48 130 -48c17.333 0 35.333 3.5 54 10.5s39.5 20.667 62.5 41
s43.333 46.166 61 77.499s32.5 73.833 44.5 127.5s18 114.834 18 183.501c0 96.667 -11.5 181.834 -34.5 255.501s-55 132.167 -96 175.5s-87.333 75.666 -139 96.999s-108.5 32 -170.5 32h-240v120v80v120h200c94.667 0 165 33.167 211 99.5s69 153.166 69 260.499
c0 140.667 -21.833 242.5 -65.5 305.5s-115.167 94.5 -214.5 94.5c-57.333 0 -113.666 -15.833 -168.999 -47.5s-101 -75.667 -137 -132s-54 -116.5 -54 -180.5v-2000h-760v320h200v1520c0 116.667 16.667 221 50 313s78.333 168 135 228s124.834 109.833 204.501 149.5
s163 67.834 250 84.5c87 16.667 180.5 25 280.5 25z" />
    <glyph glyph-name="agrave" unicode="&#xe0;" horiz-adv-x="2100" 
d="M1381 2091c10.667 -10.667 15.999 -23.334 15.999 -38c0 -14.667 -5.16699 -27.167 -15.5 -37.5s-22.833 -15.5 -37.5 -15.5c-4 0 -8.66699 0.666992 -14 2l-656 176c-51.333 14 -93.166 42 -125.499 84s-48.5 89.667 -48.5 143c0 64.667 23 120 69 166
s101.333 69 166 69s120 -23 166 -69zM1800 1205l-0.000976562 -885h200v-320h-623l-89 208c-68 -97.333 -146.833 -164 -236.5 -200s-214.834 -54 -375.501 -54c-83.333 0 -160.833 14.5 -232.5 43.5s-132.667 68.5 -183 118.5s-89.666 110 -117.999 180
s-42.5 145 -42.5 225c0 138 54 252.5 162 343.5s246 136.5 414 136.5c135.333 0 247.333 -12.833 336 -38.5s164.667 -66.5 228 -122.5v424c0 60 -8.16699 110.167 -24.5 150.5s-40.833 71.333 -73.5 93s-69.334 36.834 -110.001 45.501s-89.334 13 -146.001 13
c-45.333 0 -86.333 -9.66699 -123 -29c20.667 -43.333 31 -89 31 -137c0 -88.667 -31.167 -164.167 -93.5 -226.5s-137.833 -93.5 -226.5 -93.5s-164.167 31.167 -226.5 93.5s-93.5 137.833 -93.5 226.5c0 45.333 8.83301 88 26.5 128s42.167 75 73.5 105
c26.667 28 54.334 53.167 83.001 75.5s64.834 44.666 108.501 66.999s91.167 40.833 142.5 55.5s112.833 26.5 184.5 35.5s150.167 13.5 235.5 13.5c110.667 0 214.667 -16.333 312 -49s181.333 -78 252 -136s126.334 -129.333 167.001 -214s61 -176.667 61 -276zM1240 444
v138.001c-41.333 39.333 -87.833 72.5 -139.5 99.5s-99.5 40.5 -143.5 40.5c-94.667 0 -161.334 -15.833 -200.001 -47.5s-58 -82.834 -58 -153.501c0 -84.667 16.667 -147 50 -187s95.333 -60 186 -60c51.333 0 104.833 16.5 160.5 49.5s103.834 73.167 144.501 120.5z" />
    <glyph glyph-name="aacute" unicode="&#xe1;" horiz-adv-x="2100" 
d="M617 2092l479.999 480c46 46 101.333 69 166 69s120 -22.833 166 -68.5s69 -101.167 69 -166.5c0 -53.333 -16.167 -101 -48.5 -143s-74.166 -70 -125.499 -84l-656 -176c-5.33301 -1.33301 -10 -2 -14 -2c-14.667 0 -27.167 5.16699 -37.5 15.5s-15.5 22.833 -15.5 37.5
s5.33301 27.334 16 38zM1800 1205l-0.000976562 -885h200v-320h-623l-89 208c-68 -97.333 -146.833 -164 -236.5 -200s-214.834 -54 -375.501 -54c-83.333 0 -160.833 14.5 -232.5 43.5s-132.667 68.5 -183 118.5s-89.666 110 -117.999 180s-42.5 145 -42.5 225
c0 138 54 252.5 162 343.5s246 136.5 414 136.5c135.333 0 247.333 -12.833 336 -38.5s164.667 -66.5 228 -122.5v424c0 60 -8.16699 110.167 -24.5 150.5s-40.833 71.333 -73.5 93s-69.334 36.834 -110.001 45.501s-89.334 13 -146.001 13
c-45.333 0 -86.333 -9.66699 -123 -29c20.667 -43.333 31 -89 31 -137c0 -88.667 -31.167 -164.167 -93.5 -226.5s-137.833 -93.5 -226.5 -93.5s-164.167 31.167 -226.5 93.5s-93.5 137.833 -93.5 226.5c0 45.333 8.83301 88 26.5 128s42.167 75 73.5 105
c26.667 28 54.334 53.167 83.001 75.5s64.834 44.666 108.501 66.999s91.167 40.833 142.5 55.5s112.833 26.5 184.5 35.5s150.167 13.5 235.5 13.5c110.667 0 214.667 -16.333 312 -49s181.333 -78 252 -136s126.334 -129.333 167.001 -214s61 -176.667 61 -276zM1240 444
v138.001c-41.333 39.333 -87.833 72.5 -139.5 99.5s-99.5 40.5 -143.5 40.5c-94.667 0 -161.334 -15.833 -200.001 -47.5s-58 -82.834 -58 -153.501c0 -84.667 16.667 -147 50 -187s95.333 -60 186 -60c51.333 0 104.833 16.5 160.5 49.5s103.834 73.167 144.501 120.5z" />
    <glyph glyph-name="acircumflex" unicode="&#xe2;" horiz-adv-x="2100" 
d="M1740 2000h-520l-200 480l-200 -480h-520l480 640h480zM1800 1205l-0.000976562 -885h200v-320h-623l-89 208c-68 -97.333 -146.833 -164 -236.5 -200s-214.834 -54 -375.501 -54c-83.333 0 -160.833 14.5 -232.5 43.5s-132.667 68.5 -183 118.5
s-89.666 110 -117.999 180s-42.5 145 -42.5 225c0 138 54 252.5 162 343.5s246 136.5 414 136.5c135.333 0 247.333 -12.833 336 -38.5s164.667 -66.5 228 -122.5v424c0 60 -8.16699 110.167 -24.5 150.5s-40.833 71.333 -73.5 93s-69.334 36.834 -110.001 45.501
s-89.334 13 -146.001 13c-45.333 0 -86.333 -9.66699 -123 -29c20.667 -43.333 31 -89 31 -137c0 -88.667 -31.167 -164.167 -93.5 -226.5s-137.833 -93.5 -226.5 -93.5s-164.167 31.167 -226.5 93.5s-93.5 137.833 -93.5 226.5c0 45.333 8.83301 88 26.5 128
s42.167 75 73.5 105c26.667 28 54.334 53.167 83.001 75.5s64.834 44.666 108.501 66.999s91.167 40.833 142.5 55.5s112.833 26.5 184.5 35.5s150.167 13.5 235.5 13.5c110.667 0 214.667 -16.333 312 -49s181.333 -78 252 -136s126.334 -129.333 167.001 -214
s61 -176.667 61 -276zM1240 444v138.001c-41.333 39.333 -87.833 72.5 -139.5 99.5s-99.5 40.5 -143.5 40.5c-94.667 0 -161.334 -15.833 -200.001 -47.5s-58 -82.834 -58 -153.501c0 -84.667 16.667 -147 50 -187s95.333 -60 186 -60c51.333 0 104.833 16.5 160.5 49.5
s103.834 73.167 144.501 120.5z" />
    <glyph glyph-name="atilde" unicode="&#xe3;" horiz-adv-x="2100" 
d="M1246 2344c0 77.333 27.333 143.333 82 198s120.667 82 198 82s143.333 -27.333 198 -82s82 -120.667 82 -198c0 -125.333 -31 -216.666 -93 -274c-34 -32 -71 -54.333 -111 -67s-92 -19 -156 -19c-82.667 0 -166.167 19.667 -250.5 59s-159.833 87 -226.5 143
c-2.66699 2 -10.667 8.83301 -24 20.5s-22.166 19.167 -26.499 22.5l-24 18.5c-11.667 9 -20.834 15.333 -27.501 19l-24.5 13c-9.66699 5 -18.834 8.5 -27.501 10.5s-17 3 -25 3v-21c0 -77.333 -27.333 -143.333 -82 -198s-120.667 -82 -198 -82s-143.333 27.333 -198 82
s-82 120.667 -82 198c0 125.333 31 216.666 93 274c34 32 71 54.333 111 67s92 19 156 19c82.667 0 166.167 -19.667 250.5 -59s159.833 -87 226.5 -143c2.66699 -2 10.667 -8.83301 24 -20.5s22.166 -19.167 26.499 -22.5l24 -18.5c11.667 -9 20.834 -15.333 27.501 -19
l24.5 -13c9.66699 -5 18.834 -8.5 27.501 -10.5s17 -3 25 -3v21zM1800 1205l-0.000976562 -885h200v-320h-623l-89 208c-68 -97.333 -146.833 -164 -236.5 -200s-214.834 -54 -375.501 -54c-83.333 0 -160.833 14.5 -232.5 43.5s-132.667 68.5 -183 118.5
s-89.666 110 -117.999 180s-42.5 145 -42.5 225c0 138 54 252.5 162 343.5s246 136.5 414 136.5c135.333 0 247.333 -12.833 336 -38.5s164.667 -66.5 228 -122.5v424c0 60 -8.16699 110.167 -24.5 150.5s-40.833 71.333 -73.5 93s-69.334 36.834 -110.001 45.501
s-89.334 13 -146.001 13c-45.333 0 -86.333 -9.66699 -123 -29c20.667 -43.333 31 -89 31 -137c0 -88.667 -31.167 -164.167 -93.5 -226.5s-137.833 -93.5 -226.5 -93.5s-164.167 31.167 -226.5 93.5s-93.5 137.833 -93.5 226.5c0 45.333 8.83301 88 26.5 128
s42.167 75 73.5 105c26.667 28 54.334 53.167 83.001 75.5s64.834 44.666 108.501 66.999s91.167 40.833 142.5 55.5s112.833 26.5 184.5 35.5s150.167 13.5 235.5 13.5c110.667 0 214.667 -16.333 312 -49s181.333 -78 252 -136s126.334 -129.333 167.001 -214
s61 -176.667 61 -276zM1240 444v138.001c-41.333 39.333 -87.833 72.5 -139.5 99.5s-99.5 40.5 -143.5 40.5c-94.667 0 -161.334 -15.833 -200.001 -47.5s-58 -82.834 -58 -153.501c0 -84.667 16.667 -147 50 -187s95.333 -60 186 -60c51.333 0 104.833 16.5 160.5 49.5
s103.834 73.167 144.501 120.5z" />
    <glyph glyph-name="adieresis" unicode="&#xe4;" horiz-adv-x="2100" 
d="M1500 2640c88.667 0 164.167 -31.167 226.5 -93.5s93.5 -137.833 93.5 -226.5s-31.167 -164.167 -93.5 -226.5s-137.833 -93.5 -226.5 -93.5s-164.167 31.167 -226.5 93.5s-93.5 137.833 -93.5 226.5s31.167 164.167 93.5 226.5s137.833 93.5 226.5 93.5zM540 2640
c88.667 0 164.167 -31.167 226.5 -93.5s93.5 -137.833 93.5 -226.5s-31.167 -164.167 -93.5 -226.5s-137.833 -93.5 -226.5 -93.5s-164.167 31.167 -226.5 93.5s-93.5 137.833 -93.5 226.5s31.167 164.167 93.5 226.5s137.833 93.5 226.5 93.5zM1800 1205l-0.000976562 -885
h200v-320h-623l-89 208c-68 -97.333 -146.833 -164 -236.5 -200s-214.834 -54 -375.501 -54c-83.333 0 -160.833 14.5 -232.5 43.5s-132.667 68.5 -183 118.5s-89.666 110 -117.999 180s-42.5 145 -42.5 225c0 138 54 252.5 162 343.5s246 136.5 414 136.5
c135.333 0 247.333 -12.833 336 -38.5s164.667 -66.5 228 -122.5v424c0 60 -8.16699 110.167 -24.5 150.5s-40.833 71.333 -73.5 93s-69.334 36.834 -110.001 45.501s-89.334 13 -146.001 13c-45.333 0 -86.333 -9.66699 -123 -29c20.667 -43.333 31 -89 31 -137
c0 -88.667 -31.167 -164.167 -93.5 -226.5s-137.833 -93.5 -226.5 -93.5s-164.167 31.167 -226.5 93.5s-93.5 137.833 -93.5 226.5c0 45.333 8.83301 88 26.5 128s42.167 75 73.5 105c26.667 28 54.334 53.167 83.001 75.5s64.834 44.666 108.501 66.999
s91.167 40.833 142.5 55.5s112.833 26.5 184.5 35.5s150.167 13.5 235.5 13.5c110.667 0 214.667 -16.333 312 -49s181.333 -78 252 -136s126.334 -129.333 167.001 -214s61 -176.667 61 -276zM1240 444v138.001c-41.333 39.333 -87.833 72.5 -139.5 99.5
s-99.5 40.5 -143.5 40.5c-94.667 0 -161.334 -15.833 -200.001 -47.5s-58 -82.834 -58 -153.501c0 -84.667 16.667 -147 50 -187s95.333 -60 186 -60c51.333 0 104.833 16.5 160.5 49.5s103.834 73.167 144.501 120.5z" />
    <glyph glyph-name="aring" unicode="&#xe5;" horiz-adv-x="2100" 
d="M1020 2520c-33.333 0 -61.666 -11.667 -84.999 -35s-35 -51.666 -35 -85c0 -33.333 11.667 -61.666 35 -85c23.333 -23.333 51.666 -35 84.999 -35s61.666 11.667 84.999 35s35 51.666 35 85c0 33.333 -11.667 61.666 -35 85c-23.333 23.333 -51.666 35 -84.999 35z
M1460 2400c0 -121.333 -43 -225 -129 -311s-189.667 -129 -311 -129s-225 43 -311 129s-129 189.667 -129 311s43 225 129 311s189.667 129 311 129s225 -43 311 -129s129 -189.667 129 -311zM1800 1205l-0.000976562 -885h200v-320h-623l-89 208
c-68 -97.333 -146.833 -164 -236.5 -200s-214.834 -54 -375.501 -54c-83.333 0 -160.833 14.5 -232.5 43.5s-132.667 68.5 -183 118.5s-89.666 110 -117.999 180s-42.5 145 -42.5 225c0 138 54 252.5 162 343.5s246 136.5 414 136.5c135.333 0 247.333 -12.833 336 -38.5
s164.667 -66.5 228 -122.5v424c0 60 -8.16699 110.167 -24.5 150.5s-40.833 71.333 -73.5 93s-69.334 36.834 -110.001 45.501s-89.334 13 -146.001 13c-45.333 0 -86.333 -9.66699 -123 -29c20.667 -43.333 31 -89 31 -137c0 -88.667 -31.167 -164.167 -93.5 -226.5
s-137.833 -93.5 -226.5 -93.5s-164.167 31.167 -226.5 93.5s-93.5 137.833 -93.5 226.5c0 45.333 8.83301 88 26.5 128s42.167 75 73.5 105c26.667 28 54.334 53.167 83.001 75.5s64.834 44.666 108.501 66.999s91.167 40.833 142.5 55.5s112.833 26.5 184.5 35.5
s150.167 13.5 235.5 13.5c110.667 0 214.667 -16.333 312 -49s181.333 -78 252 -136s126.334 -129.333 167.001 -214s61 -176.667 61 -276zM1240 444v138.001c-41.333 39.333 -87.833 72.5 -139.5 99.5s-99.5 40.5 -143.5 40.5c-94.667 0 -161.334 -15.833 -200.001 -47.5
s-58 -82.834 -58 -153.501c0 -84.667 16.667 -147 50 -187s95.333 -60 186 -60c51.333 0 104.833 16.5 160.5 49.5s103.834 73.167 144.501 120.5z" />
    <glyph glyph-name="ae" unicode="&#xe6;" horiz-adv-x="3181" 
d="M3100 909l2 -1.00195l-25 -108h-1295c6 -77.333 18.5 -146.333 37.5 -207s42.333 -110.334 70 -149.001s60 -70.5 97 -95.5s74.667 -42.667 113 -53s79.5 -15.5 123.5 -15.5c140.667 0 250.667 27.167 330 81.5s142.666 138.166 190 251.499l266 -92
c-24 -64.667 -54.5 -125.5 -91.5 -182.5s-81.5 -109.5 -133.5 -157.5s-109.833 -89.167 -173.5 -123.5s-135.5 -61.166 -215.5 -80.499s-164.333 -29 -253 -29c-286 0 -493.333 111.333 -622 334c-26 -51.333 -57.833 -96.5 -95.5 -135.5s-82.834 -73.167 -135.501 -102.5
s-115 -51.666 -187 -66.999s-152.667 -23 -242 -23c-117.333 0 -221 9.5 -311 28.5s-164.333 44.833 -223 77.5s-106.667 73.334 -144 122.001s-63.666 100.5 -78.999 155.5s-23 116.167 -23 183.5c0 138 54 252.5 162 343.5s246 136.5 414 136.5
c153.333 0 266.166 -4.16699 338.499 -12.5s147.5 -25.833 225.5 -52.5v64c0 73.333 -3 138.333 -9 195s-13.833 104.834 -23.5 144.501s-23 73.5 -40 101.5s-34.333 50 -52 66s-39.834 28.5 -66.501 37.5s-52 14.833 -76 17.5s-53 4 -87 4
c-45.333 0 -86.333 -9.66699 -123 -29c20.667 -43.333 31 -89 31 -137c0 -88.667 -31.167 -164.167 -93.5 -226.5s-137.833 -93.5 -226.5 -93.5s-164.167 31.167 -226.5 93.5s-93.5 137.833 -93.5 226.5c0 45.333 8.83301 88 26.5 128s42.167 75 73.5 105
c26.667 28 54.334 53.167 83.001 75.5s64.834 44.666 108.501 66.999s91.167 40.833 142.5 55.5s112.833 26.5 184.5 35.5s150.167 13.5 235.5 13.5c258 0 447 -91 567 -273c130 182 325.667 273 587 273c87.333 0 172.166 -10.667 254.5 -32
c82.333 -21.333 158.666 -51.666 229 -90.999c70.333 -39.333 134.833 -87.833 193.5 -145.5s108.667 -122 150 -193s73.5 -150 96.5 -237s34.5 -177.833 34.5 -272.5zM1789 1120h706c-18 153.333 -56.667 265 -116 335s-138 105 -236 105
c-48.667 0 -92.167 -7.83301 -130.5 -23.5s-72.833 -40.667 -103.5 -75s-56.167 -80 -76.5 -137s-34.833 -125.167 -43.5 -204.5zM1220 494.998l0.000976562 183.001c-90 29.333 -184.333 44 -283 44c-94.667 0 -161.334 -15.833 -200.001 -47.5s-58 -82.834 -58 -153.501
c0 -84.667 16.667 -147 50 -187s95.333 -60 186 -60c58 0 114.167 18.833 168.5 56.5s99.833 92.5 136.5 164.5z" />
    <glyph glyph-name="ccedilla" unicode="&#xe7;" horiz-adv-x="2034" 
d="M917 -552c26.667 -5.33301 61.001 -8 103.001 -8c108.667 0 163 40 163 120c0 15.333 -3.33301 31.5 -10 48.5s-17.167 34.167 -31.5 51.5s-35.333 31.666 -63 42.999s-59.834 17 -96.501 17l25 241c-83.333 4 -164 17.5 -242 40.5s-150.5 54.167 -217.5 93.5
s-128.167 87.333 -183.5 144s-102.5 119.334 -141.5 188.001s-69.167 145 -90.5 229s-32 172 -32 264c0 114 16 221.333 48 322s77.167 189.667 135.5 267s126.833 144 205.5 200s166 98.5 262 127.5s196.667 43.5 302 43.5c83.333 0 161.666 -7.83301 234.999 -23.5
s138.833 -37 196.5 -64s111.5 -60.5 161.5 -100.5s93.833 -82.5 131.5 -127.5s72.834 -95.5 105.501 -151.5c34 -52.667 51 -110.334 51 -173.001c0 -88.667 -31.167 -164.167 -93.5 -226.5s-137.833 -93.5 -226.5 -93.5s-164.167 31.167 -226.5 93.5
s-93.5 137.833 -93.5 226.5c0 49.333 10.5 95.666 31.5 138.999s49.833 80 86.5 110c-76 47.333 -172.667 71 -290 71c-47.333 0 -91.333 -6.5 -132 -19.5s-79.5 -35.167 -116.5 -66.5s-68.5 -71 -94.5 -119s-46.667 -109 -62 -183s-23 -158 -23 -252
s8.33301 -177.667 25 -251s38.834 -133.333 66.501 -180s61 -85 100 -115s79.167 -51.167 120.5 -63.5s86 -18.5 134 -18.5c140.667 0 250.5 27.167 329.5 81.5s142.167 138.166 189.5 251.499l266 -92c-26 -71.333 -60.333 -137.666 -103 -198.999s-93 -117 -151 -167
s-125.5 -91.833 -202.5 -125.5s-159.833 -57.167 -248.5 -70.5v-51c54.667 -10.667 100.834 -24.167 138.501 -40.5s72.667 -39.166 105 -68.499s56.5 -68.166 72.5 -116.499s24 -106.5 24 -174.5c0 -96.667 -44 -174.167 -132 -232.5s-210.667 -87.5 -368 -87.5
c-104.667 0 -196.834 6.16699 -276.501 18.5s-144.667 29 -195 50s-91.333 47.167 -123 78.5s-53.834 64.166 -66.501 98.499s-19 72.5 -19 114.5c0 77.333 27.333 143.333 82 198s120.667 82 198 82s143.333 -27.333 198 -82s82 -120.667 82 -198
c0 -39.333 -7.66699 -76.666 -23 -111.999z" />
    <glyph glyph-name="egrave" unicode="&#xe8;" horiz-adv-x="2096" 
d="M1421 2091c10.667 -10.667 15.999 -23.334 15.999 -38c0 -14.667 -5.16699 -27.167 -15.5 -37.5s-22.833 -15.5 -37.5 -15.5c-4 0 -8.66699 0.666992 -14 2l-656 176c-51.333 14 -93.166 42 -125.499 84s-48.5 89.667 -48.5 143c0 64.667 23 120 69 166
s101.333 69 166 69s120 -23 166 -69zM697.999 800c6 -77.333 18.666 -146.332 37.999 -206.999s42.833 -110.334 70.5 -149.001s59.834 -70.5 96.501 -95.5s74.334 -42.667 113.001 -53s80 -15.5 124 -15.5c140.667 0 250.5 27.167 329.5 81.5
s142.167 138.166 189.5 251.499l266 -92c-24 -64.667 -54.5 -125.5 -91.5 -182.5s-81.5 -109.5 -133.5 -157.5s-109.833 -89.167 -173.5 -123.5s-135.5 -61.166 -215.5 -80.499s-164.333 -29 -253 -29c-131.333 0 -255.5 23 -372.5 69s-218.667 110.167 -305 192.5
s-154.666 183.833 -204.999 304.5s-75.5 252 -75.5 394s25.167 274 75.5 396s118.666 224.833 204.999 308.5s188 149.167 305 196.5s241.167 71 372.5 71s255.5 -23.667 372.5 -71s218.667 -112.833 305 -196.5s154.666 -186.5 204.999 -308.5s75.5 -254 75.5 -396
l-25 -108h-1293zM704.998 1120h706.001c-17.333 153.333 -55.666 265 -114.999 335s-138 105 -236 105c-48.667 0 -92.334 -7.83301 -131.001 -23.5s-73.334 -40.667 -104.001 -75s-56.167 -80 -76.5 -137s-34.833 -125.167 -43.5 -204.5z" />
    <glyph glyph-name="eacute" unicode="&#xe9;" horiz-adv-x="2096" 
d="M625 2092l479.999 480c46 46 101.333 69 166 69s120 -22.833 166 -68.5s69 -101.167 69 -166.5c0 -53.333 -16.167 -101 -48.5 -143s-74.166 -70 -125.499 -84l-656 -176c-5.33301 -1.33301 -10 -2 -14 -2c-14.667 0 -27.167 5.16699 -37.5 15.5s-15.5 22.833 -15.5 37.5
s5.33301 27.334 16 38zM697.999 800c6 -77.333 18.666 -146.332 37.999 -206.999s42.833 -110.334 70.5 -149.001s59.834 -70.5 96.501 -95.5s74.334 -42.667 113.001 -53s80 -15.5 124 -15.5c140.667 0 250.5 27.167 329.5 81.5s142.167 138.166 189.5 251.499l266 -92
c-24 -64.667 -54.5 -125.5 -91.5 -182.5s-81.5 -109.5 -133.5 -157.5s-109.833 -89.167 -173.5 -123.5s-135.5 -61.166 -215.5 -80.499s-164.333 -29 -253 -29c-131.333 0 -255.5 23 -372.5 69s-218.667 110.167 -305 192.5s-154.666 183.833 -204.999 304.5
s-75.5 252 -75.5 394s25.167 274 75.5 396s118.666 224.833 204.999 308.5s188 149.167 305 196.5s241.167 71 372.5 71s255.5 -23.667 372.5 -71s218.667 -112.833 305 -196.5s154.666 -186.5 204.999 -308.5s75.5 -254 75.5 -396l-25 -108h-1293zM704.998 1120h706.001
c-17.333 153.333 -55.666 265 -114.999 335s-138 105 -236 105c-48.667 0 -92.334 -7.83301 -131.001 -23.5s-73.334 -40.667 -104.001 -75s-56.167 -80 -76.5 -137s-34.833 -125.167 -43.5 -204.5z" />
    <glyph glyph-name="ecircumflex" unicode="&#xea;" horiz-adv-x="2096" 
d="M1780 2000h-520l-200 480l-200 -480h-520l480 640h480zM698 800c6 -77.333 18.666 -146.332 37.999 -206.999s42.833 -110.334 70.5 -149.001s59.834 -70.5 96.501 -95.5s74.334 -42.667 113.001 -53s80 -15.5 124 -15.5c140.667 0 250.5 27.167 329.5 81.5
s142.167 138.166 189.5 251.499l266 -92c-24 -64.667 -54.5 -125.5 -91.5 -182.5s-81.5 -109.5 -133.5 -157.5s-109.833 -89.167 -173.5 -123.5s-135.5 -61.166 -215.5 -80.499s-164.333 -29 -253 -29c-131.333 0 -255.5 23 -372.5 69s-218.667 110.167 -305 192.5
s-154.666 183.833 -204.999 304.5s-75.5 252 -75.5 394s25.167 274 75.5 396s118.666 224.833 204.999 308.5s188 149.167 305 196.5s241.167 71 372.5 71s255.5 -23.667 372.5 -71s218.667 -112.833 305 -196.5s154.666 -186.5 204.999 -308.5s75.5 -254 75.5 -396
l-25 -108h-1293zM704.999 1120h706.001c-17.333 153.333 -55.666 265 -114.999 335s-138 105 -236 105c-48.667 0 -92.334 -7.83301 -131.001 -23.5s-73.334 -40.667 -104.001 -75s-56.167 -80 -76.5 -137s-34.833 -125.167 -43.5 -204.5z" />
    <glyph glyph-name="edieresis" unicode="&#xeb;" horiz-adv-x="2096" 
d="M1540 2640c88.667 0 164.167 -31.167 226.5 -93.5s93.5 -137.833 93.5 -226.5s-31.167 -164.167 -93.5 -226.5s-137.833 -93.5 -226.5 -93.5s-164.167 31.167 -226.5 93.5s-93.5 137.833 -93.5 226.5s31.167 164.167 93.5 226.5s137.833 93.5 226.5 93.5zM580 2640
c88.667 0 164.167 -31.167 226.5 -93.5s93.5 -137.833 93.5 -226.5s-31.167 -164.167 -93.5 -226.5s-137.833 -93.5 -226.5 -93.5s-164.167 31.167 -226.5 93.5s-93.5 137.833 -93.5 226.5s31.167 164.167 93.5 226.5s137.833 93.5 226.5 93.5zM698 800
c6 -77.333 18.666 -146.332 37.999 -206.999s42.833 -110.334 70.5 -149.001s59.834 -70.5 96.501 -95.5s74.334 -42.667 113.001 -53s80 -15.5 124 -15.5c140.667 0 250.5 27.167 329.5 81.5s142.167 138.166 189.5 251.499l266 -92c-24 -64.667 -54.5 -125.5 -91.5 -182.5
s-81.5 -109.5 -133.5 -157.5s-109.833 -89.167 -173.5 -123.5s-135.5 -61.166 -215.5 -80.499s-164.333 -29 -253 -29c-131.333 0 -255.5 23 -372.5 69s-218.667 110.167 -305 192.5s-154.666 183.833 -204.999 304.5s-75.5 252 -75.5 394s25.167 274 75.5 396
s118.666 224.833 204.999 308.5s188 149.167 305 196.5s241.167 71 372.5 71s255.5 -23.667 372.5 -71s218.667 -112.833 305 -196.5s154.666 -186.5 204.999 -308.5s75.5 -254 75.5 -396l-25 -108h-1293zM704.999 1120h706.001c-17.333 153.333 -55.666 265 -114.999 335
s-138 105 -236 105c-48.667 0 -92.334 -7.83301 -131.001 -23.5s-73.334 -40.667 -104.001 -75s-56.167 -80 -76.5 -137s-34.833 -125.167 -43.5 -204.5z" />
    <glyph glyph-name="igrave" unicode="&#xec;" horiz-adv-x="1120" 
d="M921 2091c10.667 -10.667 15.999 -23.334 15.999 -38c0 -14.667 -5.16699 -27.167 -15.5 -37.5s-22.833 -15.5 -37.5 -15.5c-4 0 -8.66699 0.666992 -14 2l-656 176c-51.333 14 -93.166 42 -125.499 84s-48.5 89.667 -48.5 143c0 64.667 23 120 69 166s101.333 69 166 69
s120 -23 166 -69zM79.999 1840h760v-1520h200v-320h-960v320h200v1200h-200v320z" />
    <glyph glyph-name="iacute" unicode="&#xed;" horiz-adv-x="1120" 
d="M127 2086l479.999 480c46 46 101.333 69 166 69s120 -22.833 166 -68.5s69 -101.167 69 -166.5c0 -53.333 -16.167 -101 -48.5 -143s-74.166 -70 -125.499 -84l-656 -176c-5.33301 -1.33301 -10 -2 -14 -2c-14.667 0 -27.167 5.16699 -37.5 15.5s-15.5 22.833 -15.5 37.5
s5.33301 27.334 16 38zM79.999 1840h760v-1520h200v-320h-960v320h200v1200h-200v320z" />
    <glyph glyph-name="icircumflex" unicode="&#xee;" horiz-adv-x="1120" 
d="M1280 2000h-520l-200 480l-200 -480h-520l480 640h480zM80 1840h760v-1520h200v-320h-960v320h200v1200h-200v320z" />
    <glyph glyph-name="idieresis" unicode="&#xef;" horiz-adv-x="1120" 
d="M80 2640c88.667 0 164.167 -31.167 226.5 -93.5s93.5 -137.833 93.5 -226.5s-31.167 -164.167 -93.5 -226.5s-137.833 -93.5 -226.5 -93.5s-164.167 31.167 -226.5 93.5s-93.5 137.833 -93.5 226.5s31.167 164.167 93.5 226.5s137.833 93.5 226.5 93.5zM1040 2640
c88.667 0 164.167 -31.167 226.5 -93.5s93.5 -137.833 93.5 -226.5s-31.167 -164.167 -93.5 -226.5s-137.833 -93.5 -226.5 -93.5s-164.167 31.167 -226.5 93.5s-93.5 137.833 -93.5 226.5s31.167 164.167 93.5 226.5s137.833 93.5 226.5 93.5zM80 1840h760v-1520h200v-320
h-960v320h200v1200h-200v320z" />
    <glyph glyph-name="eth" unicode="&#xf0;" horiz-adv-x="2080" 
d="M1889 2560l-0.00292969 -330.999l-199 -53c59.333 -77.333 109 -156.666 149 -237.999s71.833 -167.333 95.5 -258s40.5 -183.834 50.5 -279.501s15 -202.5 15 -320.5c0 -131.333 -10.333 -251.5 -31 -360.5s-51 -204.333 -91 -286s-87.833 -152.834 -143.5 -213.501
s-119.667 -110 -192 -148s-150.166 -66.167 -233.499 -84.5s-173.666 -27.5 -270.999 -27.5c-131.333 0 -255.5 23 -372.5 69s-218.667 110.167 -305 192.5s-154.666 183.833 -204.999 304.5s-75.5 252 -75.5 394c0 147.333 15.667 279 47 395s78.833 216.5 142.5 301.5
s147 150.167 250 195.5s223.167 68 360.5 68c199.333 0 362 -84.333 488 -253c-27.333 160 -72 302 -134 426l-444 -119v332l245 65c-58.667 58.667 -123.667 108.334 -195 149l360 160c90.667 -68 171.667 -134.333 243 -199zM1396 1105
c-6.66699 60.667 -22.167 119.504 -46.5 176.504s-53.166 105.667 -86.499 146s-70 72.5 -110 96.5s-78.333 36 -115 36c-46.667 0 -88.334 -6.66699 -125.001 -20s-70.334 -35.333 -101.001 -66s-55.834 -70.334 -75.501 -119.001s-35 -109.334 -46 -182.001
s-16.5 -157 -16.5 -253s5.5 -180.333 16.5 -253s26.333 -133.334 46 -182.001s44.834 -88.334 75.501 -119.001s64.334 -52.667 101.001 -66s78.334 -20 125.001 -20c43.333 0 82.166 8.5 116.499 25.5s66.166 45.333 95.499 85s54 91 74 154s36.333 141.333 49 235
s20.334 202.167 23.001 325.5z" />
    <glyph glyph-name="ntilde" unicode="&#xf1;" 
d="M1366 2344c0 77.333 27.333 143.333 82 198s120.667 82 198 82s143.333 -27.333 198 -82s82 -120.667 82 -198c0 -125.333 -31 -216.666 -93 -274c-34 -32 -71 -54.333 -111 -67s-92 -19 -156 -19c-82.667 0 -166.167 19.667 -250.5 59s-159.833 87 -226.5 143
c-2.66699 2 -10.667 8.83301 -24 20.5s-22.166 19.167 -26.499 22.5l-24 18.5c-11.667 9 -20.834 15.333 -27.501 19l-24.5 13c-9.66699 5 -18.834 8.5 -27.501 10.5s-17 3 -25 3v-21c0 -77.333 -27.333 -143.333 -82 -198s-120.667 -82 -198 -82s-143.333 27.333 -198 82
s-82 120.667 -82 198c0 125.333 31 216.666 93 274c34 32 71 54.333 111 67s92 19 156 19c82.667 0 166.167 -19.667 250.5 -59s159.833 -87 226.5 -143c2.66699 -2 10.667 -8.83301 24 -20.5s22.166 -19.167 26.499 -22.5l24 -18.5c11.667 -9 20.834 -15.333 27.501 -19
l24.5 -13c9.66699 -5 18.834 -8.5 27.501 -10.5s17 -3 25 -3v21zM1400 1880c93.333 0 175 -12.6719 245 -38.0049s127.333 -60.166 172 -104.499s80.834 -100.666 108.501 -168.999s47 -141.666 58 -219.999s16.5 -167.833 16.5 -268.5v-760h200v-320h-960v320h200v800
c0 105.333 -9.5 187.333 -28.5 246s-46.333 99 -82 121s-84.167 33 -145.5 33c-56 0 -113.333 -23.667 -172 -71s-114.334 -113.333 -167.001 -198l-5 -931h200v-320h-960v320h200v1200h-200v320h621l140 -271c24.667 44.667 53.167 84.834 85.5 120.501
s71 68.334 116 98.001s97.833 52.5 158.5 68.5s127 24 199 24z" />
    <glyph glyph-name="ograve" unicode="&#xf2;" horiz-adv-x="2117" 
d="M1419 2085c10.667 -10.667 15.999 -23.334 15.999 -38c0 -14.667 -5.16699 -27.167 -15.5 -37.5s-22.833 -15.5 -37.5 -15.5c-4 0 -8.66699 0.666992 -14 2l-656 176c-51.333 14 -93.166 42 -125.499 84s-48.5 89.667 -48.5 143c0 64.667 23 120 69 166
s101.333 69 166 69s120 -23 166 -69zM1058 1874c131.333 0 255.5 -23 372.5 -69s218.833 -110.167 305.5 -192.5s155.167 -183.833 205.5 -304.5s75.5 -252 75.5 -394s-25.167 -273.333 -75.5 -394s-118.833 -222.167 -205.5 -304.5s-188.5 -146.5 -305.5 -192.5
s-241.167 -69 -372.5 -69s-255.5 23 -372.5 69s-218.667 110.167 -305 192.5s-154.666 183.833 -204.999 304.5s-75.5 252 -75.5 394s25.167 273.333 75.5 394s118.666 222.167 204.999 304.5s188 146.5 305 192.5s241.167 69 372.5 69zM1058 1554
c-46.667 0 -88.334 -6.65918 -125.001 -19.9922s-70.334 -35.333 -101.001 -66s-55.834 -70.334 -75.501 -119.001s-35 -109.334 -46 -182.001s-16.5 -157 -16.5 -253s5.5 -180.333 16.5 -253s26.333 -133.334 46 -182.001s44.834 -88.334 75.501 -119.001
s64.334 -52.667 101.001 -66s78.334 -20 125.001 -20c58.667 0 109.667 11.167 153 33.5s81.166 58.166 113.499 107.499s56.666 115.666 72.999 198.999s24.5 183.333 24.5 300s-8.16699 216.667 -24.5 300s-40.666 149.666 -72.999 198.999
s-70.166 85.166 -113.499 107.499s-94.333 33.5 -153 33.5z" />
    <glyph glyph-name="oacute" unicode="&#xf3;" horiz-adv-x="2117" 
d="M626 2086l479.999 480c46 46 101.333 69 166 69s120 -22.833 166 -68.5s69 -101.167 69 -166.5c0 -53.333 -16.167 -101 -48.5 -143s-74.166 -70 -125.499 -84l-656 -176c-5.33301 -1.33301 -10 -2 -14 -2c-14.667 0 -27.167 5.16699 -37.5 15.5s-15.5 22.833 -15.5 37.5
s5.33301 27.334 16 38zM1058 1874c131.333 0 255.5 -23 372.5 -69s218.833 -110.167 305.5 -192.5s155.167 -183.833 205.5 -304.5s75.5 -252 75.5 -394s-25.167 -273.333 -75.5 -394s-118.833 -222.167 -205.5 -304.5s-188.5 -146.5 -305.5 -192.5s-241.167 -69 -372.5 -69
s-255.5 23 -372.5 69s-218.667 110.167 -305 192.5s-154.666 183.833 -204.999 304.5s-75.5 252 -75.5 394s25.167 273.333 75.5 394s118.666 222.167 204.999 304.5s188 146.5 305 192.5s241.167 69 372.5 69zM1058 1554c-46.667 0 -88.334 -6.65918 -125.001 -19.9922
s-70.334 -35.333 -101.001 -66s-55.834 -70.334 -75.501 -119.001s-35 -109.334 -46 -182.001s-16.5 -157 -16.5 -253s5.5 -180.333 16.5 -253s26.333 -133.334 46 -182.001s44.834 -88.334 75.501 -119.001s64.334 -52.667 101.001 -66s78.334 -20 125.001 -20
c58.667 0 109.667 11.167 153 33.5s81.166 58.166 113.499 107.499s56.666 115.666 72.999 198.999s24.5 183.333 24.5 300s-8.16699 216.667 -24.5 300s-40.666 149.666 -72.999 198.999s-70.166 85.166 -113.499 107.499s-94.333 33.5 -153 33.5z" />
    <glyph glyph-name="ocircumflex" unicode="&#xf4;" horiz-adv-x="2117" 
d="M1778 1994h-520l-200 480l-200 -480h-520l480 640h480zM1058 1874c131.333 0 255.5 -23 372.5 -69s218.833 -110.167 305.5 -192.5s155.167 -183.833 205.5 -304.5s75.5 -252 75.5 -394s-25.167 -273.333 -75.5 -394s-118.833 -222.167 -205.5 -304.5
s-188.5 -146.5 -305.5 -192.5s-241.167 -69 -372.5 -69s-255.5 23 -372.5 69s-218.667 110.167 -305 192.5s-154.666 183.833 -204.999 304.5s-75.5 252 -75.5 394s25.167 273.333 75.5 394s118.666 222.167 204.999 304.5s188 146.5 305 192.5s241.167 69 372.5 69z
M1058 1554c-46.667 0 -88.334 -6.65918 -125.001 -19.9922s-70.334 -35.333 -101.001 -66s-55.834 -70.334 -75.501 -119.001s-35 -109.334 -46 -182.001s-16.5 -157 -16.5 -253s5.5 -180.333 16.5 -253s26.333 -133.334 46 -182.001s44.834 -88.334 75.501 -119.001
s64.334 -52.667 101.001 -66s78.334 -20 125.001 -20c58.667 0 109.667 11.167 153 33.5s81.166 58.166 113.499 107.499s56.666 115.666 72.999 198.999s24.5 183.333 24.5 300s-8.16699 216.667 -24.5 300s-40.666 149.666 -72.999 198.999
s-70.166 85.166 -113.499 107.499s-94.333 33.5 -153 33.5z" />
    <glyph glyph-name="otilde" unicode="&#xf5;" horiz-adv-x="2117" 
d="M1284 2338c0 77.333 27.333 143.333 82 198s120.667 82 198 82s143.333 -27.333 198 -82s82 -120.667 82 -198c0 -125.333 -31 -216.666 -93 -274c-34 -32 -71 -54.333 -111 -67s-92 -19 -156 -19c-82.667 0 -166.167 19.667 -250.5 59s-159.833 87 -226.5 143
c-2.66699 2 -10.667 8.83301 -24 20.5s-22.166 19.167 -26.499 22.5l-24 18.5c-11.667 9 -20.834 15.333 -27.501 19l-24.5 13c-9.66699 5 -18.834 8.5 -27.501 10.5s-17 3 -25 3v-21c0 -77.333 -27.333 -143.333 -82 -198s-120.667 -82 -198 -82s-143.333 27.333 -198 82
s-82 120.667 -82 198c0 125.333 31 216.666 93 274c34 32 71 54.333 111 67s92 19 156 19c82.667 0 166.167 -19.667 250.5 -59s159.833 -87 226.5 -143c2.66699 -2 10.667 -8.83301 24 -20.5s22.166 -19.167 26.499 -22.5l24 -18.5c11.667 -9 20.834 -15.333 27.501 -19
l24.5 -13c9.66699 -5 18.834 -8.5 27.501 -10.5s17 -3 25 -3v21zM1058 1874c131.333 0 255.5 -23 372.5 -69s218.833 -110.167 305.5 -192.5s155.167 -183.833 205.5 -304.5s75.5 -252 75.5 -394s-25.167 -273.333 -75.5 -394s-118.833 -222.167 -205.5 -304.5
s-188.5 -146.5 -305.5 -192.5s-241.167 -69 -372.5 -69s-255.5 23 -372.5 69s-218.667 110.167 -305 192.5s-154.666 183.833 -204.999 304.5s-75.5 252 -75.5 394s25.167 273.333 75.5 394s118.666 222.167 204.999 304.5s188 146.5 305 192.5s241.167 69 372.5 69z
M1058 1554c-46.667 0 -88.334 -6.65918 -125.001 -19.9922s-70.334 -35.333 -101.001 -66s-55.834 -70.334 -75.501 -119.001s-35 -109.334 -46 -182.001s-16.5 -157 -16.5 -253s5.5 -180.333 16.5 -253s26.333 -133.334 46 -182.001s44.834 -88.334 75.501 -119.001
s64.334 -52.667 101.001 -66s78.334 -20 125.001 -20c58.667 0 109.667 11.167 153 33.5s81.166 58.166 113.499 107.499s56.666 115.666 72.999 198.999s24.5 183.333 24.5 300s-8.16699 216.667 -24.5 300s-40.666 149.666 -72.999 198.999
s-70.166 85.166 -113.499 107.499s-94.333 33.5 -153 33.5z" />
    <glyph glyph-name="odieresis" unicode="&#xf6;" horiz-adv-x="2117" 
d="M578 2634c88.667 0 164.167 -31.167 226.5 -93.5s93.5 -137.833 93.5 -226.5s-31.167 -164.167 -93.5 -226.5s-137.833 -93.5 -226.5 -93.5s-164.167 31.167 -226.5 93.5s-93.5 137.833 -93.5 226.5s31.167 164.167 93.5 226.5s137.833 93.5 226.5 93.5zM1538 2634
c88.667 0 164.167 -31.167 226.5 -93.5s93.5 -137.833 93.5 -226.5s-31.167 -164.167 -93.5 -226.5s-137.833 -93.5 -226.5 -93.5s-164.167 31.167 -226.5 93.5s-93.5 137.833 -93.5 226.5s31.167 164.167 93.5 226.5s137.833 93.5 226.5 93.5zM1058 1874
c131.333 0 255.5 -23 372.5 -69s218.833 -110.167 305.5 -192.5s155.167 -183.833 205.5 -304.5s75.5 -252 75.5 -394s-25.167 -273.333 -75.5 -394s-118.833 -222.167 -205.5 -304.5s-188.5 -146.5 -305.5 -192.5s-241.167 -69 -372.5 -69s-255.5 23 -372.5 69
s-218.667 110.167 -305 192.5s-154.666 183.833 -204.999 304.5s-75.5 252 -75.5 394s25.167 273.333 75.5 394s118.666 222.167 204.999 304.5s188 146.5 305 192.5s241.167 69 372.5 69zM1058 1554c-46.667 0 -88.334 -6.65918 -125.001 -19.9922
s-70.334 -35.333 -101.001 -66s-55.834 -70.334 -75.501 -119.001s-35 -109.334 -46 -182.001s-16.5 -157 -16.5 -253s5.5 -180.333 16.5 -253s26.333 -133.334 46 -182.001s44.834 -88.334 75.501 -119.001s64.334 -52.667 101.001 -66s78.334 -20 125.001 -20
c58.667 0 109.667 11.167 153 33.5s81.166 58.166 113.499 107.499s56.666 115.666 72.999 198.999s24.5 183.333 24.5 300s-8.16699 216.667 -24.5 300s-40.666 149.666 -72.999 198.999s-70.166 85.166 -113.499 107.499s-94.333 33.5 -153 33.5z" />
    <glyph glyph-name="divide" unicode="&#xf7;" horiz-adv-x="1680" 
d="M80 1400h1520v-320h-1520v320zM600 1800c0 66.667 23.333 123.334 70 170.001s103.334 70 170.001 70s123.334 -23.333 170.001 -70s70 -103.334 70 -170.001s-23.333 -123.334 -70 -170.001s-103.334 -70 -170.001 -70s-123.334 23.333 -170.001 70
s-70 103.334 -70 170.001zM600 680c0 66.667 23.333 123.334 70 170.001s103.334 70 170.001 70s123.334 -23.333 170.001 -70s70 -103.334 70 -170.001s-23.333 -123.334 -70 -170.001s-103.334 -70 -170.001 -70s-123.334 23.333 -170.001 70s-70 103.334 -70 170.001z
" />
    <glyph glyph-name="oslash" unicode="&#xf8;" horiz-adv-x="2117" 
d="M1497 2000h370.001l-193 -334c108 -86 192.167 -193.333 252.5 -322s90.5 -272 90.5 -430c0 -142 -25.167 -273.333 -75.5 -394s-118.833 -222.167 -205.5 -304.5s-188.5 -146.5 -305.5 -192.5s-241.167 -69 -372.5 -69c-118.667 0 -232 18.667 -340 56l-98 -170h-370
l188 326c-106 86 -188.833 193 -248.5 321s-89.5 270.333 -89.5 427c0 142 25.167 273.333 75.5 394s118.666 222.167 204.999 304.5s188 146.5 305 192.5s241.167 69 372.5 69c117.333 0 229 -18 335 -54zM1058 1554c-46.667 0 -88.3311 -6.66504 -124.998 -19.998
s-70.334 -35.333 -101.001 -66s-55.834 -70.334 -75.501 -119.001s-35 -109.334 -46 -182.001s-16.5 -157 -16.5 -253c0 -104 6.33301 -194.667 19 -272l505 875c-44.667 24.667 -98 37 -160 37zM1401 1193l-507.998 -880.998c45.333 -25.333 100.333 -38 165 -38
c58.667 0 109.667 11.167 153 33.5s81.166 58.166 113.499 107.499s56.666 115.666 72.999 198.999s24.5 183.333 24.5 300c0 106.667 -7 199.667 -21 279z" />
    <glyph glyph-name="ugrave" unicode="&#xf9;" 
d="M1491 2091c10.667 -10.667 15.999 -23.334 15.999 -38c0 -14.667 -5.16699 -27.167 -15.5 -37.5s-22.833 -15.5 -37.5 -15.5c-4 0 -8.66699 0.666992 -14 2l-656 176c-51.333 14 -93.166 42 -125.499 84s-48.5 89.667 -48.5 143c0 64.667 23 120 69 166
s101.333 69 166 69s120 -23 166 -69zM79.999 1840l760.001 0.00292969v-1120c0 -105.333 9.5 -187.333 28.5 -246s46.333 -99 82 -121s84.167 -33 145.5 -33c56 0 113.5 23.667 172.5 71s114.833 113.333 167.5 198l4 931h-200v320h760v-1520h200v-320h-621l-140 272
c-112.667 -208 -299 -312 -559 -312c-93.333 0 -175 12.667 -245 38s-127.333 60.166 -172 104.499s-80.834 100.666 -108.501 168.999s-47 141.666 -58 219.999s-16.5 167.833 -16.5 268.5v760h-200v320z" />
    <glyph glyph-name="uacute" unicode="&#xfa;" 
d="M707 2086l479.999 480c46 46 101.333 69 166 69s120 -22.833 166 -68.5s69 -101.167 69 -166.5c0 -53.333 -16.167 -101 -48.5 -143s-74.166 -70 -125.499 -84l-656 -176c-5.33301 -1.33301 -10 -2 -14 -2c-14.667 0 -27.167 5.16699 -37.5 15.5s-15.5 22.833 -15.5 37.5
s5.33301 27.334 16 38zM79.999 1840l760.001 0.00292969v-1120c0 -105.333 9.5 -187.333 28.5 -246s46.333 -99 82 -121s84.167 -33 145.5 -33c56 0 113.5 23.667 172.5 71s114.833 113.333 167.5 198l4 931h-200v320h760v-1520h200v-320h-621l-140 272
c-112.667 -208 -299 -312 -559 -312c-93.333 0 -175 12.667 -245 38s-127.333 60.166 -172 104.499s-80.834 100.666 -108.501 168.999s-47 141.666 -58 219.999s-16.5 167.833 -16.5 268.5v760h-200v320z" />
    <glyph glyph-name="ucircumflex" unicode="&#xfb;" 
d="M1850 2000h-520l-200 480l-200 -480h-520l480 640h480zM80 1840l760.001 0.00292969v-1120c0 -105.333 9.5 -187.333 28.5 -246s46.333 -99 82 -121s84.167 -33 145.5 -33c56 0 113.5 23.667 172.5 71s114.833 113.333 167.5 198l4 931h-200v320h760v-1520h200v-320h-621
l-140 272c-112.667 -208 -299 -312 -559 -312c-93.333 0 -175 12.667 -245 38s-127.333 60.166 -172 104.499s-80.834 100.666 -108.501 168.999s-47 141.666 -58 219.999s-16.5 167.833 -16.5 268.5v760h-200v320z" />
    <glyph glyph-name="udieresis" unicode="&#xfc;" 
d="M650 2640c88.667 0 164.167 -31.167 226.5 -93.5s93.5 -137.833 93.5 -226.5s-31.167 -164.167 -93.5 -226.5s-137.833 -93.5 -226.5 -93.5s-164.167 31.167 -226.5 93.5s-93.5 137.833 -93.5 226.5s31.167 164.167 93.5 226.5s137.833 93.5 226.5 93.5zM1610 2640
c88.667 0 164.167 -31.167 226.5 -93.5s93.5 -137.833 93.5 -226.5s-31.167 -164.167 -93.5 -226.5s-137.833 -93.5 -226.5 -93.5s-164.167 31.167 -226.5 93.5s-93.5 137.833 -93.5 226.5s31.167 164.167 93.5 226.5s137.833 93.5 226.5 93.5zM80 1840l760.001 0.00292969
v-1120c0 -105.333 9.5 -187.333 28.5 -246s46.333 -99 82 -121s84.167 -33 145.5 -33c56 0 113.5 23.667 172.5 71s114.833 113.333 167.5 198l4 931h-200v320h760v-1520h200v-320h-621l-140 272c-112.667 -208 -299 -312 -559 -312c-93.333 0 -175 12.667 -245 38
s-127.333 60.166 -172 104.499s-80.834 100.666 -108.501 168.999s-47 141.666 -58 219.999s-16.5 167.833 -16.5 268.5v760h-200v320z" />
    <glyph glyph-name="yacute" unicode="&#xfd;" horiz-adv-x="2320" 
d="M727 2086l479.999 480c46 46 101.333 69 166 69s120 -22.833 166 -68.5s69 -101.167 69 -166.5c0 -53.333 -16.167 -101 -48.5 -143s-74.166 -70 -125.499 -84l-656 -176c-5.33301 -1.33301 -10 -2 -14 -2c-14.667 0 -27.167 5.16699 -37.5 15.5s-15.5 22.833 -15.5 37.5
s5.33301 27.334 16 38zM132.999 -617c-35.333 53.333 -53 112.335 -53 177.002c0 88.667 31.167 164.167 93.5 226.5s137.833 93.5 226.5 93.5s164.167 -31.167 226.5 -93.5s93.5 -137.833 93.5 -226.5c0 -18.667 -1.66699 -36.667 -5 -54c2.66699 -0.666992 5 -1 7 -1
c48 0 106.667 79.333 176 238l75 172l-705 1605h-188v320h1120v-320h-329l317 -720c40.667 -94.667 70 -174.667 88 -240c18 65.333 47.333 145.333 88 240l316 720h-280v320h840v-320h-212l-668 -1520c-34.667 -78.667 -65.834 -146.5 -93.501 -203.5
s-58.667 -115 -93 -174s-67.5 -108.833 -99.5 -149.5s-68.167 -79.334 -108.5 -116.001s-82.166 -65.834 -125.499 -87.501s-91.333 -38.667 -144 -51s-109.334 -18.5 -170.001 -18.5c-56.667 0 -106.667 4.5 -150 13.5s-80.166 22.333 -110.499 40s-55.5 36.667 -75.5 57
s-39 44.5 -57 72.5z" />
    <glyph glyph-name="thorn" unicode="&#xfe;" horiz-adv-x="2250" 
d="M1452 1880c156 0 288.334 -39.498 397.001 -118.498s189.5 -189.833 242.5 -332.5s79.5 -312.667 79.5 -510c0 -144.667 -20 -277.167 -60 -397.5s-95.333 -221.333 -166 -303s-154.834 -145.167 -252.501 -190.5s-203.834 -68 -318.501 -68
c-214.667 0 -392.667 70.333 -534 211v-491h200v-320h-960v320h200v2480h-200v320h760v-940c27.333 47.333 59.333 90.666 96 129.999s79.834 75.166 129.501 107.499s107.5 57.5 173.5 75.5s137 27 213 27zM840.001 599.002c35.333 -82 81.333 -147.167 138 -195.5
s123.667 -72.5 201 -72.5c132 0 230 51.667 294 155s96 250 96 440c0 178 -37.167 321.5 -111.5 430.5s-162.833 163.5 -265.5 163.5c-73.333 0 -137.833 -22.5 -193.5 -67.5s-108.5 -112.167 -158.5 -201.5v-652z" />
    <glyph glyph-name="ydieresis" unicode="&#xff;" horiz-adv-x="2320" 
d="M1610 2640c88.667 0 164.167 -31.167 226.5 -93.5s93.5 -137.833 93.5 -226.5s-31.167 -164.167 -93.5 -226.5s-137.833 -93.5 -226.5 -93.5s-164.167 31.167 -226.5 93.5s-93.5 137.833 -93.5 226.5s31.167 164.167 93.5 226.5s137.833 93.5 226.5 93.5zM650 2640
c88.667 0 164.167 -31.167 226.5 -93.5s93.5 -137.833 93.5 -226.5s-31.167 -164.167 -93.5 -226.5s-137.833 -93.5 -226.5 -93.5s-164.167 31.167 -226.5 93.5s-93.5 137.833 -93.5 226.5s31.167 164.167 93.5 226.5s137.833 93.5 226.5 93.5zM133 -617
c-35.333 53.333 -53 112.335 -53 177.002c0 88.667 31.167 164.167 93.5 226.5s137.833 93.5 226.5 93.5s164.167 -31.167 226.5 -93.5s93.5 -137.833 93.5 -226.5c0 -18.667 -1.66699 -36.667 -5 -54c2.66699 -0.666992 5 -1 7 -1c48 0 106.667 79.333 176 238l75 172
l-705 1605h-188v320h1120v-320h-329l317 -720c40.667 -94.667 70 -174.667 88 -240c18 65.333 47.333 145.333 88 240l316 720h-280v320h840v-320h-212l-668 -1520c-34.667 -78.667 -65.834 -146.5 -93.501 -203.5s-58.667 -115 -93 -174s-67.5 -108.833 -99.5 -149.5
s-68.167 -79.334 -108.5 -116.001s-82.166 -65.834 -125.499 -87.501s-91.333 -38.667 -144 -51s-109.334 -18.5 -170.001 -18.5c-56.667 0 -106.667 4.5 -150 13.5s-80.166 22.333 -110.499 40s-55.5 36.667 -75.5 57s-39 44.5 -57 72.5z" />
    <glyph glyph-name="Amacron" unicode="&#x100;" horiz-adv-x="2960" 
d="M920 2720v320h1080v-320h-1080zM1240 2480h440l957 -2160h243v-320h-1280v320h320l-142 320h-904l-133 -320h619v-320h-1280v320h261zM1007 960h629l-248 560c-32 73.333 -57.333 145.333 -76 216c-26 -92 -50 -164 -72 -216z" />
    <glyph glyph-name="amacron" unicode="&#x101;" horiz-adv-x="2100" 
d="M480 2080v320h1080v-320h-1080zM1800 1205l-0.000976562 -885h200v-320h-623l-89 208c-68 -97.333 -146.833 -164 -236.5 -200s-214.834 -54 -375.501 -54c-83.333 0 -160.833 14.5 -232.5 43.5s-132.667 68.5 -183 118.5s-89.666 110 -117.999 180s-42.5 145 -42.5 225
c0 138 54 252.5 162 343.5s246 136.5 414 136.5c135.333 0 247.333 -12.833 336 -38.5s164.667 -66.5 228 -122.5v424c0 60 -8.16699 110.167 -24.5 150.5s-40.833 71.333 -73.5 93s-69.334 36.834 -110.001 45.501s-89.334 13 -146.001 13
c-45.333 0 -86.333 -9.66699 -123 -29c20.667 -43.333 31 -89 31 -137c0 -88.667 -31.167 -164.167 -93.5 -226.5s-137.833 -93.5 -226.5 -93.5s-164.167 31.167 -226.5 93.5s-93.5 137.833 -93.5 226.5c0 45.333 8.83301 88 26.5 128s42.167 75 73.5 105
c26.667 28 54.334 53.167 83.001 75.5s64.834 44.666 108.501 66.999s91.167 40.833 142.5 55.5s112.833 26.5 184.5 35.5s150.167 13.5 235.5 13.5c110.667 0 214.667 -16.333 312 -49s181.333 -78 252 -136s126.334 -129.333 167.001 -214s61 -176.667 61 -276zM1240 444
v138.001c-41.333 39.333 -87.833 72.5 -139.5 99.5s-99.5 40.5 -143.5 40.5c-94.667 0 -161.334 -15.833 -200.001 -47.5s-58 -82.834 -58 -153.501c0 -84.667 16.667 -147 50 -187s95.333 -60 186 -60c51.333 0 104.833 16.5 160.5 49.5s103.834 73.167 144.501 120.5z" />
    <glyph glyph-name="Abreve" unicode="&#x102;" horiz-adv-x="2960" 
d="M780 3160l-0.00195312 120h480v-120c0 -51.333 2.83301 -92 8.5 -122s16.334 -54.167 32.001 -72.5s35.667 -30.5 60 -36.5s57.5 -9 99.5 -9s75.167 3 99.5 9s44.333 18.167 60 36.5s26.334 42.5 32.001 72.5s8.5 70.667 8.5 122v120h480v-120
c0 -91.333 -31.5 -177.166 -94.5 -257.5c-63 -80.333 -146.833 -144.166 -251.5 -191.5c-104.667 -47.333 -216 -71 -334 -71s-229.333 23.667 -334 71s-188.5 111.166 -251.5 191.5c-63 80.333 -94.5 166.166 -94.5 257.5zM1240 2480h440l957 -2160h243v-320h-1280v320h320
l-142 320h-904l-133 -320h619v-320h-1280v320h261zM1007 960h629l-248 560c-32 73.333 -57.333 145.333 -76 216c-26 -92 -50 -164 -72 -216z" />
    <glyph glyph-name="abreve" unicode="&#x103;" horiz-adv-x="2100" 
d="M340 2520l-0.00195312 120h480v-120c0 -51.333 2.83301 -92 8.5 -122s16.334 -54.167 32.001 -72.5s35.667 -30.5 60 -36.5s57.5 -9 99.5 -9s75.167 3 99.5 9s44.333 18.167 60 36.5s26.334 42.5 32.001 72.5s8.5 70.667 8.5 122v120h480v-120
c0 -91.333 -31.5 -177.166 -94.5 -257.5c-63 -80.333 -146.833 -144.166 -251.5 -191.5c-104.667 -47.333 -216 -71 -334 -71s-229.333 23.667 -334 71s-188.5 111.166 -251.5 191.5c-63 80.333 -94.5 166.166 -94.5 257.5zM1800 1205l-0.000976562 -885h200v-320h-623
l-89 208c-68 -97.333 -146.833 -164 -236.5 -200s-214.834 -54 -375.501 -54c-83.333 0 -160.833 14.5 -232.5 43.5s-132.667 68.5 -183 118.5s-89.666 110 -117.999 180s-42.5 145 -42.5 225c0 138 54 252.5 162 343.5s246 136.5 414 136.5
c135.333 0 247.333 -12.833 336 -38.5s164.667 -66.5 228 -122.5v424c0 60 -8.16699 110.167 -24.5 150.5s-40.833 71.333 -73.5 93s-69.334 36.834 -110.001 45.501s-89.334 13 -146.001 13c-45.333 0 -86.333 -9.66699 -123 -29c20.667 -43.333 31 -89 31 -137
c0 -88.667 -31.167 -164.167 -93.5 -226.5s-137.833 -93.5 -226.5 -93.5s-164.167 31.167 -226.5 93.5s-93.5 137.833 -93.5 226.5c0 45.333 8.83301 88 26.5 128s42.167 75 73.5 105c26.667 28 54.334 53.167 83.001 75.5s64.834 44.666 108.501 66.999
s91.167 40.833 142.5 55.5s112.833 26.5 184.5 35.5s150.167 13.5 235.5 13.5c110.667 0 214.667 -16.333 312 -49s181.333 -78 252 -136s126.334 -129.333 167.001 -214s61 -176.667 61 -276zM1240 444v138.001c-41.333 39.333 -87.833 72.5 -139.5 99.5
s-99.5 40.5 -143.5 40.5c-94.667 0 -161.334 -15.833 -200.001 -47.5s-58 -82.834 -58 -153.501c0 -84.667 16.667 -147 50 -187s95.333 -60 186 -60c51.333 0 104.833 16.5 160.5 49.5s103.834 73.167 144.501 120.5z" />
    <glyph glyph-name="Aogonek" unicode="&#x104;" horiz-adv-x="2960" 
d="M2520 -440c0 88.667 31.167 164.17 93.5 226.503s137.833 93.5 226.5 93.5s164.167 -31.167 226.5 -93.5s93.5 -137.833 93.5 -226.5c0 -47.333 -9.66699 -91.833 -29 -133.5s-46 -77.167 -80 -106.5c-20.667 -20.667 -40 -37.334 -58 -50.001
s-41.167 -24.834 -69.5 -36.501s-62.333 -20.167 -102 -25.5s-86.834 -8 -141.5 -8c-147.333 0 -264.166 33.167 -350.5 99.5c-86.333 66.333 -129.5 166.5 -129.5 300.5c0 69.333 8.5 134.166 25.5 194.499s46.5 128.833 88.5 205.5h-714v320h320l-142 320h-904l-133 -320
h619v-320h-1280v320h261l899 2160h440l957 -2160h243v-320h-287c-32.667 -61.333 -59.667 -125 -81 -191s-32 -122.333 -32 -169c0.666992 -41.333 5.16699 -78.833 13.5 -112.5s21.166 -52.167 38.5 -55.5c-8 28.667 -12 58 -12 88zM1007 960.003h629l-248 560
c-32 73.333 -57.333 145.333 -76 216c-26 -92 -50 -164 -72 -216z" />
    <glyph glyph-name="aogonek" unicode="&#x105;" horiz-adv-x="2100" 
d="M1660 -440c0 88.667 31.167 164.17 93.5 226.503s137.833 93.5 226.5 93.5s164.167 -31.167 226.5 -93.5s93.5 -137.833 93.5 -226.5c0 -47.333 -9.66699 -91.833 -29 -133.5s-46 -77.167 -80 -106.5c-20.667 -20.667 -40 -37.334 -58 -50.001
s-41.167 -24.834 -69.5 -36.501s-62.333 -20.167 -102 -25.5s-86.834 -8 -141.501 -8c-147.333 0 -264.166 33.167 -350.499 99.5s-129.5 166.5 -129.5 300.5c0 69.333 8.5 134.166 25.5 194.499s46.5 128.833 88.5 205.5h-77l-89 208
c-68 -97.333 -146.833 -164 -236.5 -200s-214.834 -54 -375.501 -54c-83.333 0 -160.833 14.5 -232.5 43.5s-132.667 68.5 -183 118.5s-89.666 110 -117.999 180s-42.5 145 -42.5 225c0 138 54 252.5 162 343.5s246 136.5 414 136.5c135.333 0 247.333 -12.833 336 -38.5
s164.667 -66.5 228 -122.5v424c0 60 -8.16699 110.167 -24.5 150.5s-40.833 71.333 -73.5 93s-69.334 36.834 -110.001 45.501s-89.334 13 -146.001 13c-45.333 0 -86.333 -9.66699 -123 -29c20.667 -43.333 31 -89 31 -137c0 -88.667 -31.167 -164.167 -93.5 -226.5
s-137.833 -93.5 -226.5 -93.5s-164.167 31.167 -226.5 93.5s-93.5 137.833 -93.5 226.5c0 45.333 8.83301 88 26.5 128s42.167 75 73.5 105c26.667 28 54.334 53.167 83.001 75.5s64.834 44.666 108.501 66.999s91.167 40.833 142.5 55.5s112.833 26.5 184.5 35.5
s150.167 13.5 235.5 13.5c110.667 0 214.667 -16.333 312 -49s181.333 -78 252 -136s126.334 -129.333 167.001 -214s61 -176.667 61 -276v-885h200v-320h-267c-32.667 -61.333 -59.667 -125 -81 -191s-32 -122.333 -32 -169c0.666992 -41.333 5.16699 -78.833 13.5 -112.5
s21.166 -52.167 38.499 -55.5c-8 28.667 -12 58 -12 88zM1240 444.003v138.001c-41.333 39.333 -87.833 72.5 -139.5 99.5s-99.5 40.5 -143.5 40.5c-94.667 0 -161.334 -15.833 -200.001 -47.5s-58 -82.834 -58 -153.501c0 -84.667 16.667 -147 50 -187s95.333 -60 186 -60
c51.333 0 104.833 16.5 160.5 49.5s103.834 73.167 144.501 120.5z" />
    <glyph glyph-name="Cacute" unicode="&#x106;" horiz-adv-x="2520" 
d="M807 2732l479.999 480c46 46 101.333 69 166 69s120 -22.833 166 -68.5s69 -101.167 69 -166.5c0 -53.333 -16.167 -101 -48.5 -143s-74.166 -70 -125.499 -84l-656 -176c-5.33301 -1.33301 -10 -2 -14 -2c-14.667 0 -27.167 5.16699 -37.5 15.5s-15.5 22.833 -15.5 37.5
s5.33301 27.334 16 38zM1360 2520c350 0 629.999 -93.3311 839.999 -279.998c86 -76 147.5 -152.5 184.5 -229.5s55.5 -173.833 55.5 -290.5c0 -88.667 -31.167 -164.167 -93.5 -226.5s-137.833 -93.5 -226.5 -93.5s-164.167 31.167 -226.5 93.5s-93.5 137.833 -93.5 226.5
c0 45.333 9 88.166 27 128.499s43 75.5 75 105.5c-48 89.333 -112.833 152.666 -194.5 189.999s-184.167 56 -307.5 56c-80.667 0 -155.5 -16.333 -224.5 -49s-128.667 -78.334 -179 -137.001s-93.5 -128 -129.5 -208s-62.833 -167.833 -80.5 -263.5
s-26.5 -196.5 -26.5 -302.5c0 -104.667 10.667 -205.334 32 -302.001s52.333 -184.667 93 -264s88.334 -148.5 143.001 -207.5s117.5 -104.833 188.5 -137.5s145.5 -49 223.5 -49c113.333 0 218.833 30.333 316.5 91s178.667 145.834 243 255.501s104.5 234.167 120.5 373.5
l320 -80c-16 -78 -34.667 -150.5 -56 -217.5s-48 -133.667 -80 -200s-68.333 -126.166 -109 -179.499s-88.667 -103 -144 -149s-116.333 -84.5 -183 -115.5s-143 -55.167 -229 -72.5s-179 -26 -279 -26c-119.333 0 -233.166 12.5 -341.499 37.5s-206.333 59.833 -294 104.5
s-168.5 98 -242.5 160s-138 130.5 -192 205.5s-99.833 154.667 -137.5 239s-65.834 171.333 -84.501 261s-28 180.5 -28 272.5s9.33301 182.833 28 272.5s46.834 176.667 84.501 261s83.5 164 137.5 239s118 143.5 192 205.5s154.833 115.333 242.5 160
s185.667 79.5 294 104.5s222.166 37.5 341.499 37.5z" />
    <glyph glyph-name="cacute" unicode="&#x107;" horiz-adv-x="2034" 
d="M585 2092l479.999 480c46 46 101.333 69 166 69s120 -22.833 166 -68.5s69 -101.167 69 -166.5c0 -53.333 -16.167 -101 -48.5 -143s-74.166 -70 -125.499 -84l-656 -176c-5.33301 -1.33301 -10 -2 -14 -2c-14.667 0 -27.167 5.16699 -37.5 15.5s-15.5 22.833 -15.5 37.5
s5.33301 27.334 16 38zM1412 1489c-76 47.333 -172.669 71.002 -290.002 71.002c-47.333 0 -91.333 -6.5 -132 -19.5s-79.5 -35.167 -116.5 -66.5s-68.5 -71 -94.5 -119s-46.667 -109 -62 -183s-23 -158 -23 -252s8.33301 -177.667 25 -251s38.834 -133.333 66.501 -180
s61 -85 100 -115s79.167 -51.167 120.5 -63.5s86 -18.5 134 -18.5c140.667 0 250.5 27.167 329.5 81.5s142.167 138.166 189.5 251.499l266 -92c-24 -64.667 -54.5 -125.5 -91.5 -182.5s-81.5 -109.5 -133.5 -157.5s-109.833 -89.167 -173.5 -123.5
s-135.5 -61.166 -215.5 -80.499s-164.333 -29 -253 -29c-131.333 0 -255.5 23 -372.5 69s-218.667 110.167 -305 192.5s-154.666 183.833 -204.999 304.5s-75.5 252 -75.5 394c0 114 16 221.333 48 322s77.167 189.667 135.5 267s126.833 144 205.5 200s166 98.5 262 127.5
s196.667 43.5 302 43.5c83.333 0 161.666 -7.83301 234.999 -23.5s138.833 -37 196.5 -64s111.5 -60.5 161.5 -100.5s93.833 -82.5 131.5 -127.5s72.834 -95.5 105.501 -151.5c34 -52.667 51 -110.334 51 -173.001c0 -88.667 -31.167 -164.167 -93.5 -226.5
s-137.833 -93.5 -226.5 -93.5s-164.167 31.167 -226.5 93.5s-93.5 137.833 -93.5 226.5c0 49.333 10.5 95.666 31.5 138.999s49.833 80 86.5 110z" />
    <glyph glyph-name="Ccircumflex" unicode="&#x108;" horiz-adv-x="2520" 
d="M2100 2640h-520l-200 480l-200 -480h-520l480 640h480zM1360 2520c350 0 629.999 -93.3311 839.999 -279.998c86 -76 147.5 -152.5 184.5 -229.5s55.5 -173.833 55.5 -290.5c0 -88.667 -31.167 -164.167 -93.5 -226.5s-137.833 -93.5 -226.5 -93.5
s-164.167 31.167 -226.5 93.5s-93.5 137.833 -93.5 226.5c0 45.333 9 88.166 27 128.499s43 75.5 75 105.5c-48 89.333 -112.833 152.666 -194.5 189.999s-184.167 56 -307.5 56c-80.667 0 -155.5 -16.333 -224.5 -49s-128.667 -78.334 -179 -137.001
s-93.5 -128 -129.5 -208s-62.833 -167.833 -80.5 -263.5s-26.5 -196.5 -26.5 -302.5c0 -104.667 10.667 -205.334 32 -302.001s52.333 -184.667 93 -264s88.334 -148.5 143.001 -207.5s117.5 -104.833 188.5 -137.5s145.5 -49 223.5 -49c113.333 0 218.833 30.333 316.5 91
s178.667 145.834 243 255.501s104.5 234.167 120.5 373.5l320 -80c-16 -78 -34.667 -150.5 -56 -217.5s-48 -133.667 -80 -200s-68.333 -126.166 -109 -179.499s-88.667 -103 -144 -149s-116.333 -84.5 -183 -115.5s-143 -55.167 -229 -72.5s-179 -26 -279 -26
c-119.333 0 -233.166 12.5 -341.499 37.5s-206.333 59.833 -294 104.5s-168.5 98 -242.5 160s-138 130.5 -192 205.5s-99.833 154.667 -137.5 239s-65.834 171.333 -84.501 261s-28 180.5 -28 272.5s9.33301 182.833 28 272.5s46.834 176.667 84.501 261s83.5 164 137.5 239
s118 143.5 192 205.5s154.833 115.333 242.5 160s185.667 79.5 294 104.5s222.166 37.5 341.499 37.5z" />
    <glyph glyph-name="ccircumflex" unicode="&#x109;" horiz-adv-x="2034" 
d="M1740 2000h-520l-200 480l-200 -480h-520l480 640h480zM1412 1489c-76 47.333 -172.669 71.002 -290.002 71.002c-47.333 0 -91.333 -6.5 -132 -19.5s-79.5 -35.167 -116.5 -66.5s-68.5 -71 -94.5 -119s-46.667 -109 -62 -183s-23 -158 -23 -252
s8.33301 -177.667 25 -251s38.834 -133.333 66.501 -180s61 -85 100 -115s79.167 -51.167 120.5 -63.5s86 -18.5 134 -18.5c140.667 0 250.5 27.167 329.5 81.5s142.167 138.166 189.5 251.499l266 -92c-24 -64.667 -54.5 -125.5 -91.5 -182.5s-81.5 -109.5 -133.5 -157.5
s-109.833 -89.167 -173.5 -123.5s-135.5 -61.166 -215.5 -80.499s-164.333 -29 -253 -29c-131.333 0 -255.5 23 -372.5 69s-218.667 110.167 -305 192.5s-154.666 183.833 -204.999 304.5s-75.5 252 -75.5 394c0 114 16 221.333 48 322s77.167 189.667 135.5 267
s126.833 144 205.5 200s166 98.5 262 127.5s196.667 43.5 302 43.5c83.333 0 161.666 -7.83301 234.999 -23.5s138.833 -37 196.5 -64s111.5 -60.5 161.5 -100.5s93.833 -82.5 131.5 -127.5s72.834 -95.5 105.501 -151.5c34 -52.667 51 -110.334 51 -173.001
c0 -88.667 -31.167 -164.167 -93.5 -226.5s-137.833 -93.5 -226.5 -93.5s-164.167 31.167 -226.5 93.5s-93.5 137.833 -93.5 226.5c0 49.333 10.5 95.666 31.5 138.999s49.833 80 86.5 110z" />
    <glyph glyph-name="Cdotaccent" unicode="&#x10a;" horiz-adv-x="2520" 
d="M1060 2920c0 88.667 31.167 164.167 93.5 226.5s137.833 93.5 226.5 93.5s164.167 -31.167 226.5 -93.5s93.5 -137.833 93.5 -226.5s-31.167 -164.167 -93.5 -226.5s-137.833 -93.5 -226.5 -93.5s-164.167 31.167 -226.5 93.5s-93.5 137.833 -93.5 226.5zM1360 2520
c350 0 629.999 -93.3311 839.999 -279.998c86 -76 147.5 -152.5 184.5 -229.5s55.5 -173.833 55.5 -290.5c0 -88.667 -31.167 -164.167 -93.5 -226.5s-137.833 -93.5 -226.5 -93.5s-164.167 31.167 -226.5 93.5s-93.5 137.833 -93.5 226.5c0 45.333 9 88.166 27 128.499
s43 75.5 75 105.5c-48 89.333 -112.833 152.666 -194.5 189.999s-184.167 56 -307.5 56c-80.667 0 -155.5 -16.333 -224.5 -49s-128.667 -78.334 -179 -137.001s-93.5 -128 -129.5 -208s-62.833 -167.833 -80.5 -263.5s-26.5 -196.5 -26.5 -302.5
c0 -104.667 10.667 -205.334 32 -302.001s52.333 -184.667 93 -264s88.334 -148.5 143.001 -207.5s117.5 -104.833 188.5 -137.5s145.5 -49 223.5 -49c113.333 0 218.833 30.333 316.5 91s178.667 145.834 243 255.501s104.5 234.167 120.5 373.5l320 -80
c-16 -78 -34.667 -150.5 -56 -217.5s-48 -133.667 -80 -200s-68.333 -126.166 -109 -179.499s-88.667 -103 -144 -149s-116.333 -84.5 -183 -115.5s-143 -55.167 -229 -72.5s-179 -26 -279 -26c-119.333 0 -233.166 12.5 -341.499 37.5s-206.333 59.833 -294 104.5
s-168.5 98 -242.5 160s-138 130.5 -192 205.5s-99.833 154.667 -137.5 239s-65.834 171.333 -84.501 261s-28 180.5 -28 272.5s9.33301 182.833 28 272.5s46.834 176.667 84.501 261s83.5 164 137.5 239s118 143.5 192 205.5s154.833 115.333 242.5 160
s185.667 79.5 294 104.5s222.166 37.5 341.499 37.5z" />
    <glyph glyph-name="cdotaccent" unicode="&#x10b;" horiz-adv-x="2034" 
d="M700 2280c0 88.667 31.167 164.167 93.5 226.5s137.833 93.5 226.5 93.5s164.167 -31.167 226.5 -93.5s93.5 -137.833 93.5 -226.5s-31.167 -164.167 -93.5 -226.5s-137.833 -93.5 -226.5 -93.5s-164.167 31.167 -226.5 93.5s-93.5 137.833 -93.5 226.5zM1412 1489
c-76 47.333 -172.669 71.002 -290.002 71.002c-47.333 0 -91.333 -6.5 -132 -19.5s-79.5 -35.167 -116.5 -66.5s-68.5 -71 -94.5 -119s-46.667 -109 -62 -183s-23 -158 -23 -252s8.33301 -177.667 25 -251s38.834 -133.333 66.501 -180s61 -85 100 -115
s79.167 -51.167 120.5 -63.5s86 -18.5 134 -18.5c140.667 0 250.5 27.167 329.5 81.5s142.167 138.166 189.5 251.499l266 -92c-24 -64.667 -54.5 -125.5 -91.5 -182.5s-81.5 -109.5 -133.5 -157.5s-109.833 -89.167 -173.5 -123.5s-135.5 -61.166 -215.5 -80.499
s-164.333 -29 -253 -29c-131.333 0 -255.5 23 -372.5 69s-218.667 110.167 -305 192.5s-154.666 183.833 -204.999 304.5s-75.5 252 -75.5 394c0 114 16 221.333 48 322s77.167 189.667 135.5 267s126.833 144 205.5 200s166 98.5 262 127.5s196.667 43.5 302 43.5
c83.333 0 161.666 -7.83301 234.999 -23.5s138.833 -37 196.5 -64s111.5 -60.5 161.5 -100.5s93.833 -82.5 131.5 -127.5s72.834 -95.5 105.501 -151.5c34 -52.667 51 -110.334 51 -173.001c0 -88.667 -31.167 -164.167 -93.5 -226.5s-137.833 -93.5 -226.5 -93.5
s-164.167 31.167 -226.5 93.5s-93.5 137.833 -93.5 226.5c0 49.333 10.5 95.666 31.5 138.999s49.833 80 86.5 110z" />
    <glyph glyph-name="Ccaron" unicode="&#x10c;" horiz-adv-x="2520" 
d="M659 3276h520l200 -480l200 480h520l-480 -640h-480zM1360 2520c350 0 629.999 -93.3311 839.999 -279.998c86 -76 147.5 -152.5 184.5 -229.5s55.5 -173.833 55.5 -290.5c0 -88.667 -31.167 -164.167 -93.5 -226.5s-137.833 -93.5 -226.5 -93.5
s-164.167 31.167 -226.5 93.5s-93.5 137.833 -93.5 226.5c0 45.333 9 88.166 27 128.499s43 75.5 75 105.5c-48 89.333 -112.833 152.666 -194.5 189.999s-184.167 56 -307.5 56c-80.667 0 -155.5 -16.333 -224.5 -49s-128.667 -78.334 -179 -137.001
s-93.5 -128 -129.5 -208s-62.833 -167.833 -80.5 -263.5s-26.5 -196.5 -26.5 -302.5c0 -104.667 10.667 -205.334 32 -302.001s52.333 -184.667 93 -264s88.334 -148.5 143.001 -207.5s117.5 -104.833 188.5 -137.5s145.5 -49 223.5 -49c113.333 0 218.833 30.333 316.5 91
s178.667 145.834 243 255.501s104.5 234.167 120.5 373.5l320 -80c-16 -78 -34.667 -150.5 -56 -217.5s-48 -133.667 -80 -200s-68.333 -126.166 -109 -179.499s-88.667 -103 -144 -149s-116.333 -84.5 -183 -115.5s-143 -55.167 -229 -72.5s-179 -26 -279 -26
c-119.333 0 -233.166 12.5 -341.499 37.5s-206.333 59.833 -294 104.5s-168.5 98 -242.5 160s-138 130.5 -192 205.5s-99.833 154.667 -137.5 239s-65.834 171.333 -84.501 261s-28 180.5 -28 272.5s9.33301 182.833 28 272.5s46.834 176.667 84.501 261s83.5 164 137.5 239
s118 143.5 192 205.5s154.833 115.333 242.5 160s185.667 79.5 294 104.5s222.166 37.5 341.499 37.5z" />
    </font>
</defs>
</svg>
